<?xml version="1.0" encoding="UTF-8"?>
<!DOCTYPE svg PUBLIC "-//W3C//DTD SVG 1.1//EN" "http://www.w3.org/Graphics/SVG/1.1/DTD/svg11.dtd">
<!-- Creator: CorelDRAW 2019 (64 Bit) -->
<svg xmlns="http://www.w3.org/2000/svg" xml:space="preserve" width="1300px" height="709px" version="1.1" shape-rendering="geometricPrecision" text-rendering="geometricPrecision" image-rendering="optimizeQuality" fill-rule="evenodd" clip-rule="evenodd"
viewBox="0 0 1298.32 708.21"
 xmlns:xlink="http://www.w3.org/1999/xlink">
 <g id="Camada_x0020_1">
  <metadata id="CorelCorpID_0Corel-Layer"/>
  <g id="_2533887072176">
   <path fill="#F5B2B6" d="M1294.02 202.81l0 1.15c-4.25,1 -8.58,1.68 -12.95,2.07 -19.6,1.79 -39.47,-1.18 -59.19,-2.1 -0.78,-0.04 -1.57,-0.07 -2.35,-0.1 -5.01,-0.19 -10,-0.24 -14.98,-0.02 -0.72,0.03 -1.45,0.07 -2.18,0.11 -0.78,0.05 -1.56,0.1 -2.35,0.16 -0.85,0.07 -1.71,0.15 -2.56,0.23 -6.71,0.67 -13.37,1.91 -19.98,3.99 -29.53,9.33 -56.86,33.96 -89.56,28.73 3.88,1.54 7.87,2.79 11.93,3.8 19.36,4.8 39.97,4.38 59.55,1.13 0.01,-0.01 0.01,-0.01 0.02,-0.01 9.73,-6.65 20.37,-11.76 31.65,-15.48 15.74,-5.19 32.16,-7.88 48.51,-10.33 15.9,-2.39 31.8,-4.68 47.29,-9.11 2.4,-0.68 4.78,-1.42 7.15,-2.2l0 1.18c-3.66,1.21 -7.37,2.3 -11.1,3.27 -31.29,8.21 -64.26,8.52 -94.91,19.43 -14.61,5.2 -27.97,12.97 -39.58,23.25 -7.13,6.32 -13.58,13.43 -19.11,21.18 6.94,-7.57 15.39,-13.74 24.3,-18.8 13.15,-7.46 27.48,-12.61 42.1,-16.32 17.57,-4.46 35.53,-7.04 53.25,-10.8 15.32,-3.25 30.59,-7.41 44.87,-13.94 0.05,-0.03 0.1,-0.05 0.15,-0.07 0.03,-0.01 0.06,-0.01 0.08,0.01 0.02,0.02 0.04,0.04 0.04,0.07l0 1.23c0,0.03 -0.02,0.06 -0.05,0.08 -1.22,0.55 -2.45,1.09 -3.68,1.61 -31.18,13.14 -65.31,15.23 -97.71,23.95 -14.52,3.91 -28.72,9.36 -41.61,17.19 -11.52,7 -22.08,16.08 -29.07,27.74 14.25,-8.89 30.3,-14.39 46.56,-18.34 30.21,-7.33 61.94,-9.46 90.99,-21 0.08,-0.07 0.18,-0.1 0.27,-0.11 1.73,-0.69 3.45,-1.41 5.15,-2.17 10.33,-4.6 20.09,-10.42 29.06,-17.27l0 1.42c-9.83,7.41 -20.57,13.59 -31.94,18.31 -0.6,0.24 -1.19,0.48 -1.78,0.72 -5.58,10.79 -15.46,18.76 -25.65,24.97 -9.57,5.82 -19.46,10.96 -28.5,17.63 -8.14,5.99 -15.69,12.8 -22.48,20.28 -11.26,12.4 -20.38,26.7 -26.68,42.19 7.17,-12.61 17.08,-23.54 27.97,-33.06 12.58,-10.97 26.56,-20.2 40.81,-28.83 15.46,-9.37 31.32,-18.13 46.31,-28.26 7.72,-5.23 15.12,-10.86 21.94,-17.12l0 1.53c-7.64,6.91 -15.97,13.03 -24.62,18.73 -15.26,10.04 -31.3,18.82 -46.85,28.4 -14.22,8.76 -28.11,18.24 -40.41,29.6 -10.48,9.67 -19.77,20.77 -26.27,33.49 0.02,-0.03 0.04,-0.06 0.07,-0.09 10.64,-13.59 25.84,-22.8 41.4,-29.75 17.87,-7.99 36.81,-13.28 54.55,-21.56 15.39,-7.18 29.27,-16.99 40.96,-29.32 0.39,-0.41 0.79,-0.83 1.17,-1.25l0 1.66c-1.09,1.16 -2.21,2.3 -3.34,3.43 -12.21,12.1 -26.54,21.38 -42.25,28.28 -17.82,7.82 -36.67,13.1 -54.26,21.45 -15.84,7.51 -31,17.65 -40.77,32.52 -0.13,0.21 -0.34,0.28 -0.53,0.26 -0.23,-0.02 -0.45,-0.17 -0.51,-0.39 -0.02,-0.05 -0.02,-0.09 -0.02,-0.15 0,-0.07 0.02,-0.15 0.06,-0.24 3.43,-10.67 8.14,-20.9 14.01,-30.44 10.41,-16.94 24.32,-31.63 40.43,-43.25 9.25,-6.68 19.42,-11.78 29.06,-17.84 8.96,-5.63 17.55,-12.87 22.78,-22.23 -14.62,5.64 -30.01,9.01 -45.38,11.88 -31.62,5.91 -64.96,10.09 -92.52,28.02l-0.01 0.03c-0.18,0.32 -0.53,0.41 -0.84,0.24 -0.09,-0.04 -0.17,-0.11 -0.24,-0.19 -0.08,-0.11 -0.13,-0.25 -0.13,-0.39 0,-0.11 0.03,-0.21 0.08,-0.31 0.49,-0.88 0.99,-1.76 1.51,-2.62 7.6,-13.68 17.94,-25.87 30.01,-35.8 2.01,-1.65 4.06,-3.23 6.15,-4.73 -4.71,0.73 -9.46,1.27 -14.22,1.62 -20.05,1.46 -41.14,-0.24 -59.61,-8.69 -0.19,-0.09 -0.28,-0.28 -0.28,-0.47 0,-0.25 0.15,-0.51 0.41,-0.56 1.84,-0.34 3.65,-0.73 5.46,-1.2 14.66,-3.76 27.81,-11.61 40.3,-19.92 12.58,-8.36 24.78,-17.44 38.26,-24.35 6.53,-3.35 13.36,-6.18 20.47,-8.04 3.08,-0.8 6.21,-1.41 9.36,-1.86 2.35,-0.33 4.72,-0.57 7.09,-0.72 3.91,-0.25 7.83,-0.27 11.74,-0.11 19.41,0.79 38.24,5.86 57.31,9.05 6.73,1.13 13.57,2.03 20.42,2.43l0 1.15c-8.62,-0.51 -17.22,-1.82 -25.63,-3.35 -19.3,-3.52 -38.56,-8.47 -58.31,-8.25 -1.85,0.02 -3.69,0.09 -5.53,0.21 -2.37,0.16 -4.74,0.4 -7.09,0.75 -4.82,0.69 -9.57,1.78 -14.22,3.32 -7.22,2.38 -14.1,5.7 -20.7,9.46 -13.19,7.5 -25.29,16.7 -38.06,24.84 -11.59,7.39 -23.92,13.95 -37.39,17.02 18.38,3.29 36.58,-3.78 52.83,-11.72 14.24,-6.96 28.23,-14.94 43.77,-18.61 4.55,-1.08 9.14,-1.8 13.77,-2.25 0.75,-0.08 1.5,-0.14 2.26,-0.2 0.76,-0.06 1.52,-0.11 2.28,-0.16 0.85,-0.05 1.7,-0.1 2.55,-0.14 5.1,-0.22 10.22,-0.17 15.33,0.03 0.77,0.03 1.53,0.07 2.29,0.1 3.89,0.19 7.78,0.45 11.64,0.74 17.21,1.29 34.7,3.23 51.91,0.84 2.79,-0.39 5.56,-0.91 8.3,-1.57zm-208.24 33.23c-0.06,0.01 -0.11,0.02 -0.17,0.03 0.05,0.02 0.1,0.04 0.15,0.06 0,-0.03 0.01,-0.06 0.02,-0.09z"/>
   <path fill="#F5B2B6" d="M1257.88 83.44c-6.29,-5.83 -12.09,-12.2 -17.31,-19 -1.92,-2.5 -3.76,-5.06 -5.52,-7.68 -8.94,-13.28 -15.82,-27.94 -20.39,-43.28 -1.29,-4.32 -2.39,-8.7 -3.3,-13.12 -0.02,-0.09 0,-0.18 0.06,-0.25 0.06,-0.07 0.14,-0.11 0.23,-0.11l0.57 0c0.15,0 0.27,0.1 0.3,0.24 1.29,6.24 2.97,12.41 5.01,18.45 5.07,14.98 12.38,29.21 21.69,42.01 0.9,1.24 1.83,2.47 2.77,3.69 5.71,7.37 12.09,14.18 19.03,20.34 10.99,4.4 22.37,7.78 33.98,10.13 0.14,0.02 0.24,0.15 0.24,0.29l0 0.57c0,0.1 -0.04,0.18 -0.11,0.23 -0.07,0.06 -0.16,0.08 -0.25,0.07 -10.63,-2.14 -21.09,-5.16 -31.22,-9.02 2.93,2.49 5.96,4.86 9.08,7.12 7.05,5.1 14.53,9.61 22.34,13.48 0.1,0.05 0.16,0.15 0.16,0.26l0 0.63c0,0.11 -0.05,0.2 -0.14,0.26 -0.09,0.05 -0.19,0.06 -0.29,0.01 -9.67,-4.77 -18.86,-10.53 -27.36,-17.17 -2.42,-1.89 -4.78,-3.86 -7.03,-5.87 -4.03,-1.6 -8.05,-3.37 -12,-5.28 -13.33,-6.42 -25.88,-14.41 -37.37,-23.73 -0.9,-0.72 -1.79,-1.46 -2.68,-2.21 -11.78,-9.9 -22.38,-21.19 -31.55,-33.55 -4.85,-6.55 -9.29,-13.4 -13.28,-20.5 -0.06,-0.1 -0.06,-0.21 0,-0.3 0.05,-0.1 0.15,-0.15 0.26,-0.15l0.63 0c0.12,0 0.21,0.06 0.26,0.15 4.93,8.72 10.53,17.05 16.74,24.91 9.16,11.6 19.64,22.17 31.17,31.42 0.36,0.28 0.71,0.57 1.07,0.85 12.58,9.95 26.43,18.29 41.11,24.77 1.03,0.45 2.06,0.9 3.1,1.34z"/>
   <path fill="#F5B2B6" d="M1179.93 437.53c-13.57,5.53 -26.13,13.56 -36.7,23.72 -14.81,14.24 -24.79,32.32 -29.19,52.37 -2.26,10.3 -3.17,20.82 -3.17,31.36 0,13.19 1.41,26.37 3.39,39.4 3.72,24.57 9.34,48.9 10.98,73.75 0.27,4.04 0.41,8.1 0.41,12.15 0,12.71 -1.41,25.45 -4.82,37.71 -0.04,0.13 -0.16,0.22 -0.29,0.22l-0.59 0c-0.1,0 -0.18,-0.04 -0.24,-0.12 -0.06,-0.07 -0.08,-0.16 -0.05,-0.26 0.82,-2.95 1.54,-5.93 2.14,-8.93 1.88,-9.33 2.66,-18.82 2.66,-28.32 0,-12.9 -1.42,-25.77 -3.35,-38.51 -3.69,-24.36 -9.26,-48.48 -10.9,-73.11 -0.3,-4.61 -0.47,-9.24 -0.47,-13.86 0,-18.39 2.71,-36.91 10.45,-53.73 7.93,-17.24 20.93,-31.84 36.49,-42.59 8.2,-5.66 17.09,-10.27 26.39,-13.71 4.19,-3.18 8.55,-6.11 13.1,-8.75 13.62,-7.92 28.74,-13.29 44.38,-15.32 16.21,-2.11 32.81,-0.6 48.48,3.95 3.07,0.89 6.1,1.89 9.09,3.01 0.12,0.04 0.2,0.15 0.2,0.28l0 0.59c0,0.11 -0.05,0.19 -0.13,0.25 -0.08,0.06 -0.18,0.07 -0.28,0.04 -7.21,-2.71 -14.66,-4.76 -22.25,-6.09 -16.2,-2.85 -32.93,-2.33 -48.86,1.83 -14.34,3.74 -27.91,10.27 -39.97,18.88 7.48,-2.5 15.2,-4.26 23.02,-5.21 20.71,-2.54 41.94,0.64 61.39,8 9.4,3.56 18.44,8.09 26.94,13.45 0.09,0.06 0.14,0.15 0.14,0.26l0 0.66c0,0.11 -0.06,0.21 -0.16,0.26 -0.1,0.06 -0.21,0.05 -0.3,-0.01 -13.59,-8.61 -28.55,-15.09 -44.21,-18.8 -19.86,-4.7 -40.74,-4.78 -60.45,0.66 -3.24,0.9 -6.43,1.92 -9.54,3.07 -12.78,9.72 -23.72,21.85 -31.97,35.63 -9.02,15.07 -14.39,31.88 -16.19,49.33 -0.54,5.21 -0.79,10.45 -0.79,15.69 0,36.93 12.54,72.72 23.34,107.6 3.14,10.14 6.17,20.32 8.76,30.62 2.54,10.13 4.89,20.39 5.71,30.83 0.05,0.7 0.1,1.41 0.14,2.12 0,0.08 -0.03,0.16 -0.09,0.22 -0.06,0.06 -0.13,0.09 -0.21,0.09l-0.62 0c-0.16,0 -0.29,-0.12 -0.3,-0.28 -0.44,-8.03 -1.91,-16.01 -3.65,-23.84 -4.67,-20.95 -11.51,-41.31 -17.84,-61.79 -8.56,-27.66 -16.45,-56.73 -16.45,-85.89 0,-12.33 1.44,-24.58 4.75,-36.48 6.84,-24.56 21.94,-46.4 41.68,-62.4z"/>
   <path fill="#F5B2B6" d="M814.52 3.21l1.93 0c13.07,9.52 25.66,19.72 37.68,30.53 1.94,-0.61 3.88,-1.17 5.84,-1.67 16.05,-4.09 33.01,-4.32 49.2,-0.88 8.06,1.71 15.92,4.33 23.39,7.81 7.29,3.38 14.73,7.48 20.6,13.04 4.71,4.47 8.21,10.34 8.21,16.89 0,0.63 -0.04,1.26 -0.1,1.9 -0.58,5.59 -3.71,10.06 -8.51,12.17 -0.08,0.06 -0.18,0.1 -0.29,0.12 -1.23,0.51 -2.56,0.86 -3.98,1.04 -4.31,0.55 -8.61,-0.42 -12.68,-1.78 -4.18,-1.41 -8.28,-3.08 -12.33,-4.84 -8.36,-3.62 -16.45,-7.84 -24.33,-12.41 -13.12,-7.61 -25.62,-16.2 -38.01,-24.96 13.24,12.37 26,25.44 36.77,40.02 0.07,0.01 0.14,0.03 0.21,0.08 1.97,1.16 3.92,2.35 5.85,3.57 15.22,9.61 29.38,20.9 42.11,33.62 12.27,12.25 23.97,26.66 26.26,44.44 0.05,0.36 0.09,0.72 0.13,1.09 0.03,0.07 0.04,0.13 0.04,0.2 0,0.03 0,0.07 -0.01,0.11 0.14,1.45 0.22,2.92 0.22,4.39 0,0.31 -0.01,0.63 -0.01,0.95 -0.05,2.14 -0.27,4.28 -0.67,6.38 -0.73,3.77 -2.29,7.54 -5.43,9.93 -3.26,2.48 -6.84,2.37 -10.29,1.09 -0.09,0 -0.19,-0.03 -0.28,-0.1 -3.86,-1.52 -7.53,-4.48 -10.35,-6.91 -11.24,-9.68 -18.38,-22.83 -24.03,-36.38 -1.04,-2.49 -2.03,-5 -2.98,-7.49 -3.47,-9.07 -6.84,-18.16 -10.53,-27.15 -3.6,-8.76 -7.28,-17.5 -10.59,-26.38 -5.08,-6.97 -10.64,-13.56 -16.49,-19.89 0.18,0.27 0.35,0.54 0.52,0.82 10.58,16.91 17.29,36.17 19.75,55.95 0.68,5.53 1.03,11.11 1.03,16.69 0,1.07 -0.01,2.14 -0.04,3.22 -0.08,3.38 -0.29,6.76 -0.63,10.13 -0.97,9.55 -2.89,19.39 -8.1,27.62 -4.58,7.24 -12,12.79 -20.63,13.92 -4.37,0.57 -8.51,-0.23 -12.13,-2.1 -0.18,0 -0.36,-0.1 -0.48,-0.26 -3.45,-1.89 -6.41,-4.76 -8.6,-8.33 -3.48,-5.65 -4.66,-12.08 -4.66,-18.57 0,-3.65 0.38,-7.32 0.93,-10.89 0.41,-2.67 0.89,-5.34 1.44,-7.99 1.72,-8.27 4.09,-16.41 7.01,-24.31 7.35,-19.95 19.81,-38.99 19.81,-60.9 0,-0.02 0,-0.04 0,-0.06 -0.18,-0.19 -0.36,-0.38 -0.54,-0.57 -7.05,-7.28 -14.36,-14.31 -21.88,-21.1 -0.04,-0.03 -0.08,-0.05 -0.12,-0.08 -0.12,-0.05 -0.21,-0.15 -0.27,-0.26 -6.54,-5.89 -13.26,-11.59 -20.12,-17.1 -1.21,-0.97 -2.42,-1.94 -3.64,-2.9 0.69,1.28 1.39,2.56 2.08,3.84 8.85,16.5 16.72,33.65 20.01,52.21 1.2,6.78 1.88,13.78 1.88,20.78 0,11.46 -1.82,22.92 -6.17,33.46 -2.92,7.08 -7.8,13.99 -15.71,15.75 -3.43,0.76 -7.15,0.42 -10.18,-1.46 -3.11,-1.93 -5.2,-5.14 -6.36,-8.55 -1.34,-3.93 -1.48,-8.14 -1.48,-12.27 0,-0.59 0,-1.17 0,-1.75 0.03,-4.98 0.18,-9.97 0.45,-14.94 0.54,-10.06 1.56,-20.07 2.87,-30.05 2.62,-19.75 6.41,-39.33 10.23,-58.88 -4.22,-3.27 -8.49,-6.47 -12.82,-9.6zm156.56 157.81c-0.4,-2.65 -1.02,-5.26 -1.83,-7.81 -5.23,-16.44 -17.82,-29.46 -30.18,-40.95 -12.3,-11.42 -25.77,-21.54 -40.15,-30.2 0.04,0.08 0.07,0.17 0.1,0.26 0.07,0.02 0.13,0.05 0.2,0.1 6.22,4.76 12.19,9.86 17.92,15.2 20.33,18.96 37.87,40.77 53.94,63.4zm-65.19 -61.43c1.8,4.4 3.63,8.79 5.41,13.2 3.4,8.36 6.4,16.87 9.71,25.27 0.66,1.67 1.34,3.34 2.04,5.01 5.82,13.78 13.34,27.23 25.22,36.64 1.86,1.48 3.94,3.09 6.18,4.3 -4.72,-5.85 -9.09,-11.97 -13.17,-18.28 -4.34,-6.7 -8.31,-13.62 -12.11,-20.64 -3.48,-6.4 -6.82,-12.88 -10.18,-19.33 -4.51,-8.65 -8.92,-17.36 -13.1,-26.17zm24.9 46.09c0.39,0.72 0.79,1.45 1.19,2.18 7.13,13.09 15.26,25.71 24.78,37.19 0,0 0,0 0,0.01 1.06,0.39 2.15,0.66 3.27,0.75 4.52,0.37 8.04,-2.91 9.69,-6.86 1.44,-3.42 1.87,-7.3 1.87,-11.03 0,-0.03 0,-0.06 0,-0.1 0,-0.56 -0.01,-1.12 -0.03,-1.68 -0.03,-0.92 -0.09,-1.84 -0.18,-2.76 -4.49,-6.36 -9.09,-12.64 -13.82,-18.81 -16.81,-21.9 -35.43,-42.85 -57.25,-59.89 3.22,7.37 6.64,14.66 10.19,21.88 6.48,13.18 13.29,26.21 20.29,39.12zm-55.46 -8.17c2.66,-14.26 3.99,-28.77 3.99,-43.28 0,-10.62 -0.71,-21.25 -2.16,-31.78 -0.05,0.51 -0.1,1.02 -0.16,1.53 -2.45,20.45 -14.08,38.28 -20.68,57.45 -2.27,6.59 -4.23,13.37 -5.69,20.23 -0.81,3.86 -1.47,7.74 -1.94,11.63 -0.29,2.43 -0.47,4.9 -0.47,7.38 0,7.59 1.65,15.16 6.64,21.13 1.6,1.92 3.5,3.57 5.64,4.82 3.73,-8.74 6.93,-17.71 9.56,-26.85 2.12,-7.33 3.88,-14.76 5.27,-22.26zm2.97 -77.94c3.18,8.3 5.82,16.8 7.86,25.46 3.65,15.39 5.48,31.19 5.48,47 0,1.77 -0.02,3.55 -0.07,5.32 -0.41,15.72 -2.63,31.41 -6.68,46.63 5.41,-4.03 9.25,-9.92 11.63,-16.34 3.35,-8.99 4.37,-18.85 4.66,-28.38 0.01,-0.34 0.02,-0.67 0.03,-1 0.02,-1.02 0.04,-2.05 0.04,-3.07 0,-8.47 -0.81,-16.94 -2.39,-25.27 -3.41,-17.95 -10.39,-35.17 -20.56,-50.35zm12.16 77.72c0.04,-1.71 0.06,-3.41 0.06,-5.12 0,-23.56 -4.1,-47.1 -12.17,-69.26 1.07,7.9 1.74,15.85 1.99,23.82 0.08,2.49 0.12,4.98 0.12,7.48 0,14.48 -1.34,28.97 -3.97,43.22 -0.04,0.24 -0.09,0.47 -0.13,0.71 -3.16,16.82 -8.16,33.27 -14.88,49.02 1.31,0.66 2.7,1.18 4.15,1.52 4.25,0.98 8.73,0.41 12.78,-1.13 1.98,-0.76 3.81,-1.73 5.5,-2.87 -0.14,-0.1 -0.24,-0.25 -0.24,-0.44 0,-0.05 0.01,-0.1 0.03,-0.15 2.45,-9.16 4.27,-18.49 5.4,-27.91 0.74,-6.27 1.2,-12.58 1.36,-18.89zm62.05 -55.36c5.18,-2.3 7.72,-7.62 7.72,-13.12 0,-1.21 -0.12,-2.44 -0.37,-3.64 -0.63,-3.08 -2.02,-5.83 -3.86,-8.3 -0.05,-0.01 -0.1,-0.02 -0.14,-0.05 -6.75,-3.37 -13.75,-6.22 -20.9,-8.61 -23.16,-7.72 -47.53,-10.65 -71.79,-12.59 5.53,1.39 11.01,2.99 16.41,4.81 26.76,8.98 51.43,23.26 72.93,41.5zm1.79 -27.12c-2.4,-2.67 -5.29,-4.95 -8.18,-6.91 -13.2,-8.96 -28.69,-14.64 -44.44,-16.9 -14.88,-2.13 -30.15,-1.11 -44.58,3.03 7.26,0.54 14.52,1.14 21.77,1.9 25.85,2.72 51.85,7.57 75.43,18.88zm-98.86 -20.29c-0.07,0.02 -0.15,0.05 -0.23,0.07 0.1,0.07 0.2,0.14 0.3,0.21 -0.05,-0.08 -0.07,-0.18 -0.07,-0.28 0,0 0,0 0,0zm0.43 0.54c1.2,0.85 2.4,1.7 3.6,2.55 14.08,9.99 28.31,19.85 43.36,28.33 7.47,4.21 15.13,8.07 23.03,11.4 4.08,1.72 8.24,3.43 12.5,4.65 4.11,1.18 8.51,1.75 12.67,0.49 0.1,-0.03 0.19,-0.06 0.29,-0.09 -5.93,-5.01 -12.09,-9.73 -18.49,-14.12 -23.26,-15.94 -49.43,-27.18 -76.96,-33.21zm-35.53 101.74c2.63,-8.78 5.17,-17.59 7.37,-26.49 4.25,-17.17 7.24,-35.05 7.24,-52.81 0,-14.44 -1.98,-28.81 -6.87,-42.63 -0.32,1.66 -0.65,3.32 -0.97,4.98 -3.65,18.84 -7.18,37.73 -9.5,56.79 -1.14,9.44 -1.99,18.91 -2.41,28.41 -0.18,4.14 -0.29,8.29 -0.29,12.43 0,0.55 0.01,1.11 0.01,1.66 0.03,4.59 0.29,9.38 2.39,13.55 0.78,1.54 1.8,2.95 3.03,4.11zm11.78 -115.27c2.38,6.13 4.4,12.4 6.05,18.77 3.61,14.03 5.43,28.53 5.43,43.03 0,2.3 -0.05,4.6 -0.14,6.9 -0.66,16.49 -3.69,32.87 -9.07,48.47 1.08,-0.46 2.11,-1.03 3.06,-1.68 6.93,-4.76 9.95,-13.76 12.02,-21.51 2.12,-7.96 3.09,-16.18 3.09,-24.42 0,-9.76 -1.35,-19.54 -3.74,-28.94 -3.62,-14.27 -9.83,-27.64 -16.7,-40.62zm0.9 117.69c3.08,-8.79 5.43,-17.83 7.01,-27.01 1.63,-9.53 2.44,-19.19 2.44,-28.86 0,-7.03 -0.43,-14.06 -1.28,-21.04 -1.53,-12.53 -4.47,-24.89 -8.76,-36.77 1.18,4.82 2.05,9.72 2.65,14.64 0.71,5.85 1.04,11.68 1.04,17.5 0,27.16 -7.05,54.01 -14.84,79.92 1.4,1.08 3.04,1.86 4.88,2.18 2.29,0.41 4.65,0.16 6.86,-0.56zm28.81 -136.01l5.87 0c19.13,4.03 37.84,10.16 56.39,16.27 0.45,-0.11 0.9,-0.23 1.34,-0.36 3.7,-1.1 7.35,-3.58 8.36,-7.5 0.2,-0.77 0.29,-1.53 0.29,-2.3 0,-1.6 -0.41,-3.18 -1.09,-4.65 -1.18,-0.49 -2.35,-0.97 -3.54,-1.46l2.94 0 1.15 0c0.11,0.2 0.21,0.4 0.31,0.6 0.25,0.11 0.36,0.34 0.36,0.57 0,0.06 -0.01,0.12 -0.03,0.18 0.14,0.34 0.27,0.68 0.39,1.03 0.39,1.21 0.6,2.46 0.6,3.69 0,2.23 -0.68,4.42 -2.12,6.26 -2.08,2.65 -5.18,4.17 -8.39,4.95 -0.12,0.16 -0.32,0.26 -0.57,0.17 -0.03,-0.01 -0.05,-0.01 -0.08,-0.02 -0.15,0.03 -0.3,0.06 -0.45,0.09 -8.89,1.71 -18.43,0.6 -27.26,-0.96 -9.37,-1.65 -18.56,-4.16 -27.84,-6.25 -16.06,-3.61 -32.24,-6.66 -48.29,-10.31l5.16 0c15.54,3.42 31.17,6.4 46.67,9.96 8.82,2.03 17.57,4.39 26.51,5.84 4.57,0.74 9.19,1.24 13.82,1.33 3.11,0.06 6.35,0.05 9.48,-0.43 -7.06,-2.32 -14.12,-4.63 -21.22,-6.82 -12.7,-3.91 -25.66,-7.43 -38.76,-9.88zm14.69 54.86l0 0z"/>
   <path fill="#F5B2B6" d="M726.87 701.01l-1.92 0c-13.08,-9.52 -25.67,-19.71 -37.69,-30.53 -1.93,0.61 -3.88,1.17 -5.84,1.68 -16.05,4.08 -33.01,4.31 -49.2,0.88 -8.06,-1.72 -15.92,-4.34 -23.39,-7.81 -7.29,-3.38 -14.73,-7.48 -20.6,-13.04 -4.71,-4.48 -8.2,-10.34 -8.2,-16.89 0,-0.63 0.03,-1.26 0.1,-1.9 0.57,-5.59 3.71,-10.06 8.5,-12.17 0.09,-0.06 0.19,-0.11 0.3,-0.12 1.22,-0.51 2.55,-0.86 3.98,-1.05 4.31,-0.55 8.6,0.43 12.67,1.79 4.18,1.4 8.28,3.08 12.33,4.84 8.36,3.62 16.45,7.83 24.33,12.4 13.12,7.61 25.63,16.21 38.01,24.96 -13.24,-12.36 -25.99,-25.43 -36.77,-40.01 -0.07,-0.01 -0.14,-0.04 -0.21,-0.08 -1.97,-1.17 -3.92,-2.36 -5.85,-3.58 -15.22,-9.6 -29.37,-20.9 -42.11,-33.61 -12.27,-12.25 -23.97,-26.67 -26.26,-44.44 -0.04,-0.36 -0.08,-0.73 -0.12,-1.09 -0.03,-0.07 -0.05,-0.13 -0.05,-0.2 0,-0.04 0.01,-0.08 0.02,-0.11 -0.15,-1.46 -0.23,-2.92 -0.23,-4.39 0,-0.32 0.01,-0.64 0.02,-0.96 0.04,-2.14 0.26,-4.27 0.66,-6.38 0.73,-3.77 2.29,-7.54 5.43,-9.92 3.26,-2.48 6.85,-2.38 10.29,-1.09 0.09,0 0.19,0.03 0.28,0.1 3.86,1.51 7.54,4.48 10.36,6.9 11.24,9.68 18.37,22.84 24.02,36.39 1.04,2.49 2.03,4.99 2.98,7.49 3.47,9.07 6.84,18.16 10.53,27.15 3.61,8.76 7.28,17.5 10.59,26.38 5.08,6.96 10.65,13.55 16.49,19.89 -0.17,-0.28 -0.34,-0.55 -0.51,-0.82 -10.58,-16.91 -17.3,-36.17 -19.75,-55.96 -0.69,-5.53 -1.04,-11.1 -1.04,-16.68 0,-1.07 0.01,-2.15 0.04,-3.22 0.08,-3.39 0.29,-6.77 0.64,-10.14 0.96,-9.54 2.89,-19.39 8.09,-27.61 4.58,-7.24 12,-12.8 20.64,-13.93 4.36,-0.57 8.5,0.24 12.12,2.11 0.18,0 0.37,0.1 0.49,0.25 3.45,1.9 6.4,4.77 8.59,8.33 3.48,5.66 4.66,12.08 4.66,18.58 0,3.65 -0.37,7.32 -0.92,10.88 -0.41,2.68 -0.9,5.35 -1.45,8 -1.72,8.26 -4.09,16.41 -7,24.31 -7.35,19.95 -19.82,38.99 -19.82,60.9 0,0.02 0,0.04 0,0.06 0.18,0.19 0.36,0.38 0.55,0.56 7.04,7.28 14.35,14.32 21.88,21.11 0.04,0.02 0.08,0.05 0.11,0.08 0.12,0.05 0.21,0.14 0.27,0.26 6.54,5.88 13.26,11.58 20.12,17.09 1.21,0.97 2.42,1.94 3.65,2.9 -0.7,-1.27 -1.39,-2.55 -2.08,-3.84 -8.85,-16.49 -16.73,-33.64 -20.02,-52.2 -1.2,-6.78 -1.88,-13.78 -1.88,-20.78 0,-11.46 1.82,-22.92 6.17,-33.46 2.92,-7.08 7.8,-13.99 15.71,-15.75 3.44,-0.76 7.16,-0.43 10.19,1.45 3.1,1.93 5.19,5.15 6.35,8.56 1.34,3.93 1.49,8.14 1.49,12.27 0,0.58 -0.01,1.16 -0.01,1.74 -0.02,4.99 -0.18,9.97 -0.45,14.95 -0.54,10.05 -1.55,20.07 -2.87,30.05 -2.62,19.75 -6.41,39.32 -10.22,58.87 4.21,3.28 8.49,6.48 12.81,9.6zm-156.56 -157.8c0.4,2.64 1.03,5.25 1.83,7.8 5.23,16.45 17.83,29.46 30.19,40.95 12.29,11.43 25.76,21.55 40.14,30.21 -0.03,-0.09 -0.07,-0.18 -0.1,-0.27 -0.06,-0.01 -0.13,-0.04 -0.2,-0.09 -6.22,-4.77 -12.18,-9.86 -17.92,-15.2 -20.33,-18.96 -37.86,-40.78 -53.94,-63.4zm65.2 61.43c-1.81,-4.4 -3.64,-8.79 -5.42,-13.2 -3.39,-8.37 -6.39,-16.88 -9.7,-25.27 -0.66,-1.67 -1.34,-3.34 -2.04,-5.01 -5.82,-13.79 -13.35,-27.24 -25.22,-36.65 -1.86,-1.47 -3.95,-3.09 -6.19,-4.29 4.72,5.85 9.09,11.97 13.18,18.28 4.33,6.7 8.3,13.62 12.11,20.64 3.47,6.4 6.81,12.88 10.18,19.33 4.5,8.65 8.91,17.36 13.1,26.17zm-24.91 -46.09c-0.39,-0.73 -0.79,-1.46 -1.18,-2.19 -7.13,-13.08 -15.27,-25.7 -24.78,-37.19 0,0 0,0 -0.01,0 -1.06,-0.39 -2.15,-0.66 -3.26,-0.75 -4.53,-0.38 -8.04,2.91 -9.7,6.85 -1.43,3.43 -1.87,7.3 -1.87,11.04 0,0.03 0,0.06 0,0.09 0,0.57 0.01,1.13 0.03,1.68 0.03,0.93 0.09,1.85 0.18,2.77 4.49,6.36 9.09,12.64 13.83,18.81 16.8,21.89 35.42,42.85 57.24,59.89 -3.22,-7.38 -6.64,-14.66 -10.19,-21.89 -6.47,-13.17 -13.28,-26.21 -20.29,-39.11zm55.46 8.16c-2.65,14.27 -3.99,28.77 -3.99,43.28 0,10.62 0.72,21.26 2.16,31.78 0.05,-0.51 0.11,-1.01 0.17,-1.53 2.44,-20.44 14.07,-38.27 20.68,-57.45 2.27,-6.58 4.22,-13.36 5.68,-20.22 0.82,-3.86 1.48,-7.74 1.94,-11.64 0.29,-2.42 0.47,-4.9 0.47,-7.38 0,-7.58 -1.64,-15.16 -6.63,-21.13 -1.61,-1.91 -3.51,-3.56 -5.64,-4.81 -3.74,8.74 -6.93,17.71 -9.57,26.84 -2.12,7.33 -3.87,14.77 -5.27,22.26zm-2.97 77.95c-3.18,-8.3 -5.81,-16.81 -7.86,-25.46 -3.65,-15.4 -5.48,-31.2 -5.48,-47.01 0,-1.77 0.03,-3.54 0.07,-5.31 0.41,-15.73 2.63,-31.41 6.68,-46.63 -5.4,4.02 -9.25,9.92 -11.63,16.33 -3.34,9 -4.37,18.85 -4.66,28.39 -0.01,0.33 -0.02,0.66 -0.03,1 -0.02,1.02 -0.03,2.05 -0.03,3.07 0,8.47 0.8,16.94 2.38,25.26 3.41,17.96 10.39,35.17 20.56,50.36zm-12.16 -77.72c-0.04,1.7 -0.06,3.41 -0.06,5.11 0,23.57 4.1,47.11 12.17,69.27 -1.06,-7.9 -1.73,-15.86 -1.99,-23.83 -0.08,-2.49 -0.12,-4.98 -0.12,-7.47 0,-14.49 1.34,-28.98 3.97,-43.22 0.04,-0.24 0.09,-0.48 0.13,-0.71 3.16,-16.83 8.16,-33.28 14.88,-49.02 -1.31,-0.67 -2.69,-1.18 -4.15,-1.52 -4.25,-0.99 -8.73,-0.42 -12.78,1.13 -1.98,0.75 -3.81,1.72 -5.5,2.87 0.14,0.09 0.24,0.24 0.24,0.43 0,0.05 -0.01,0.11 -0.02,0.16 -2.46,9.16 -4.27,18.48 -5.4,27.9 -0.75,6.28 -1.21,12.58 -1.37,18.9zm-62.05 55.36c-5.17,2.29 -7.72,7.62 -7.72,13.12 0,1.21 0.13,2.44 0.37,3.64 0.64,3.07 2.03,5.83 3.87,8.29 0.04,0.01 0.09,0.03 0.14,0.05 6.75,3.37 13.74,6.23 20.89,8.62 23.16,7.72 47.53,10.65 71.79,12.58 -5.53,-1.39 -11,-2.99 -16.41,-4.8 -26.75,-8.99 -51.43,-23.26 -72.93,-41.5zm-1.79 27.12c2.41,2.66 5.29,4.95 8.18,6.91 13.2,8.96 28.69,14.64 44.45,16.9 14.88,2.13 30.14,1.11 44.58,-3.03 -7.27,-0.54 -14.53,-1.14 -21.77,-1.9 -25.86,-2.72 -51.85,-7.57 -75.44,-18.88zm98.86 20.29c0.08,-0.03 0.16,-0.05 0.24,-0.07 -0.1,-0.08 -0.2,-0.15 -0.31,-0.22 0.05,0.09 0.07,0.18 0.07,0.28 0,0 0,0 0,0.01zm-0.43 -0.54c-1.19,-0.86 -2.39,-1.71 -3.6,-2.56 -14.08,-9.98 -28.3,-19.84 -43.36,-28.33 -7.46,-4.2 -15.13,-8.07 -23.03,-11.4 -4.08,-1.72 -8.24,-3.42 -12.49,-4.65 -4.11,-1.17 -8.52,-1.75 -12.68,-0.48 -0.09,0.03 -0.19,0.06 -0.28,0.09 5.93,5.01 12.08,9.73 18.49,14.12 23.25,15.94 49.42,27.17 76.95,33.21zm35.53 -101.74c-2.63,8.77 -5.17,17.58 -7.37,26.48 -4.25,17.17 -7.24,35.06 -7.24,52.82 0,14.44 1.98,28.8 6.87,42.63 0.33,-1.66 0.65,-3.32 0.97,-4.98 3.66,-18.85 7.18,-37.73 9.5,-56.79 1.14,-9.44 1.99,-18.92 2.41,-28.42 0.18,-4.13 0.29,-8.28 0.29,-12.42 0,-0.56 0,-1.11 0,-1.67 -0.04,-4.58 -0.3,-9.37 -2.4,-13.54 -0.78,-1.55 -1.8,-2.96 -3.03,-4.11zm-11.78 115.27c-2.38,-6.13 -4.4,-12.4 -6.04,-18.77 -3.62,-14.04 -5.43,-28.53 -5.43,-43.03 0,-2.3 0.04,-4.6 0.13,-6.9 0.66,-16.49 3.69,-32.87 9.08,-48.47 -1.08,0.46 -2.11,1.02 -3.07,1.68 -6.92,4.76 -9.95,13.76 -12.02,21.5 -2.12,7.97 -3.08,16.19 -3.08,24.43 0,9.75 1.35,19.53 3.73,28.93 3.62,14.27 9.83,27.65 16.7,40.63zm-0.89 -117.69c-3.09,8.79 -5.44,17.83 -7.01,27.01 -1.64,9.52 -2.45,19.19 -2.45,28.85 0,7.04 0.43,14.07 1.28,21.04 1.54,12.54 4.47,24.9 8.76,36.77 -1.17,-4.82 -2.05,-9.71 -2.65,-14.64 -0.71,-5.84 -1.03,-11.67 -1.03,-17.5 0,-27.15 7.05,-54.01 14.84,-79.91 -1.41,-1.09 -3.05,-1.86 -4.89,-2.19 -2.29,-0.4 -4.64,-0.15 -6.85,0.57zm-28.81 136l-5.88 0c-19.13,-4.02 -37.84,-10.15 -56.38,-16.26 -0.46,0.11 -0.91,0.22 -1.35,0.36 -3.69,1.09 -7.35,3.58 -8.36,7.5 -0.19,0.76 -0.28,1.53 -0.28,2.29 0,1.61 0.4,3.19 1.08,4.66 1.18,0.48 2.36,0.97 3.54,1.45l-2.94 0 -1.15 0c-0.1,-0.19 -0.2,-0.39 -0.31,-0.6 -0.25,-0.11 -0.36,-0.34 -0.36,-0.56 0,-0.07 0.01,-0.13 0.03,-0.19 -0.14,-0.33 -0.27,-0.68 -0.38,-1.03 -0.4,-1.21 -0.61,-2.45 -0.61,-3.68 0,-2.24 0.68,-4.43 2.12,-6.26 2.09,-2.65 5.18,-4.17 8.4,-4.95 0.11,-0.17 0.31,-0.26 0.57,-0.18 0.02,0.01 0.05,0.02 0.07,0.03 0.15,-0.03 0.3,-0.06 0.45,-0.09 8.89,-1.71 18.43,-0.61 27.27,0.95 9.36,1.66 18.55,4.17 27.83,6.25 16.06,3.61 32.24,6.67 48.29,10.31l-5.16 0c-15.54,-3.41 -31.17,-6.39 -46.67,-9.96 -8.81,-2.03 -17.57,-4.38 -26.5,-5.84 -4.58,-0.74 -9.2,-1.24 -13.83,-1.33 -3.11,-0.06 -6.35,-0.04 -9.48,0.43 7.06,2.32 14.12,4.64 21.23,6.82 12.7,3.92 25.65,7.44 38.76,9.88zm-14.69 -54.85l0 0z"/>
   <path fill="#F5B2B6" d="M188.86 457.19c0,0.09 -0.02,0.19 -0.07,0.27l0 0.01 0 0 0 0 0 0c-0.08,0.18 -0.24,0.33 -0.49,0.34 -0.21,0.01 -0.41,0.02 -0.62,0.04 -0.04,0 -0.09,0.01 -0.15,0 0,0 -0.01,0 -0.01,0 -13.64,0.75 -27.35,-0.2 -40.77,-2.77 -24.27,-4.64 -47.47,-14.51 -67.91,-28.37 -20.61,-13.99 -38.72,-35.39 -64.73,-38.76 0.21,0.23 0.41,0.46 0.62,0.68 13.15,14.57 23.91,31.09 34.16,47.76 10.09,16.4 19.78,33.08 31.09,48.68 11.12,15.34 23.87,29.67 39.34,40.73 0.17,0.12 0.24,0.28 0.25,0.45 0,0.03 0.01,0.06 0.01,0.1 0,0.03 -0.01,0.07 -0.01,0.11l0 0 0 0.01 -0.01 0 0 0 0 0 0 0.01 0 0 0 0 0 0 0 0.01 0 0 0 0 0 0 0 0.01 0 0 0 0 0 0 0 0.01 0 0 0 0c-0.05,0.17 -0.17,0.31 -0.36,0.34 -0.1,0.04 -0.23,0.04 -0.35,-0.02 -2.14,-0.24 -4.26,-0.53 -6.38,-0.87 -18.45,-2.93 -36.38,-9.5 -52.5,-18.92 -2.09,-1.23 -4.14,-2.5 -6.16,-3.83 3.01,5.2 5.8,10.52 8.36,15.95 9.35,19.85 16.19,41.82 16.19,63.94 0,2.09 -0.06,4.18 -0.19,6.26 -0.03,0.55 -0.75,0.78 -1.05,0.29 -1.21,-1.98 -2.49,-3.92 -3.84,-5.8 -11.03,-15.34 -26.28,-26.95 -41.62,-37.68 -10.58,-7.4 -21.44,-14.5 -31.66,-22.41l0 -1.43c12.62,9.84 26.21,18.39 39.14,27.79 14.01,10.19 27.46,21.58 37.12,36.08 -0.4,-2.16 -0.91,-4.29 -1.52,-6.39 -5.41,-18.34 -18.59,-33.21 -32.22,-46.06 -14.52,-13.69 -30.46,-26.23 -41.98,-42.73 -0.18,-0.26 -0.36,-0.53 -0.54,-0.79l0 -2.05c1.88,2.85 3.9,5.63 6.06,8.32 12.71,15.75 29.05,27.93 43.22,42.26 12.78,12.93 24.34,28.27 27.93,46.45 0.01,-0.64 0.02,-1.28 0.02,-1.92 0,-4.62 -0.31,-9.24 -0.88,-13.84 -2.96,-23.95 -12.46,-47.03 -24.69,-67.69 -12.84,-8.81 -24.01,-19.68 -33.69,-31.98 -6.54,-8.32 -12.42,-17.1 -17.97,-26.1l0 -2.14c6.62,10.84 13.69,21.41 21.8,31.2 12.12,14.64 26.55,26.86 43.3,35.89 11.73,6.32 24.33,11.17 37.32,14.21 -13.44,-4.75 -25.72,-12.76 -36.55,-21.94 -14.37,-12.19 -26.45,-26.77 -37.12,-42.24 -10.15,-14.74 -19.15,-30.21 -28.75,-45.3l0 -2.09c10.66,16.65 20.52,33.83 31.93,49.98 10.86,15.37 23.3,29.75 38.01,41.55 13.63,10.93 29.54,19.8 46.94,22.6 -1.16,-0.85 -2.3,-1.72 -3.43,-2.61 -14.59,-11.52 -26.62,-25.92 -37.25,-41.09 -11.06,-15.77 -20.65,-32.49 -30.81,-48.84 -10.41,-16.73 -21.5,-33.19 -35.19,-47.44 -3.27,-3.4 -6.67,-6.66 -10.2,-9.78l0 -1.48c4.52,3.95 8.85,8.13 12.94,12.53 13.72,1.48 26.44,8.38 37.33,16.53 10.62,7.95 20.45,16.84 31.57,24.14 10.48,6.88 21.66,12.72 33.32,17.34 19.87,7.86 41.1,12.14 62.44,12.27 -18.14,-2.42 -35.48,-9.05 -51.6,-17.58 -17.6,-9.3 -33.87,-20.89 -49.61,-33.03 -16.31,-12.58 -32.17,-25.78 -49,-37.67 -3.33,-2.36 -6.71,-4.66 -10.13,-6.87 0.45,-0.16 0.89,-0.32 1.34,-0.47 -0.24,-0.16 -0.48,-0.32 -0.73,-0.47 -0.45,0.15 -0.89,0.31 -1.33,0.47 0.24,0.16 0.48,0.31 0.72,0.47 -6.07,2.15 -11.87,4.95 -17.26,8.46l0 -0.72c5.23,-3.37 10.78,-6.09 16.54,-8.21 -5.39,-3.46 -10.89,-6.71 -16.54,-9.68l0 -1.29c6.12,3.2 12.06,6.73 17.87,10.5 14.82,-5.19 30.97,-6.48 46.83,-4.71 -9.93,-7.25 -20.64,-13.39 -32.1,-18.2 -9.23,-3.88 -18.82,-6.92 -28.59,-9.08 -1.34,-0.3 -2.67,-0.58 -4.01,-0.84l0 -1.14c1.77,0.35 3.54,0.72 5.3,1.12 11.34,2.59 22.42,6.34 32.98,11.22 9.09,4.19 17.78,9.22 25.92,15.05 0.99,0.71 1.98,1.43 2.96,2.17 0.35,0.27 0.7,0.54 1.05,0.81 7.17,5.51 13.82,11.65 20.14,18.12 15.71,16.1 29.39,34.11 45.72,49.61 15.33,14.53 33.32,27.15 54.28,31.67 0.15,0 0.26,0.05 0.34,0.13 0.11,0.1 0.17,0.24 0.17,0.38zm-6.37 -0.81c-0.58,-0.17 -1.16,-0.34 -1.74,-0.52 -19.88,-6.18 -36.78,-19.32 -51.35,-33.82 -15.98,-15.92 -29.66,-33.99 -45.77,-49.78 -5.63,-5.52 -11.58,-10.63 -17.85,-15.29 -15.91,-1.82 -32.31,-0.63 -47.18,4.38 4.68,3.05 9.28,6.25 13.81,9.55 16.67,12.12 32.49,25.36 48.9,37.82 15.76,11.97 32.16,23.26 49.91,32.09 16.07,8 33.35,13.91 51.27,15.57zm-105.32 130.43c-0.13,0.09 -0.29,0.13 -0.43,0.12 0.13,0.21 0.27,0.41 0.4,0.62 0.01,-0.25 0.02,-0.49 0.03,-0.74zm41.87 -61.09l0.02 0 -0.01 0 -0.01 0 0 0c-0.72,-0.09 -1.45,-0.2 -2.16,-0.32l2.16 0.32zm0.52 0.52l0 0 0.01 0.01c-0.04,-0.25 -0.21,-0.48 -0.51,-0.53l0.01 0.01 0 0 0.02 0 0 0 0.01 0 0 0 0.02 0.01 0 0 0.01 0 0 0 0.02 0 0 0.01 0.01 0 0 0 0.02 0 0 0.01 0.01 0 0 0 0.02 0.01 0 0 0.01 0 0 0 0.01 0.01 0 0 0.02 0 0 0.01 0.01 0 0 0 0.01 0.01 0 0 0.01 0.01 0.01 0 0 0 0.01 0.01 0.01 0 0 0 0.01 0.01 0 0 0.01 0.01 0.01 0.01 0 0 0.01 0.01 0 0 0.01 0.01 0 0 0.01 0 0 0.01 0.01 0 0 0.01 0.01 0 0 0.01 0.01 0 0 0.01 0.01 0 0 0.01 0.01 0 0.02 0.03 0 0 0 0.01 0.01 0 0 0.01 0.01 0 0 0.01 0 0 0.01 0.01 0 0.01 0 0 0.01 0.01 0 0 0 0.01 0.01 0 0 0.01 0 0.01 0.01 0 0 0.01 0 0.01 0.01 0 0 0.01 0 0 0.01 0.01 0 0 0 0.01 0 0.01 0.01 0.01 0 0 0 0.01 0 0 0.01 0.01 0 0.01 0 0.01 0 0 0 0.01 0 0 0.01 0.01 0 0 0 0.01 0 0.01 0.01 0.01 0 0 0 0.01 0 0 0 0.01 0 0.01 0 0.01 0 0zm0 0.27c0.01,-0.05 0.01,-0.1 0.01,-0.15l0 -0.02 0 -0.01 0 0 0 -0.01 0 0 0 -0.02 0 0 0 -0.01 0 0 0 -0.01 0 0 0 -0.01 0 -0.01 0 -0.01 -0.01 0 0 0.26zm-0.52 0.34l0 0 -0.01 0 0 0 0 0 -0.01 0 0 0 0 0 0 0 -0.01 0 0 -0.01 0 0 -0.01 0 0 0 0 0 -0.01 0 0 0 0 0 -0.01 0 0 0 0 0 -0.01 0 0 0 0 0 -0.01 0 -0.11 -0.01 0.11 0.01 0.08 0.01 0 0zm69.75 -69.38c0.04,-0.08 0.06,-0.17 0.06,-0.26 0,-0.15 -0.06,-0.3 -0.16,-0.4l0.1 0.66z"/>
   <path fill="#F5B2B6" d="M1033.64 107.02l0 0zm-8.56 14.95c0.49,1.21 1.23,2.32 2.18,3.23 0.5,0.47 1.04,0.9 1.64,1.26 3.29,1.96 7.6,1.67 10.58,-0.76 1.26,-1.04 2.19,-2.37 2.75,-3.83 0.15,-0.37 0.26,-0.74 0.36,-1.12 0.18,-0.74 0.28,-1.5 0.28,-2.27 0,-1.04 -0.18,-2.1 -0.54,-3.11 -1.31,-3.66 -4.85,-6.03 -8.69,-6.08 -2.44,0.03 -4.7,1 -6.38,2.6 -1.36,1.29 -2.33,2.99 -2.7,4.95 -0.11,0.55 -0.16,1.11 -0.16,1.66 0,0.8 0.11,1.59 0.31,2.35 0.1,0.38 0.22,0.75 0.37,1.12zm20.05 -3.52c0,0.81 -0.08,1.61 -0.25,2.4 -0.08,0.38 -0.17,0.75 -0.29,1.12 -0.83,2.64 -2.58,4.97 -5.06,6.45 -3.81,2.27 -8.62,2.06 -12.27,-0.34 -0.33,-0.21 -0.64,-0.44 -0.95,-0.7 -0.18,-0.14 -0.35,-0.29 -0.51,-0.44l0 -0.1 -0.11 0 -0.12 -0.12 0 -0.11 -0.11 0 -0.12 -0.12 0 -0.1 -0.1 0 -0.12 -0.14 0 -0.09 -0.09 0 -0.14 -0.17 0 -0.06 -0.05 0 -0.18 -0.21 0 -0.02 -0.01 0c-0.33,-0.41 -0.63,-0.85 -0.9,-1.31l0 -0.05 -0.03 0c-0.06,-0.12 -0.13,-0.24 -0.19,-0.36l0 -0.09 -0.06 0c-0.06,-0.12 -0.12,-0.24 -0.17,-0.35l0 -0.11 -0.05 0c-0.06,-0.13 -0.12,-0.26 -0.18,-0.4l0 -0.05 -0.02 0c-0.12,-0.28 -0.22,-0.57 -0.32,-0.85 -0.12,-0.37 -0.22,-0.74 -0.3,-1.12l-0.04 -0.17 0 -0.13 -0.03 0c-0.1,-0.52 -0.17,-1.05 -0.2,-1.58l0 -0.47 -0.01 0 -0.01 -0.12 0 -0.14 0.01 -0.19 0.01 0 0 -0.4c0.03,-0.55 0.11,-1.1 0.22,-1.64l0.01 0 0 -0.05c0.06,-0.29 0.13,-0.58 0.22,-0.86l0.01 0 0 -0.03c0.06,-0.22 0.14,-0.44 0.22,-0.65l0 0 0 -0.02 0.02 -0.05c0.76,-1.99 2.02,-3.67 3.6,-4.93l0.02 0 0 -0.02c0.25,-0.2 0.51,-0.39 0.78,-0.57 1.83,-1.22 4,-1.92 6.3,-1.97 0.02,0 0.05,0 0.08,0 0.03,0 0.06,0 0.09,0 5.39,0.12 10.24,3.97 11.21,9.36 0.13,0.69 0.19,1.38 0.19,2.07zm-200.68 477.57c0,3.2 1.72,6.3 4.51,7.96 3.29,1.96 7.6,1.68 10.57,-0.76 2.18,-1.79 3.39,-4.47 3.39,-7.21 0,-1.05 -0.18,-2.1 -0.54,-3.12 -1.31,-3.65 -4.84,-6.02 -8.68,-6.07 -4.42,0.06 -8.25,3.18 -9.09,7.55 -0.11,0.55 -0.16,1.1 -0.16,1.65zm9.25 -11.48l0 0zm11.48 11.43c0,4.02 -2.06,7.86 -5.6,9.97 -4.15,2.48 -9.49,2.01 -13.22,-1.03 -2.67,-2.18 -4.16,-5.54 -4.16,-8.92 0,-1.34 0.23,-2.68 0.72,-3.96 1.7,-4.46 5.94,-7.38 10.69,-7.48 0.03,-0.01 0.05,-0.01 0.09,-0.01 0.02,0 0.05,0 0.08,0.01 5.39,0.11 10.25,3.96 11.22,9.35 0.12,0.69 0.18,1.38 0.18,2.07zm-461.59 -234.17l0 0zm-8.98 9.35c-0.04,0.16 -0.07,0.31 -0.1,0.48 -0.11,0.55 -0.16,1.1 -0.16,1.66 0,3.2 1.72,6.29 4.5,7.95 1.38,0.82 2.93,1.25 4.48,1.29 1.73,0.05 3.46,-0.38 4.97,-1.26 0.17,-0.1 0.35,-0.21 0.51,-0.33 0.21,-0.14 0.42,-0.3 0.62,-0.46 2.18,-1.79 3.39,-4.47 3.39,-7.21 0,-1.05 -0.18,-2.1 -0.54,-3.12 -1.31,-3.65 -4.85,-6.02 -8.69,-6.07 -2.55,0.03 -4.9,1.09 -6.59,2.81 -1.01,1.01 -1.78,2.26 -2.23,3.68 -0.06,0.19 -0.11,0.38 -0.16,0.58zm20.47 2.08c0,3.51 -1.57,6.88 -4.32,9.08 -0.16,0.13 -0.31,0.25 -0.47,0.36 -0.26,0.19 -0.53,0.37 -0.81,0.53 -1.6,0.96 -3.38,1.48 -5.18,1.58 -2.86,0.16 -5.75,-0.74 -8.04,-2.61 -2.67,-2.18 -4.17,-5.54 -4.17,-8.92 0,-1.21 0.2,-2.43 0.59,-3.59 0.04,-0.12 0.09,-0.25 0.13,-0.37 0.03,-0.06 0.05,-0.12 0.07,-0.18 0.72,-1.78 1.84,-3.31 3.24,-4.51 2.02,-1.72 4.62,-2.73 7.39,-2.79 0.03,-0.01 0.05,-0.01 0.08,-0.01 0.03,0 0.06,0 0.09,0.01 5.39,0.11 10.24,3.97 11.21,9.35 0.13,0.69 0.19,1.39 0.19,2.07zm284.43 -25.31c0,3.2 1.72,6.29 4.51,7.95 3.28,1.97 7.6,1.68 10.57,-0.76 2.19,-1.79 3.39,-4.47 3.39,-7.21 0,-1.04 -0.17,-2.1 -0.54,-3.11 -1.31,-3.66 -4.84,-6.03 -8.68,-6.08 -4.42,0.06 -8.25,3.18 -9.09,7.55 -0.1,0.55 -0.16,1.11 -0.16,1.66zm9.25 -11.48l0 0zm11.48 11.43c0,4.01 -2.06,7.85 -5.6,9.97 -4.15,2.48 -9.49,2 -13.22,-1.04 -2.67,-2.18 -4.16,-5.53 -4.16,-8.92 0,-1.34 0.23,-2.68 0.72,-3.95 1.7,-4.46 5.94,-7.39 10.69,-7.49 0.03,0 0.06,0 0.09,0 0.03,0 0.05,0 0.08,0 5.39,0.11 10.25,3.97 11.22,9.35 0.12,0.69 0.18,1.39 0.18,2.08zm-487.52 -127.91l0.04 -0.01 0.01 0 0.01 0 0 0 0 0 -0.01 0 -0.01 0 -0.04 0.01zm0.68 0l0.02 0 0 0 0.01 0 0.01 0 0 0 0 0 0.01 0 -0.01 0 0 0 0 0 -0.01 0 -0.01 0 0 0 -0.02 0zm-0.35 -0.02l0 0zm0.58 4.73l0.35 -0.12c0.04,-0.02 0.12,-0.05 0.14,-0.06l0.17 -0.09 0.22 -0.15 0.39 -0.38 0.03 -0.02 0.13 -0.19 0.22 -0.41 -0.01 0.01 0.09 -0.26 0.06 -0.28c0.01,-0.02 0.01,-0.03 0.01,-0.04l0.01 -0.49 -0.01 -0.15c0,-0.03 -0.01,-0.09 -0.02,-0.12l-0.13 -0.46 -0.04 -0.13 0 0.02 -0.09 -0.17 -0.21 -0.32c-0.03,-0.03 -0.09,-0.1 -0.1,-0.12l-0.13 -0.13 -0.17 -0.15c0,-0.01 0,-0.01 0,-0.01 -0.01,0 -0.02,-0.01 -0.02,-0.01l-0.48 -0.29 0.02 0 -0.27 -0.09 -0.44 -0.11c0,0 0,0 0,0l-0.3 -0.01 -0.35 0.02c-0.01,0.01 -0.02,0.01 -0.03,0.01l-0.54 0.15c-0.02,0 -0.03,0.01 -0.03,0.01 -0.02,0 -0.03,0.01 -0.05,0.02l-0.24 0.14 -0.23 0.15c-0.01,0 -0.02,0.01 -0.03,0.01 -0.01,0.02 -0.02,0.02 -0.03,0.04l-0.32 0.32 0 -0.01 -0.11 0.15 -0.1 0.15 -0.15 0.29c0,0 -0.01,0 -0.01,0.01 0,0 0,0.01 0,0.02l-0.16 0.55c0,0.01 0,0.03 -0.01,0.04 0,0.01 0,0.02 0,0.03l-0.01 0.25 0.01 0.25 0 0.14 0.03 0.13 0.05 0.19 0.01 0.04 0.08 0.22 0.19 0.35 0.07 0.12 0.08 0.11 0.09 0.1 0.33 0.32 0.03 0.01 0.19 0.13 0.24 0.13c0.02,0.01 0.03,0.02 0.04,0.02 0.01,0 0.02,0.01 0.04,0.01l0.45 0.14 0.11 0.02 0.01 0 0.01 0 0.01 0 0.01 0 0.01 0.01 0.01 0 0.02 0 -0.02 0 -0.01 0 -0.01 -0.01 -0.01 0 -0.01 0 -0.01 0 -0.01 0 -0.03 -0.01c0,-0.01 0.16,0.02 0.19,0.02l0.18 0 0.27 0c0.03,0 0.06,0 0.08,0 0.01,-0.01 0.02,-0.01 0.04,-0.01l0.19 -0.05 0.02 0zm4.07 -2.38c0,1.45 -0.63,2.83 -1.78,3.73 -0.1,0.08 -0.2,0.15 -0.3,0.22 -0.06,0.04 -0.12,0.08 -0.19,0.12 -1.72,1.03 -3.88,0.78 -5.41,-0.47 -1.05,-0.86 -1.64,-2.22 -1.64,-3.58 0,-0.04 0,-0.08 0,-0.12 0,-0.15 0.01,-0.29 0.03,-0.43 0.04,-0.34 0.12,-0.67 0.24,-0.99 0.69,-1.82 2.38,-3.04 4.33,-3.1 0.02,0 0.04,0 0.07,0 0.02,0 0.05,0 0.08,0 2.12,0.07 4.11,1.6 4.49,3.74 0.05,0.3 0.08,0.59 0.08,0.88zm606.46 152.17c0.03,0 0.04,0 0.04,0 0,0 -0.02,0 -0.04,0zm0.31 -0.01l0 0zm2.38 2.74c0,0 0,0 0.01,0l0.01 -0.49 -0.01 -0.14c-0.01,-0.03 -0.02,-0.1 -0.02,-0.14l-0.13 -0.45 -0.05 -0.13 0 0.01 -0.08 -0.16 -0.21 -0.32c-0.03,-0.04 -0.09,-0.1 -0.1,-0.12l-0.13 -0.13 -0.17 -0.16c-0.01,0 -0.01,0 -0.01,0 -0.01,-0.01 -0.01,-0.01 -0.02,-0.02l-0.47 -0.28 0.01 0 -0.26 -0.09 -0.44 -0.11c-0.01,0 -0.01,0 -0.01,0l-0.3 -0.01 -0.34 0.02c-0.01,0 -0.02,0 -0.03,0l-0.55 0.16c-0.01,0 -0.02,0 -0.03,0.01 -0.01,0 -0.02,0.01 -0.04,0.02l-0.24 0.13 -0.24 0.15c0,0.01 -0.01,0.02 -0.02,0.02 -0.01,0.01 -0.02,0.02 -0.03,0.03l-0.33 0.33 0 -0.02 -0.1 0.15 -0.1 0.16 -0.16 0.29c0,0 0,0 0,0.01 0,0 -0.01,0.01 -0.01,0.02l-0.15 0.54c0,0.02 -0.01,0.03 -0.01,0.05 0,0.01 0,0.02 0,0.03l-0.01 0.25 0 0.25 0.01 0.13 0.03 0.14 0.05 0.18 0.08 0.27 0.27 0.47 0.07 0.11 0.09 0.09 0.34 0.32 0.02 0.02 0.2 0.12 0.24 0.13c0.02,0.01 0.03,0.02 0.04,0.03 0.01,0 0.02,0 0.03,0.01l0.46 0.13 0.13 0.03 0.01 0 0.01 0 0.02 0.01 0.01 0 -0.01 0 -0.02 -0.01 -0.01 0 -0.01 0c-0.04,-0.01 -0.06,-0.01 -0.06,-0.02 0,0 0.16,0.03 0.2,0.03l0.44 0c0.04,-0.01 0.07,-0.01 0.08,-0.01 0.02,0 0.03,-0.01 0.05,-0.01l0.18 -0.04 0.37 -0.12c0.05,-0.02 0.13,-0.06 0.15,-0.07l0.16 -0.09 0.23 -0.15 0.39 -0.37 0.02 -0.03 0.13 -0.19 0.22 -0.4 0.08 -0.26 0.07 -0.28c0,-0.01 0,-0.02 0,-0.03zm2.27 -0.39c0,1.64 -0.8,3.19 -2.26,4.06 -1.72,1.03 -3.89,0.78 -5.41,-0.47 -1.05,-0.85 -1.65,-2.22 -1.65,-3.57 0,-0.52 0.09,-1.05 0.28,-1.54 0.2,-0.52 0.47,-0.99 0.81,-1.4 0.39,-0.46 0.86,-0.85 1.39,-1.13 0.64,-0.35 1.36,-0.55 2.13,-0.57 0.02,0 0.04,0 0.06,0 0.03,0 0.06,0 0.08,0 0.74,0.02 1.47,0.22 2.11,0.57 0.54,0.28 1.03,0.67 1.42,1.13 0.48,0.57 0.83,1.26 0.97,2.03 0.05,0.3 0.07,0.59 0.07,0.89zm-160 137.92c0.05,0 0.06,0 0.06,-0.01 0,0 -0.03,0.01 -0.06,0.01l0 0zm0.68 0c0.03,0 0.05,0 0.05,0 0,0 -0.01,0 -0.05,0zm0.66 4.57l0 0 0 0zm0.46 -0.28l0 0zm0.92 -1.57l0.01 -0.48 -0.01 -0.17c-0.01,-0.03 -0.02,-0.08 -0.02,-0.11l-0.13 -0.45 -0.05 -0.14 0 0.02 -0.08 -0.16 -0.21 -0.32c-0.03,-0.04 -0.09,-0.11 -0.1,-0.12l-0.13 -0.14 -0.17 -0.15c-0.01,0 -0.01,-0.01 -0.01,-0.01 -0.01,0 -0.01,-0.01 -0.02,-0.01l-0.48 -0.28 0.02 0 -0.26 -0.1 -0.45 -0.1c0,0 0,0 0,0l-0.3 -0.02 0 0 0 0 -0.35 0.03c-0.01,0 -0.01,0 -0.02,0l-0.55 0.15c-0.01,0.01 -0.02,0.01 -0.03,0.01 -0.01,0.01 -0.02,0.01 -0.04,0.03l-0.24 0.13 -0.24 0.15c0,0 -0.01,0.01 -0.02,0.01 -0.01,0.01 -0.02,0.02 -0.03,0.04l-0.33 0.32 0 -0.01 -0.1 0.15 -0.1 0.16 -0.16 0.28c0,0.01 0,0.01 0,0.01 0,0.01 -0.01,0.01 -0.01,0.02l-0.15 0.55c-0.01,0.01 -0.01,0.03 -0.01,0.04 0,0.01 0,0.02 0,0.04l-0.01 0.24 0 0.25 0.01 0.14 0.03 0.13 0.04 0.19 0.09 0.26 0.27 0.47 0.07 0.11 0.09 0.1 0.33 0.32 0.03 0.01 0.2 0.13 0.24 0.13c0.02,0.01 0.03,0.02 0.04,0.02 0.01,0.01 0.02,0.01 0.03,0.01l0.46 0.14 0.12 0.02c-0.04,-0.01 -0.05,-0.01 -0.05,-0.01 0,0 0.16,0.02 0.2,0.03l0.44 -0.01c0.04,0 0.07,0 0.09,0 0.01,0 0.02,-0.01 0.04,-0.01l0.18 -0.05 0.37 -0.12c0.05,-0.01 0.13,-0.05 0.15,-0.06l0.16 -0.09 0.22 -0.15 0.4 -0.38 0.02 -0.02 0.13 -0.19 0.22 -0.41 -0.01 0.01 0.09 -0.26 0.07 -0.28c0,-0.02 0,-0.03 0.01,-0.04zm1.93 1.4l-0.01 0 0 0.03c-0.32,0.79 -0.85,1.49 -1.56,2.01l-0.03 0 0 0.02c-0.11,0.08 -0.22,0.15 -0.33,0.22 -0.32,0.19 -0.66,0.34 -1,0.44l-0.03 0 0 0.01c-0.82,0.24 -1.69,0.25 -2.5,0.04l0 -0.05 -0.17 0c-0.33,-0.1 -0.66,-0.23 -0.97,-0.41l0 -0.04 -0.08 0c-0.24,-0.14 -0.46,-0.29 -0.67,-0.46 -0.58,-0.47 -1.02,-1.1 -1.29,-1.8l0 -0.01 -0.01 0c-0.22,-0.56 -0.34,-1.16 -0.34,-1.76l0 -0.05c0,-0.23 0.03,-0.47 0.06,-0.69l0.06 0 0 -0.29c0.04,-0.18 0.09,-0.35 0.16,-0.52 0.07,-0.19 0.15,-0.38 0.25,-0.56l0.04 0 0 -0.08c0.48,-0.85 1.19,-1.53 2.04,-1.96l0.01 0 0 0c0.45,-0.23 0.95,-0.38 1.47,-0.45l0.12 0 0 -0.02c0.13,-0.01 0.26,-0.02 0.4,-0.03l0.14 0c0.12,0.01 0.25,0.02 0.37,0.03l0 0.02 0.13 0c0.51,0.07 1,0.22 1.46,0.44l0 0.01 0.02 0c0.99,0.49 1.81,1.31 2.25,2.34l0 0.16 0.06 0c0.09,0.24 0.16,0.48 0.21,0.74 0.05,0.28 0.07,0.57 0.08,0.85l0 0.04c0,0.61 -0.12,1.21 -0.34,1.78z"/>
   <path fill="#F5B2B6" d="M579.18 433.16c-15.85,15.4 -33.61,28.84 -52.8,39.82 -38.09,21.81 -81.92,33.3 -125.86,31.82 -51.42,-1.73 -101.32,-19.34 -145.28,-45.48 -9.12,-5.43 -18.03,-11.23 -26.72,-17.34 -0.03,-0.02 -0.06,-0.05 -0.08,-0.08 -2.93,-2.09 -7.55,-5.39 -9.8,-7.06 -1.71,-1.28 -5.49,-4.17 -7.68,-5.85l-0.06 -0.03c-25.75,-19.95 -49.49,-42.41 -71.95,-65.97 -25.97,-27.23 -51.69,-57.39 -84.28,-76.95 -0.04,0 -0.07,-0.02 -0.11,-0.04 -0.56,-0.32 -6.6,-3.71 -8.81,-4.94 -5.92,-3.07 -12.03,-5.73 -18.33,-7.93 -8.05,-2.81 -16.43,-4.79 -24.88,-5.93 -0.06,0 -0.1,-0.02 -0.14,-0.06 -0.35,-0.27 -0.7,-0.53 -1.06,-0.8 -0.1,-0.08 -0.14,-0.22 -0.09,-0.35 0.05,-0.13 0.18,-0.2 0.31,-0.18 14.61,1.92 29.11,6.41 42.24,13.1l1.19 0.61 0 0 0.01 0 0.01 0.01c0.65,0.34 1.3,0.68 1.95,1.03 0.06,0.03 0.1,0.08 0.13,0.14l7.25 4.08c0.05,0.01 0.09,0.02 0.14,0.05l0.9 0.55 0.08 0.04 0.03 0.02c37.1,22.6 64.91,57.29 95.08,87.87 18.92,19.18 38.84,37.45 60.1,54.01l0.02 0.01 0.08 0.06c1.79,1.38 6.1,4.68 7.82,5.96 2.91,2.17 8.99,6.52 11.95,8.63l0.02 0.01 0 0 0.01 0.01c12.71,8.86 25.89,17.05 39.53,24.4 46.07,24.77 98.45,39.81 151.05,37.05 43.22,-2.26 85.07,-17.41 120.84,-41.56 12.81,-8.64 24.86,-18.42 35.97,-29.16 0.06,-0.06 0.13,-0.08 0.21,-0.08l0.8 0c0.13,0 0.23,0.07 0.28,0.18 0.05,0.12 0.02,0.24 -0.07,0.33zm80.58 -195.86c0,6.47 -0.21,12.93 -0.63,19.38 -1.44,22.39 -5.45,44.63 -12.1,66.06 -0.04,0.13 -0.15,0.21 -0.29,0.21l-0.54 0c-0.09,0 -0.18,-0.04 -0.24,-0.12 -0.06,-0.08 -0.07,-0.17 -0.04,-0.27 8.54,-27.54 12.67,-56.44 12.67,-85.26 0,-2.92 -0.04,-5.84 -0.13,-8.76 -0.66,-22.75 -3.84,-45.41 -9.42,-67.47l-0.02 -0.12 0 0c-3.05,-11.79 -7.17,-24.93 -11.54,-36.24 -3.16,-8.17 -9.2,-21.28 -13.34,-29.76 -1.08,-2.1 -2.18,-4.2 -3.31,-6.28 -1.1,-2.03 -4.24,-7.51 -6.05,-10.65 -5.82,-9.76 -14.62,-22.54 -21.67,-32.06l-0.04 -0.04c-5.61,-7.34 -14.2,-17.42 -20.77,-24.72 -0.03,-0.02 -0.06,-0.04 -0.08,-0.07 -1.81,-1.95 -5.31,-5.61 -7.45,-7.82l-0.04 -0.04 -0.05 -0.05c-1.91,-1.93 -5.27,-5.24 -7.23,-7.15l-0.02 -0.03 -0.03 -0.02 -0.05 -0.05 -0.02 -0.03c-0.83,-0.8 -1.67,-1.59 -2.51,-2.38 -0.09,-0.09 -0.12,-0.21 -0.07,-0.33 0.05,-0.12 0.15,-0.19 0.28,-0.19l0.82 0c0.08,0 0.15,0.03 0.21,0.08 0.7,0.67 1.41,1.34 2.11,2.01l0.01 0.01 0.01 0.01 0.04 0.04 0.05 0.05 0 0 0.73 0.71c0.09,0.08 0.17,0.16 0.25,0.23 0.02,0.03 0.04,0.05 0.05,0.07 1.85,1.82 4.41,4.35 6.16,6.11l0.04 0.03 0.13 0.14 0.07 0.08 0.62 0.62c0.02,0.02 0.03,0.04 0.05,0.06 1.69,1.76 4.03,4.21 5.86,6.16l0.02 0.01c0.05,0.01 0.08,0.04 0.12,0.08 6.03,6.66 14.33,16.35 20.34,24.03l0.02 0.01c0.05,0.02 0.08,0.05 0.11,0.09l1.3 1.74 0.51 0.67c0.02,0.03 0.03,0.06 0.04,0.09 6.74,9.17 15.05,21.27 20.87,30.94l0.02 0.02 0.17 0.3c0.41,0.68 0.8,1.34 1.18,1.98 0.03,0.05 0.04,0.11 0.04,0.16 2.47,4.38 5.93,10.59 8.22,14.96l0.05 0.05 0.21 0.45 0.02 0.04c0.32,0.61 0.62,1.18 0.88,1.7 0.02,0.05 0.03,0.11 0.02,0.16 2.68,5.55 6.81,14.26 8.69,18.73 1.18,2.79 2.32,5.6 3.41,8.43 4.42,11.42 8.58,24.68 11.66,36.59l0.02 0.04 0.1 0.42 0.04 0.15 0 0.01 0 0.01c6.23,24.82 9.46,50.4 9.46,75.99zm-13.09 86.58c-6.93,22 -16.66,43.1 -29.16,62.51 -10.65,16.53 -23.15,31.85 -37.17,45.63 -0.05,0.06 -0.13,0.09 -0.21,0.09l-0.8 0c-0.12,0 -0.23,-0.07 -0.27,-0.19 -0.05,-0.11 -0.03,-0.24 0.06,-0.33 19.44,-19.01 35.98,-41.01 48.65,-65.08 7.22,-13.69 13.14,-28.05 17.79,-42.81 0.04,-0.13 0.16,-0.21 0.29,-0.21l0.54 0c0.1,0 0.18,0.04 0.24,0.12 0.06,0.08 0.07,0.17 0.04,0.27z"/>
  </g>
 </g>
</svg>
