<?xml version="1.0" encoding="UTF-8"?>
<!DOCTYPE svg PUBLIC "-//W3C//DTD SVG 1.1//EN" "http://www.w3.org/Graphics/SVG/1.1/DTD/svg11.dtd">
<!-- Creator: CorelDRAW 2019 (64 Bit) -->
<svg xmlns="http://www.w3.org/2000/svg" xml:space="preserve" width="709px" height="1300px" version="1.1" shape-rendering="geometricPrecision" text-rendering="geometricPrecision" image-rendering="optimizeQuality" fill-rule="evenodd" clip-rule="evenodd"
viewBox="0 0 707.32 1296.68"
 xmlns:xlink="http://www.w3.org/1999/xlink">
 <g id="Camada_x0020_1">
  <metadata id="CorelCorpID_0Corel-Layer"/>
  <g id="_2532016151056">
   <path fill="#F5B2B6" d="M504.76 1292.39l-1.14 0c-1,-4.25 -1.68,-8.57 -2.07,-12.93 -1.79,-19.58 1.17,-39.43 2.1,-59.12 0.04,-0.78 0.07,-1.57 0.1,-2.35 0.19,-5 0.23,-9.98 0.02,-14.95 -0.04,-0.73 -0.07,-1.46 -0.12,-2.18 -0.04,-0.78 -0.1,-1.57 -0.16,-2.35 -0.06,-0.85 -0.14,-1.71 -0.22,-2.56 -0.67,-6.7 -1.91,-13.35 -3.99,-19.95 -9.32,-29.5 -33.92,-56.79 -28.69,-89.45 -1.54,3.88 -2.79,7.86 -3.8,11.91 -4.8,19.34 -4.37,39.93 -1.12,59.48 0,0.01 0,0.01 0,0.02 6.64,9.72 11.75,20.34 15.47,31.61 5.18,15.72 7.86,32.12 10.32,48.45 2.38,15.88 4.66,31.76 9.09,47.23 0.68,2.39 1.41,4.78 2.2,7.14l-1.18 0c-1.21,-3.66 -2.29,-7.36 -3.27,-11.08 -8.2,-31.26 -8.51,-64.19 -19.4,-94.8 -5.19,-14.59 -12.95,-27.93 -23.22,-39.53 -6.31,-7.12 -13.41,-13.55 -21.16,-19.08 7.56,6.93 13.73,15.37 18.78,24.27 7.45,13.13 12.59,27.45 16.3,42.05 4.45,17.54 7.03,35.48 10.78,53.17 3.25,15.31 7.4,30.56 13.93,44.82 0.02,0.05 0.05,0.1 0.07,0.15 0.01,0.03 0.01,0.06 -0.01,0.08 -0.02,0.02 -0.04,0.04 -0.07,0.04l-1.23 0c-0.03,0 -0.06,-0.02 -0.08,-0.05 -0.55,-1.22 -1.09,-2.45 -1.6,-3.68 -13.13,-31.13 -15.21,-65.22 -23.93,-97.58 -3.9,-14.5 -9.34,-28.69 -17.16,-41.56 -6.99,-11.5 -16.06,-22.05 -27.71,-29.03 8.88,14.23 14.37,30.26 18.32,46.5 7.32,30.17 9.45,61.86 20.97,90.87 0.07,0.08 0.1,0.18 0.11,0.28 0.69,1.72 1.41,3.43 2.17,5.14 4.59,10.32 10.4,20.06 17.25,29.02l-1.42 0c-7.4,-9.82 -13.57,-20.54 -18.29,-31.9 -0.24,-0.59 -0.48,-1.19 -0.72,-1.78 -10.78,-5.57 -18.74,-15.43 -24.94,-25.62 -5.81,-9.55 -10.95,-19.43 -17.6,-28.46 -5.99,-8.13 -12.79,-15.67 -20.26,-22.45 -12.39,-11.25 -26.66,-20.35 -42.14,-26.65 12.6,7.17 23.51,17.06 33.02,27.94 10.96,12.56 20.18,26.52 28.8,40.76 9.35,15.44 18.1,31.28 28.22,46.25 5.22,7.71 10.85,15.1 17.1,21.91l-1.53 0c-6.9,-7.63 -13.01,-15.95 -18.7,-24.59 -10.04,-15.24 -18.81,-31.26 -28.37,-46.79 -8.75,-14.2 -18.22,-28.07 -29.56,-40.36 -9.66,-10.47 -20.75,-19.74 -33.45,-26.24 0.03,0.03 0.06,0.05 0.09,0.07 13.57,10.63 22.77,25.81 29.72,41.35 7.97,17.85 13.26,36.76 21.52,54.49 7.18,15.37 16.97,29.23 29.29,40.91 0.41,0.39 0.83,0.78 1.24,1.16l-1.65 0c-1.16,-1.09 -2.3,-2.21 -3.42,-3.34 -12.09,-12.19 -21.36,-26.5 -28.25,-42.2 -7.81,-17.79 -13.09,-36.61 -21.43,-54.19 -7.5,-15.81 -17.63,-30.96 -32.48,-40.71 -0.2,-0.14 -0.27,-0.34 -0.25,-0.53 0.02,-0.23 0.16,-0.45 0.38,-0.51 0.05,-0.02 0.1,-0.03 0.15,-0.03 0.08,0 0.16,0.02 0.25,0.07 10.65,3.43 20.87,8.13 30.4,13.99 16.91,10.4 31.58,24.29 43.19,40.38 6.68,9.23 11.77,19.39 17.82,29.02 5.62,8.96 12.85,17.53 22.2,22.75 -5.64,-14.6 -9,-29.97 -11.87,-45.31 -5.9,-31.59 -10.07,-64.89 -27.98,-92.41l-0.03 -0.01c-0.32,-0.18 -0.41,-0.53 -0.24,-0.84 0.05,-0.09 0.11,-0.17 0.2,-0.24 0.11,-0.08 0.24,-0.13 0.38,-0.13 0.11,0 0.21,0.03 0.31,0.08 0.88,0.49 1.76,0.99 2.62,1.51 13.66,7.59 25.84,17.91 35.76,29.97 1.64,2.01 3.21,4.05 4.71,6.15 -0.72,-4.72 -1.26,-9.46 -1.61,-14.21 -1.46,-20.02 0.24,-41.09 8.68,-59.54 0.09,-0.18 0.28,-0.27 0.47,-0.27 0.25,0 0.51,0.15 0.56,0.41 0.34,1.83 0.73,3.65 1.19,5.45 3.76,14.64 11.6,27.77 19.9,40.25 8.35,12.56 17.41,24.75 24.32,38.21 3.35,6.52 6.17,13.34 8.02,20.45 0.81,3.07 1.42,6.2 1.86,9.34 0.34,2.35 0.57,4.72 0.73,7.09 0.25,3.9 0.27,7.81 0.11,11.72 -0.8,19.38 -5.86,38.19 -9.04,57.24 -1.13,6.71 -2.03,13.55 -2.43,20.39l-1.15 0c0.51,-8.6 1.82,-17.19 3.35,-25.6 3.52,-19.28 8.46,-38.51 8.24,-58.24 -0.02,-1.84 -0.09,-3.68 -0.21,-5.51 -0.16,-2.38 -0.41,-4.74 -0.75,-7.09 -0.69,-4.81 -1.78,-9.56 -3.31,-14.19 -2.39,-7.22 -5.7,-14.09 -9.46,-20.69 -7.49,-13.16 -16.67,-25.25 -24.81,-38.01 -7.38,-11.57 -13.93,-23.89 -16.99,-37.33 -3.29,18.35 3.77,36.52 11.7,52.75 6.95,14.22 14.92,28.19 18.59,43.72 1.08,4.55 1.8,9.13 2.25,13.75 0.07,0.75 0.14,1.5 0.2,2.26 0.06,0.76 0.11,1.51 0.16,2.28 0.05,0.85 0.09,1.7 0.13,2.55 0.22,5.09 0.17,10.2 -0.03,15.31 -0.03,0.76 -0.06,1.52 -0.1,2.29 -0.18,3.88 -0.45,7.76 -0.74,11.62 -1.28,17.19 -3.22,34.65 -0.83,51.84 0.38,2.79 0.91,5.56 1.56,8.29zm-33.18 -207.98c-0.01,-0.05 -0.02,-0.11 -0.03,-0.16 -0.02,0.04 -0.04,0.09 -0.06,0.14 0.03,0 0.06,0.01 0.09,0.02z"/>
   <path fill="#F5B2B6" d="M623.99 1256.3c5.82,-6.29 12.17,-12.08 18.97,-17.29 2.5,-1.92 5.06,-3.76 7.67,-5.52 13.27,-8.93 27.9,-15.8 43.23,-20.36 4.31,-1.29 8.69,-2.39 13.1,-3.3 0.09,-0.02 0.18,0 0.25,0.06 0.07,0.06 0.11,0.14 0.11,0.23l0 0.58c0,0.14 -0.1,0.26 -0.24,0.29 -6.23,1.29 -12.39,2.97 -18.42,5.01 -14.97,5.06 -29.18,12.37 -41.96,21.66 -1.24,0.9 -2.47,1.83 -3.69,2.77 -7.36,5.7 -14.16,12.07 -20.31,19 -4.4,10.98 -7.78,22.35 -10.12,33.94 -0.03,0.14 -0.15,0.24 -0.29,0.24l-0.57 0c-0.09,0 -0.17,-0.04 -0.23,-0.11 -0.06,-0.07 -0.08,-0.16 -0.06,-0.25 2.13,-10.62 5.14,-21.06 9,-31.18 -2.48,2.93 -4.85,5.95 -7.11,9.07 -5.1,7.04 -9.6,14.51 -13.46,22.3 -0.05,0.11 -0.15,0.17 -0.27,0.17l-0.62 0c-0.11,0 -0.2,-0.05 -0.26,-0.14 -0.05,-0.09 -0.06,-0.2 -0.01,-0.29 4.76,-9.66 10.51,-18.84 17.15,-27.33 1.89,-2.41 3.85,-4.77 5.85,-7.02 1.61,-4.02 3.38,-8.04 5.28,-11.99 6.41,-13.3 14.39,-25.84 23.7,-37.32 0.72,-0.9 1.46,-1.79 2.21,-2.67 9.88,-11.77 21.16,-22.36 33.51,-31.51 6.54,-4.84 13.38,-9.28 20.47,-13.27 0.1,-0.05 0.21,-0.05 0.3,0 0.1,0.06 0.15,0.15 0.15,0.26l0 0.64c0,0.11 -0.06,0.2 -0.15,0.26 -8.71,4.92 -17.03,10.51 -24.88,16.71 -11.58,9.15 -22.14,19.62 -31.38,31.14 -0.28,0.35 -0.57,0.7 -0.85,1.06 -9.93,12.57 -18.26,26.4 -24.74,41.06 -0.45,1.02 -0.89,2.06 -1.33,3.1z"/>
   <path fill="#F5B2B6" d="M270.34 1178.44c-5.52,-13.55 -13.54,-26.09 -23.69,-36.65 -14.22,-14.79 -32.27,-24.76 -52.3,-29.15 -10.29,-2.26 -20.8,-3.17 -31.32,-3.17 -13.18,0 -26.34,1.41 -39.36,3.38 -24.54,3.72 -48.83,9.34 -73.65,10.97 -4.04,0.27 -8.09,0.41 -12.14,0.41 -12.69,0 -25.41,-1.41 -37.66,-4.82 -0.13,-0.03 -0.22,-0.15 -0.22,-0.28l0 -0.59c0,-0.1 0.04,-0.18 0.12,-0.24 0.08,-0.06 0.17,-0.08 0.26,-0.05 2.95,0.82 5.92,1.53 8.92,2.14 9.31,1.88 18.79,2.65 28.29,2.65 12.88,0 25.73,-1.41 38.46,-3.34 24.32,-3.69 48.41,-9.25 73.02,-10.88 4.6,-0.31 9.22,-0.48 13.84,-0.48 18.37,0 36.86,2.71 53.66,10.44 17.21,7.92 31.8,20.91 42.53,36.45 5.66,8.18 10.26,17.06 13.7,26.35 3.18,4.18 6.1,8.54 8.74,13.08 7.91,13.6 13.27,28.71 15.3,44.33 2.11,16.19 0.6,32.76 -3.95,48.42 -0.88,3.06 -1.89,6.09 -3,9.08 -0.05,0.12 -0.16,0.19 -0.28,0.19l-0.6 0c-0.1,0 -0.19,-0.04 -0.24,-0.13 -0.06,-0.08 -0.07,-0.18 -0.04,-0.27 2.7,-7.2 4.75,-14.65 6.08,-22.22 2.85,-16.18 2.33,-32.9 -1.83,-48.81 -3.74,-14.32 -10.25,-27.87 -18.85,-39.91 2.49,7.46 4.25,15.18 5.2,22.99 2.53,20.68 -0.64,41.88 -7.99,61.31 -3.56,9.39 -8.08,18.41 -13.44,26.9 -0.05,0.09 -0.14,0.14 -0.25,0.14l-0.66 0c-0.12,0 -0.21,-0.05 -0.27,-0.15 -0.05,-0.1 -0.05,-0.21 0.01,-0.31 8.61,-13.56 15.08,-28.51 18.79,-44.15 4.69,-19.83 4.77,-40.69 -0.67,-60.38 -0.89,-3.23 -1.91,-6.41 -3.06,-9.52 -9.71,-12.76 -21.83,-23.69 -35.59,-31.93 -15.05,-9.01 -31.83,-14.37 -49.26,-16.17 -5.21,-0.54 -10.44,-0.79 -15.67,-0.79 -36.89,0 -72.63,12.52 -107.46,23.31 -10.14,3.14 -20.3,6.16 -30.59,8.75 -10.12,2.54 -20.37,4.88 -30.79,5.7 -0.7,0.06 -1.41,0.1 -2.12,0.14 -0.08,0 -0.16,-0.02 -0.22,-0.08 -0.06,-0.06 -0.09,-0.14 -0.09,-0.22l0 -0.62c0,-0.16 0.12,-0.29 0.28,-0.3 8.02,-0.44 15.99,-1.9 23.81,-3.64 20.92,-4.67 41.26,-11.5 61.71,-17.82 27.63,-8.54 56.67,-16.42 85.79,-16.42 12.31,0 24.55,1.43 36.43,4.74 24.53,6.83 46.34,21.91 62.32,41.62z"/>
   <path fill="#F5B2B6" d="M704.11 813.49l0 1.93c-9.51,13.06 -19.69,25.63 -30.49,37.64 0.61,1.93 1.17,3.87 1.67,5.83 4.08,16.03 4.31,32.97 0.88,49.13 -1.71,8.06 -4.33,15.91 -7.8,23.37 -3.38,7.28 -7.47,14.71 -13.02,20.57 -4.47,4.71 -10.33,8.19 -16.87,8.19 -0.63,0 -1.26,-0.03 -1.9,-0.09 -5.58,-0.58 -10.05,-3.71 -12.15,-8.5 -0.06,-0.08 -0.11,-0.18 -0.13,-0.29 -0.5,-1.23 -0.85,-2.56 -1.04,-3.98 -0.55,-4.3 0.43,-8.59 1.79,-12.65 1.4,-4.18 3.07,-8.28 4.83,-12.32 3.62,-8.35 7.82,-16.43 12.39,-24.3 7.6,-13.1 16.18,-25.59 24.93,-37.96 -12.35,13.22 -25.4,25.96 -39.97,36.72 -0.01,0.07 -0.03,0.14 -0.08,0.21 -1.16,1.97 -2.35,3.92 -3.57,5.85 -9.59,15.19 -20.87,29.33 -33.57,42.05 -12.23,12.26 -26.63,23.94 -44.39,26.22 -0.36,0.05 -0.72,0.09 -1.08,0.13 -0.07,0.03 -0.14,0.05 -0.2,0.05 -0.04,0 -0.08,-0.01 -0.11,-0.02 -1.46,0.15 -2.92,0.22 -4.38,0.22 -0.32,0 -0.64,0 -0.96,-0.01 -2.14,-0.05 -4.27,-0.26 -6.37,-0.66 -3.77,-0.73 -7.53,-2.29 -9.92,-5.43 -2.47,-3.25 -2.37,-6.83 -1.09,-10.27 0.01,-0.1 0.04,-0.19 0.11,-0.28 1.51,-3.86 4.47,-7.53 6.89,-10.34 9.67,-11.23 22.81,-18.35 36.34,-24 2.49,-1.04 4.99,-2.02 7.48,-2.98 9.06,-3.46 18.14,-6.83 27.12,-10.51 8.75,-3.6 17.48,-7.27 26.35,-10.58 6.95,-5.07 13.53,-10.63 19.86,-16.47 -0.28,0.18 -0.55,0.35 -0.82,0.52 -16.89,10.56 -36.12,17.27 -55.88,19.72 -5.53,0.69 -11.1,1.03 -16.67,1.03 -1.07,0 -2.14,-0.01 -3.21,-0.03 -3.38,-0.09 -6.76,-0.29 -10.13,-0.64 -9.53,-0.97 -19.36,-2.88 -27.57,-8.08 -7.24,-4.58 -12.79,-11.99 -13.92,-20.61 -0.56,-4.36 0.24,-8.5 2.11,-12.12 0,-0.17 0.1,-0.36 0.25,-0.48 1.9,-3.44 4.76,-6.39 8.32,-8.58 5.65,-3.47 12.07,-4.65 18.56,-4.65 3.64,0 7.31,0.37 10.87,0.92 2.67,0.41 5.33,0.89 7.98,1.44 8.26,1.72 16.39,4.09 24.28,7 19.92,7.34 38.94,19.79 60.82,19.79 0.03,0 0.04,0 0.06,0 0.19,-0.18 0.38,-0.36 0.57,-0.55 7.27,-7.04 14.3,-14.33 21.07,-21.85 0.03,-0.04 0.06,-0.08 0.08,-0.12 0.05,-0.12 0.15,-0.21 0.27,-0.26 5.87,-6.54 11.57,-13.24 17.07,-20.1 0.97,-1.2 1.94,-2.42 2.9,-3.64 -1.28,0.7 -2.56,1.39 -3.84,2.08 -16.48,8.84 -33.6,16.7 -52.14,19.99 -6.77,1.2 -13.76,1.88 -20.75,1.88 -11.45,0 -22.9,-1.82 -33.42,-6.16 -7.07,-2.92 -13.97,-7.79 -15.73,-15.7 -0.76,-3.43 -0.42,-7.14 1.45,-10.17 1.93,-3.1 5.14,-5.19 8.55,-6.35 3.92,-1.33 8.13,-1.48 12.25,-1.48 0.58,0 1.17,0 1.74,0.01 4.98,0.02 9.96,0.17 14.93,0.45 10.04,0.54 20.05,1.55 30.01,2.87 19.73,2.61 39.28,6.4 58.8,10.2 3.27,-4.21 6.47,-8.47 9.59,-12.8zm-157.6 156.37c2.64,-0.4 5.24,-1.03 7.79,-1.83 16.43,-5.22 29.42,-17.8 40.9,-30.15 11.41,-12.27 21.52,-25.73 30.17,-40.09 -0.09,0.04 -0.18,0.07 -0.27,0.1 -0.01,0.06 -0.04,0.13 -0.1,0.2 -4.75,6.21 -9.84,12.17 -15.18,17.89 -18.93,20.31 -40.72,37.82 -63.31,53.88zm61.35 -65.11c-4.39,1.8 -8.78,3.63 -13.18,5.41 -8.36,3.38 -16.86,6.38 -25.25,9.69 -1.66,0.66 -3.33,1.33 -5,2.03 -13.76,5.82 -27.2,13.33 -36.59,25.19 -1.48,1.86 -3.09,3.94 -4.29,6.18 5.83,-4.71 11.95,-9.08 18.25,-13.16 6.69,-4.33 13.61,-8.29 20.61,-12.09 6.4,-3.47 12.87,-6.81 19.31,-10.17 8.64,-4.5 17.34,-8.91 26.14,-13.08zm-46.04 24.87c-0.72,0.39 -1.45,0.79 -2.18,1.18 -13.07,7.12 -25.67,15.25 -37.14,24.75 0,0 0,0 -0.01,0 -0.39,1.07 -0.65,2.16 -0.75,3.27 -0.37,4.52 2.91,8.03 6.85,9.68 3.42,1.43 7.29,1.87 11.02,1.87 0.03,0 0.06,0 0.1,0 0.56,0 1.12,-0.01 1.68,-0.03 0.92,-0.03 1.84,-0.09 2.76,-0.18 6.35,-4.49 12.62,-9.08 18.79,-13.81 21.86,-16.78 42.79,-35.38 59.81,-57.17 -7.37,3.22 -14.64,6.63 -21.86,10.17 -13.16,6.47 -26.17,13.27 -39.07,20.27zm8.16 -55.39c14.25,2.65 28.73,3.99 43.23,3.99 10.6,0 21.22,-0.72 31.74,-2.17 -0.51,-0.04 -1.02,-0.1 -1.53,-0.16 -20.42,-2.44 -38.23,-14.06 -57.38,-20.65 -6.58,-2.27 -13.35,-4.22 -20.2,-5.68 -3.85,-0.81 -7.73,-1.47 -11.62,-1.94 -2.42,-0.29 -4.9,-0.46 -7.37,-0.46 -7.57,0 -15.14,1.64 -21.1,6.62 -1.92,1.6 -3.57,3.5 -4.81,5.63 8.73,3.73 17.69,6.92 26.81,9.56 7.32,2.11 14.74,3.87 22.23,5.26zm77.84 2.97c-8.28,3.17 -16.78,5.8 -25.42,7.85 -15.38,3.64 -31.16,5.47 -46.95,5.47 -1.76,0 -3.53,-0.03 -5.3,-0.07 -15.71,-0.41 -31.38,-2.63 -46.58,-6.67 4.02,5.4 9.91,9.24 16.32,11.62 8.98,3.33 18.83,4.36 28.35,4.65 0.33,0.01 0.66,0.02 0.99,0.02 1.03,0.03 2.05,0.04 3.07,0.04 8.46,0 16.92,-0.8 25.23,-2.38 17.94,-3.41 35.13,-10.38 50.29,-20.53zm-77.62 12.14c1.71,0.04 3.41,0.06 5.11,0.06 23.54,0 47.05,-4.09 69.18,-12.16 -7.89,1.07 -15.83,1.74 -23.79,1.99 -2.49,0.08 -4.98,0.12 -7.47,0.12 -14.47,0 -28.94,-1.33 -43.17,-3.96 -0.23,-0.04 -0.47,-0.09 -0.71,-0.13 -16.8,-3.16 -33.23,-8.15 -48.95,-14.86 -0.67,1.3 -1.18,2.69 -1.52,4.14 -0.98,4.25 -0.42,8.72 1.13,12.76 0.75,1.98 1.72,3.81 2.87,5.5 0.09,-0.14 0.24,-0.24 0.43,-0.24 0.05,0 0.1,0.01 0.16,0.02 9.14,2.46 18.46,4.27 27.86,5.4 6.27,0.74 12.57,1.2 18.87,1.36zm55.29 61.97c2.3,5.17 7.61,7.71 13.11,7.71 1.21,0 2.43,-0.12 3.63,-0.37 3.08,-0.63 5.83,-2.02 8.29,-3.86 0.01,-0.04 0.03,-0.09 0.05,-0.14 3.37,-6.74 6.22,-13.72 8.6,-20.87 7.71,-23.13 10.64,-47.47 12.57,-71.69 -1.39,5.52 -2.98,10.99 -4.8,16.39 -8.97,26.71 -23.23,51.36 -41.45,72.83zm27.09 1.79c2.66,-2.4 4.95,-5.28 6.91,-8.17 8.94,-13.18 14.62,-28.65 16.87,-44.39 2.13,-14.86 1.11,-30.1 -3.02,-44.52 -0.54,7.25 -1.14,14.5 -1.91,21.74 -2.71,25.82 -7.55,51.78 -18.85,75.34zm20.26 -98.73c-0.02,-0.08 -0.04,-0.16 -0.06,-0.24 -0.08,0.1 -0.15,0.2 -0.22,0.3 0.09,-0.04 0.18,-0.06 0.28,-0.06 0,0 0,0 0,0zm-0.54 0.42c-0.85,1.2 -1.7,2.4 -2.55,3.6 -9.97,14.06 -19.81,28.27 -28.29,43.3 -4.2,7.46 -8.06,15.12 -11.39,23.01 -1.71,4.07 -3.42,8.22 -4.64,12.48 -1.18,4.1 -1.75,8.5 -0.49,12.65 0.03,0.1 0.06,0.19 0.09,0.29 5.01,-5.92 9.72,-12.07 14.11,-18.47 15.92,-23.22 27.14,-49.36 33.16,-76.86zm-101.61 -35.48c8.77,2.63 17.57,5.16 26.45,7.36 17.15,4.24 35.01,7.23 52.75,7.23 14.43,0 28.77,-1.98 42.58,-6.86 -1.65,-0.32 -3.31,-0.65 -4.97,-0.97 -18.82,-3.65 -37.68,-7.17 -56.72,-9.48 -9.43,-1.15 -18.89,-2 -28.38,-2.41 -4.13,-0.19 -8.27,-0.29 -12.41,-0.29 -0.55,0 -1.11,0 -1.66,0 -4.58,0.04 -9.36,0.29 -13.53,2.39 -1.54,0.78 -2.95,1.8 -4.11,3.03zm115.13 11.77c-6.12,2.37 -12.38,4.39 -18.75,6.03 -14.01,3.61 -28.49,5.43 -42.97,5.43 -2.3,0 -4.6,-0.05 -6.89,-0.14 -16.47,-0.66 -32.83,-3.69 -48.42,-9.06 0.46,1.08 1.03,2.1 1.69,3.06 4.75,6.91 13.74,9.94 21.47,12 7.95,2.12 16.17,3.08 24.4,3.08 9.74,0 19.51,-1.35 28.89,-3.72 14.26,-3.62 27.61,-9.83 40.58,-16.68zm-117.54 0.89c8.78,3.08 17.8,5.42 26.97,7 9.52,1.63 19.17,2.44 28.82,2.44 7.03,0 14.05,-0.43 21.02,-1.28 12.51,-1.53 24.86,-4.46 36.72,-8.74 -4.81,1.17 -9.7,2.04 -14.62,2.64 -5.84,0.71 -11.67,1.03 -17.48,1.03 -27.12,0 -53.94,-7.04 -79.82,-14.82 -1.08,1.41 -1.85,3.04 -2.18,4.88 -0.4,2.29 -0.15,4.64 0.57,6.85zm135.83 28.77l0 5.87c-4.02,19.1 -10.14,37.79 -16.24,56.31 0.1,0.46 0.22,0.9 0.35,1.35 1.1,3.69 3.58,7.33 7.5,8.34 0.76,0.2 1.53,0.29 2.29,0.29 1.6,0 3.18,-0.4 4.65,-1.08 0.48,-1.18 0.97,-2.36 1.45,-3.54l0 2.94 0 1.14c-0.2,0.11 -0.4,0.21 -0.6,0.31 -0.11,0.25 -0.34,0.36 -0.56,0.36 -0.07,0 -0.13,-0.01 -0.19,-0.02 -0.33,0.14 -0.68,0.27 -1.02,0.38 -1.21,0.4 -2.46,0.6 -3.69,0.6 -2.23,0 -4.41,-0.67 -6.25,-2.12 -2.65,-2.07 -4.16,-5.16 -4.94,-8.38 -0.17,-0.11 -0.26,-0.32 -0.18,-0.57 0.01,-0.02 0.02,-0.05 0.03,-0.07 -0.03,-0.15 -0.06,-0.3 -0.09,-0.45 -1.71,-8.88 -0.61,-18.41 0.95,-27.23 1.65,-9.36 4.16,-18.54 6.24,-27.8 3.61,-16.04 6.66,-32.2 10.3,-48.23l0 5.15c-3.41,15.52 -6.39,31.13 -9.95,46.62 -2.02,8.8 -4.38,17.54 -5.83,26.47 -0.74,4.56 -1.24,9.18 -1.33,13.81 -0.06,3.1 -0.04,6.34 0.43,9.46 2.32,-7.05 4.63,-14.1 6.81,-21.2 3.91,-12.68 7.43,-25.62 9.87,-38.71zm-54.79 14.67l0 0z"/>
   <path fill="#F5B2B6" d="M7.19 725.96l0 -1.93c9.51,-13.05 19.69,-25.63 30.49,-37.64 -0.61,-1.92 -1.17,-3.87 -1.67,-5.83 -4.08,-16.03 -4.31,-32.96 -0.88,-49.13 1.71,-8.05 4.33,-15.91 7.8,-23.37 3.38,-7.28 7.47,-14.71 13.02,-20.57 4.47,-4.71 10.33,-8.19 16.87,-8.19 0.63,0 1.26,0.03 1.9,0.1 5.58,0.57 10.05,3.7 12.15,8.49 0.07,0.08 0.11,0.19 0.13,0.29 0.5,1.23 0.86,2.56 1.04,3.98 0.55,4.3 -0.42,8.59 -1.79,12.66 -1.4,4.17 -3.07,8.27 -4.83,12.31 -3.62,8.35 -7.82,16.43 -12.39,24.3 -7.6,13.11 -16.18,25.6 -24.93,37.97 12.35,-13.23 25.4,-25.97 39.97,-36.73 0.01,-0.07 0.03,-0.14 0.08,-0.21 1.16,-1.96 2.35,-3.91 3.57,-5.84 9.59,-15.2 20.87,-29.34 33.57,-42.06 12.23,-12.25 26.63,-23.94 44.39,-26.22 0.36,-0.05 0.72,-0.09 1.08,-0.13 0.07,-0.03 0.14,-0.05 0.2,-0.05 0.04,0 0.08,0.01 0.11,0.02 1.46,-0.15 2.92,-0.22 4.38,-0.22 0.32,0 0.64,0 0.96,0.01 2.14,0.05 4.27,0.26 6.37,0.67 3.77,0.73 7.53,2.28 9.92,5.42 2.47,3.25 2.37,6.84 1.09,10.28 -0.01,0.09 -0.04,0.18 -0.11,0.27 -1.51,3.86 -4.47,7.53 -6.89,10.35 -9.67,11.22 -22.81,18.35 -36.34,23.99 -2.49,1.04 -4.99,2.03 -7.48,2.98 -9.06,3.47 -18.14,6.83 -27.12,10.52 -8.75,3.59 -17.48,7.26 -26.35,10.57 -6.95,5.07 -13.53,10.63 -19.86,16.47 0.28,-0.17 0.55,-0.35 0.82,-0.52 16.89,-10.56 36.12,-17.27 55.88,-19.72 5.53,-0.68 11.1,-1.03 16.67,-1.03 1.07,0 2.14,0.01 3.21,0.04 3.38,0.08 6.76,0.29 10.13,0.63 9.53,0.97 19.36,2.89 27.57,8.09 7.24,4.57 12.79,11.98 13.92,20.61 0.57,4.35 -0.24,8.49 -2.11,12.11 0,0.18 -0.1,0.36 -0.25,0.48 -1.89,3.44 -4.76,6.4 -8.32,8.58 -5.65,3.48 -12.07,4.66 -18.55,4.66 -3.65,0 -7.32,-0.38 -10.88,-0.92 -2.67,-0.41 -5.33,-0.9 -7.98,-1.45 -8.26,-1.71 -16.39,-4.08 -24.28,-6.99 -19.92,-7.35 -38.94,-19.8 -60.82,-19.8 -0.02,0 -0.04,0 -0.06,0 -0.19,0.18 -0.38,0.37 -0.57,0.55 -7.27,7.04 -14.29,14.33 -21.07,21.85 -0.03,0.04 -0.06,0.08 -0.08,0.12 -0.05,0.12 -0.15,0.21 -0.27,0.26 -5.87,6.54 -11.57,13.25 -17.07,20.1 -0.97,1.21 -1.93,2.42 -2.9,3.64 1.28,-0.7 2.56,-1.39 3.84,-2.08 16.48,-8.83 33.61,-16.7 52.14,-19.99 6.77,-1.2 13.76,-1.87 20.75,-1.87 11.45,0 22.9,1.82 33.42,6.16 7.07,2.91 13.98,7.79 15.73,15.69 0.76,3.43 0.43,7.14 -1.45,10.17 -1.93,3.1 -5.14,5.19 -8.55,6.35 -3.92,1.34 -8.13,1.48 -12.25,1.48 -0.58,0 -1.16,0 -1.74,0 -4.98,-0.03 -9.96,-0.18 -14.93,-0.45 -10.04,-0.55 -20.05,-1.56 -30.01,-2.87 -19.73,-2.61 -39.28,-6.4 -58.8,-10.21 -3.27,4.21 -6.47,8.48 -9.59,12.8zm157.6 -156.37c-2.64,0.4 -5.24,1.03 -7.79,1.83 -16.42,5.22 -29.42,17.8 -40.9,30.15 -11.41,12.28 -21.52,25.73 -30.16,40.09 0.08,-0.03 0.17,-0.07 0.26,-0.1 0.01,-0.06 0.05,-0.13 0.1,-0.19 4.75,-6.22 9.84,-12.18 15.18,-17.9 18.93,-20.31 40.72,-37.82 63.31,-53.88zm-61.35 65.12c4.4,-1.81 8.78,-3.63 13.18,-5.41 8.36,-3.39 16.86,-6.39 25.25,-9.7 1.67,-0.65 3.33,-1.33 5,-2.03 13.77,-5.81 27.2,-13.33 36.6,-25.19 1.47,-1.86 3.08,-3.94 4.28,-6.18 -5.83,4.72 -11.95,9.08 -18.25,13.16 -6.69,4.33 -13.61,8.3 -20.61,12.1 -6.4,3.47 -12.86,6.8 -19.31,10.16 -8.64,4.5 -17.34,8.91 -26.14,13.09zm46.04 -24.87c0.72,-0.4 1.45,-0.79 2.18,-1.19 13.07,-7.12 25.67,-15.25 37.14,-24.75 0,0 0,0 0.01,0 0.39,-1.06 0.66,-2.15 0.75,-3.27 0.37,-4.52 -2.91,-8.03 -6.85,-9.68 -3.42,-1.43 -7.29,-1.87 -11.02,-1.87 -0.03,0 -0.06,0 -0.1,0 -0.56,0 -1.12,0.01 -1.67,0.03 -0.93,0.03 -1.85,0.1 -2.77,0.19 -6.35,4.48 -12.62,9.07 -18.79,13.8 -21.86,16.78 -42.79,35.38 -59.81,57.18 7.37,-3.22 14.64,-6.64 21.86,-10.18 13.16,-6.47 26.17,-13.27 39.07,-20.26zm-8.16 55.38c-14.25,-2.65 -28.73,-3.98 -43.23,-3.98 -10.6,0 -21.22,0.71 -31.74,2.16 0.51,0.04 1.02,0.1 1.53,0.16 20.42,2.44 38.23,14.06 57.38,20.65 6.58,2.27 13.35,4.23 20.2,5.68 3.86,0.82 7.73,1.47 11.62,1.94 2.42,0.29 4.9,0.47 7.37,0.47 7.57,0 15.14,-1.64 21.1,-6.63 1.92,-1.6 3.57,-3.5 4.81,-5.63 -8.73,-3.73 -17.68,-6.92 -26.81,-9.56 -7.32,-2.11 -14.74,-3.87 -22.23,-5.26zm-77.84 -2.96c8.28,-3.18 16.78,-5.81 25.42,-7.86 15.38,-3.64 31.16,-5.47 46.95,-5.47 1.76,0 3.54,0.03 5.3,0.07 15.71,0.41 31.38,2.63 46.58,6.68 -4.02,-5.4 -9.91,-9.24 -16.32,-11.62 -8.98,-3.34 -18.82,-4.36 -28.35,-4.66 -0.33,-0.01 -0.66,-0.02 -0.99,-0.02 -1.02,-0.03 -2.05,-0.04 -3.07,-0.04 -8.46,0 -16.92,0.8 -25.23,2.38 -17.94,3.41 -35.13,10.38 -50.29,20.54zm77.62 -12.15c-1.71,-0.04 -3.41,-0.06 -5.11,-0.06 -23.54,0 -47.05,4.09 -69.18,12.16 7.89,-1.07 15.83,-1.74 23.79,-1.99 2.49,-0.08 4.98,-0.12 7.47,-0.12 14.47,0 28.94,1.34 43.17,3.96 0.23,0.05 0.47,0.09 0.71,0.13 16.8,3.16 33.23,8.15 48.95,14.87 0.67,-1.31 1.18,-2.7 1.52,-4.15 0.99,-4.25 0.42,-8.72 -1.13,-12.76 -0.75,-1.98 -1.72,-3.81 -2.87,-5.5 -0.09,0.14 -0.24,0.24 -0.43,0.24 -0.05,0 -0.1,-0.01 -0.15,-0.02 -9.15,-2.45 -18.47,-4.27 -27.87,-5.39 -6.27,-0.75 -12.57,-1.21 -18.87,-1.37zm-55.29 -61.97c-2.3,-5.17 -7.61,-7.71 -13.11,-7.71 -1.21,0 -2.43,0.12 -3.63,0.37 -3.08,0.63 -5.83,2.02 -8.29,3.86 -0.01,0.05 -0.02,0.09 -0.05,0.14 -3.37,6.74 -6.22,13.72 -8.6,20.87 -7.71,23.13 -10.64,47.47 -12.57,71.7 1.39,-5.53 2.99,-10.99 4.8,-16.39 8.97,-26.72 23.23,-51.37 41.45,-72.84zm-27.09 -1.79c-2.66,2.4 -4.95,5.28 -6.9,8.17 -8.95,13.18 -14.63,28.66 -16.88,44.39 -2.13,14.86 -1.11,30.11 3.02,44.53 0.55,-7.26 1.14,-14.51 1.91,-21.75 2.71,-25.82 7.55,-51.78 18.85,-75.34zm-20.26 98.74c0.02,0.07 0.04,0.15 0.07,0.23 0.07,-0.1 0.14,-0.2 0.21,-0.3 -0.08,0.04 -0.18,0.07 -0.28,0.07 0,0 0,0 0,0zm0.54 -0.43c0.85,-1.2 1.7,-2.39 2.55,-3.59 9.97,-14.07 19.82,-28.28 28.29,-43.31 4.2,-7.46 8.06,-15.12 11.39,-23 1.71,-4.08 3.42,-8.23 4.64,-12.48 1.18,-4.11 1.75,-8.51 0.49,-12.66 -0.03,-0.1 -0.06,-0.19 -0.09,-0.29 -5.01,5.92 -9.72,12.08 -14.11,18.47 -15.92,23.22 -27.14,49.36 -33.16,76.86zm101.61 35.49c-8.77,-2.63 -17.57,-5.17 -26.45,-7.37 -17.15,-4.24 -35.01,-7.23 -52.75,-7.23 -14.43,0 -28.77,1.98 -42.58,6.86 1.66,0.33 3.31,0.65 4.98,0.97 18.81,3.65 37.68,7.18 56.71,9.49 9.43,1.14 18.9,1.99 28.38,2.41 4.13,0.18 8.27,0.29 12.41,0.29 0.55,0 1.11,-0.01 1.66,-0.01 4.58,-0.03 9.36,-0.29 13.53,-2.39 1.55,-0.78 2.95,-1.8 4.11,-3.02zm-115.13 -11.77c6.13,-2.38 12.38,-4.4 18.75,-6.04 14.01,-3.61 28.49,-5.42 42.97,-5.42 2.3,0 4.6,0.04 6.89,0.13 16.48,0.66 32.83,3.69 48.42,9.07 -0.46,-1.08 -1.03,-2.11 -1.69,-3.06 -4.75,-6.92 -13.74,-9.95 -21.47,-12.01 -7.95,-2.12 -16.17,-3.08 -24.4,-3.08 -9.74,0 -19.51,1.35 -28.89,3.73 -14.26,3.61 -27.61,9.82 -40.58,16.68zm117.54 -0.9c-8.78,-3.08 -17.8,-5.42 -26.97,-7 -9.51,-1.63 -19.17,-2.44 -28.82,-2.44 -7.02,0 -14.05,0.43 -21.02,1.28 -12.51,1.53 -24.86,4.47 -36.72,8.75 4.81,-1.18 9.7,-2.05 14.62,-2.65 5.84,-0.71 11.67,-1.03 17.48,-1.03 27.12,0 53.94,7.04 79.82,14.82 1.08,-1.4 1.85,-3.04 2.18,-4.88 0.4,-2.28 0.15,-4.64 -0.57,-6.85zm-135.83 -28.77l0 -5.87c4.02,-19.1 10.14,-37.79 16.24,-56.31 -0.1,-0.45 -0.22,-0.9 -0.35,-1.35 -1.1,-3.68 -3.58,-7.33 -7.5,-8.34 -0.76,-0.2 -1.53,-0.29 -2.29,-0.29 -1.6,0 -3.18,0.41 -4.65,1.08 -0.48,1.18 -0.97,2.36 -1.45,3.54l0 -2.94 0 -1.14c0.2,-0.11 0.4,-0.21 0.6,-0.31 0.11,-0.25 0.34,-0.36 0.56,-0.36 0.07,0 0.13,0.01 0.19,0.03 0.33,-0.15 0.68,-0.27 1.02,-0.39 1.21,-0.39 2.46,-0.6 3.69,-0.6 2.23,0 4.42,0.68 6.25,2.12 2.65,2.08 4.16,5.17 4.94,8.38 0.17,0.12 0.26,0.32 0.18,0.57 -0.01,0.02 -0.02,0.05 -0.03,0.08 0.03,0.14 0.06,0.29 0.09,0.44 1.71,8.89 0.61,18.41 -0.95,27.23 -1.65,9.36 -4.16,18.54 -6.24,27.8 -3.61,16.04 -6.66,32.2 -10.3,48.23l0 -5.15c3.41,-15.52 6.39,-31.13 9.95,-46.61 2.02,-8.81 4.38,-17.55 5.83,-26.47 0.74,-4.57 1.24,-9.18 1.33,-13.81 0.06,-3.1 0.04,-6.34 -0.43,-9.47 -2.32,7.05 -4.63,14.1 -6.81,21.2 -3.91,12.69 -7.43,25.62 -9.87,38.71zm54.79 -14.67l0 0z"/>
   <path fill="#F5B2B6" d="M250.7 188.62c-0.09,0 -0.18,-0.02 -0.27,-0.06l0 0 0 -0.01 0 0 -0.01 0c-0.18,-0.07 -0.32,-0.24 -0.33,-0.49 -0.02,-0.2 -0.03,-0.41 -0.04,-0.62 -0.01,-0.04 -0.01,-0.09 -0.01,-0.14 0,-0.01 0,-0.01 0,-0.02 -0.74,-13.62 0.21,-27.31 2.77,-40.71 4.63,-24.25 14.49,-47.42 28.34,-67.82 13.97,-20.59 35.34,-38.68 38.7,-64.66 -0.22,0.21 -0.45,0.41 -0.67,0.62 -14.55,13.14 -31.05,23.88 -47.7,34.12 -16.38,10.08 -33.04,19.75 -48.62,31.05 -15.32,11.1 -29.63,23.84 -40.68,39.29 -0.12,0.17 -0.28,0.24 -0.44,0.25 -0.04,0 -0.07,0.01 -0.1,0.01 -0.04,0 -0.08,-0.01 -0.12,-0.01l0 0 0 0 -0.01 -0.01 0 0 0 0 0 0 0 0 -0.01 0 0 0 0 0 0 0 -0.01 0 0 0 0 0 0 0 -0.01 0 0 0 0 0 0 0 -0.01 -0.01c-0.17,-0.04 -0.31,-0.16 -0.34,-0.35 -0.03,-0.1 -0.03,-0.23 0.03,-0.35 0.24,-2.13 0.52,-4.25 0.86,-6.37 2.93,-18.43 9.49,-36.34 18.9,-52.43 1.22,-2.09 2.5,-4.14 3.82,-6.15 -5.19,2.99 -10.5,5.79 -15.93,8.34 -19.82,9.33 -41.76,16.17 -63.86,16.17 -2.08,0 -4.17,-0.06 -6.25,-0.18 -0.55,-0.04 -0.77,-0.75 -0.28,-1.05 1.97,-1.21 3.9,-2.49 5.78,-3.84 15.33,-11.02 26.92,-26.25 37.63,-41.57 7.4,-10.56 14.49,-21.41 22.39,-31.62l1.43 0c-9.83,12.6 -18.37,26.17 -27.76,39.09 -10.18,14 -21.55,27.42 -36.03,37.07 2.15,-0.4 4.28,-0.9 6.38,-1.52 18.31,-5.4 33.17,-18.56 46,-32.18 13.67,-14.5 26.2,-30.41 42.68,-41.92 0.26,-0.18 0.52,-0.36 0.79,-0.54l2.05 0c-2.85,1.88 -5.63,3.89 -8.31,6.06 -15.73,12.69 -27.9,29.01 -42.21,43.15 -12.92,12.77 -28.23,24.31 -46.39,27.9 0.64,0.01 1.28,0.02 1.92,0.02 4.61,0 9.23,-0.3 13.81,-0.87 23.93,-2.97 46.98,-12.45 67.61,-24.66 8.8,-12.82 19.65,-23.98 31.94,-33.65 8.31,-6.54 17.08,-12.41 26.07,-17.95l2.14 0c-10.83,6.61 -21.38,13.68 -31.16,21.77 -14.63,12.11 -26.83,26.52 -35.85,43.25 -6.31,11.72 -11.15,24.29 -14.2,37.27 4.75,-13.43 12.75,-25.69 21.92,-36.5 12.18,-14.36 26.73,-26.42 42.19,-37.08 14.72,-10.13 30.17,-19.12 45.24,-28.71l2.09 0c-16.63,10.65 -33.79,20.49 -49.92,31.89 -15.35,10.85 -29.71,23.27 -41.5,37.97 -10.91,13.6 -19.77,29.49 -22.57,46.87 0.85,-1.15 1.72,-2.29 2.61,-3.42 11.5,-14.58 25.89,-26.59 41.03,-37.21 15.76,-11.04 32.46,-20.62 48.78,-30.77 16.71,-10.4 33.15,-21.47 47.39,-35.15 3.39,-3.26 6.65,-6.66 9.76,-10.18l1.49 0c-3.95,4.52 -8.13,8.84 -12.52,12.93 -1.48,13.7 -8.37,26.4 -16.51,37.27 -7.94,10.61 -16.82,20.43 -24.11,31.54 -6.87,10.47 -12.7,21.63 -17.32,33.28 -7.85,19.84 -12.12,41.04 -12.25,62.36 2.42,-18.12 9.04,-35.44 17.55,-51.54 9.29,-17.58 20.87,-33.83 32.99,-49.55 12.57,-16.29 25.74,-32.12 37.63,-48.93 2.36,-3.33 4.65,-6.71 6.86,-10.12 0.16,0.45 0.31,0.89 0.46,1.34 0.16,-0.24 0.32,-0.49 0.48,-0.73 -0.16,-0.45 -0.31,-0.89 -0.48,-1.33 -0.15,0.24 -0.31,0.48 -0.46,0.72 -2.15,-6.06 -4.95,-11.86 -8.46,-17.24l0.73 0c3.36,5.23 6.08,10.77 8.19,16.52 3.46,-5.38 6.71,-10.88 9.67,-16.52l1.29 0c-3.2,6.11 -6.72,12.05 -10.48,17.85 5.18,14.8 6.46,30.93 4.69,46.77 7.25,-9.92 13.38,-20.62 18.19,-32.06 3.87,-9.22 6.9,-18.79 9.07,-28.56 0.29,-1.33 0.57,-2.67 0.83,-4l1.14 0c-0.34,1.77 -0.72,3.54 -1.12,5.3 -2.58,11.32 -6.33,22.38 -11.2,32.93 -4.19,9.08 -9.21,17.76 -15.03,25.89 -0.71,0.99 -1.44,1.98 -2.18,2.95 -0.26,0.36 -0.53,0.71 -0.8,1.05 -5.5,7.16 -11.63,13.81 -18.09,20.12 -16.08,15.69 -34.07,29.35 -49.55,45.66 -14.52,15.31 -27.12,33.28 -31.64,54.22 0,0.14 -0.05,0.25 -0.13,0.33 -0.09,0.12 -0.23,0.17 -0.38,0.17zm0.82 -6.36c0.16,-0.58 0.34,-1.16 0.52,-1.74 6.17,-19.85 19.29,-36.74 33.77,-51.28 15.91,-15.97 33.94,-29.62 49.72,-45.72 5.51,-5.62 10.61,-11.56 15.27,-17.82 1.82,-15.89 0.63,-32.27 -4.38,-47.12 -3.05,4.67 -6.24,9.26 -9.53,13.79 -12.1,16.65 -25.33,32.44 -37.77,48.84 -11.96,15.73 -23.23,32.12 -32.06,49.84 -7.99,16.06 -13.89,33.31 -15.54,51.21zm-130.27 -105.19c-0.09,-0.13 -0.14,-0.28 -0.12,-0.43 -0.21,0.14 -0.42,0.27 -0.62,0.4 0.24,0.01 0.49,0.02 0.74,0.03zm61.01 41.82l0 0.02 0 -0.01 0 -0.01 0 0c0.09,-0.72 0.2,-1.44 0.32,-2.16l-0.32 2.16zm-0.52 0.52l0 0 0 0.01c0.24,-0.04 0.48,-0.21 0.52,-0.51l0 0.01 0 0 -0.01 0.02 0 0 0 0.01 0 0 0 0.02 0 0 -0.01 0.01 0 0 0 0.02 0 0 -0.01 0.01 0 0 0 0.02 0 0 -0.01 0.01 0 0 0 0.01 0 0.01 -0.01 0.01 0 0 -0.01 0.01 0 0 0 0.01 0 0.01 -0.01 0.01 0 0 -0.01 0.01 0 0 0 0.01 -0.01 0.01 0 0 0 0.01 -0.01 0.01 0 0 -0.01 0.01 0 0 -0.01 0.01 0 0.01 -0.01 0 0 0.01 -0.01 0 0 0.01 -0.01 0 0 0.01 -0.01 0 0 0.01 -0.01 0 0 0.01 -0.01 0 0 0.01 -0.01 0 0 0.01 -0.01 0 0 0.01 -0.02 0.01 -0.01 0.01 0 0 -0.01 0.01 0 0 -0.01 0.01 -0.01 0 0 0 -0.01 0.01 0 0 -0.01 0 -0.01 0.01 0 0 -0.01 0 0 0.01 -0.01 0 0 0 -0.01 0.01 -0.01 0 0 0 -0.01 0.01 -0.01 0 0 0 -0.01 0 0 0.01 -0.01 0 -0.01 0 0 0.01 -0.01 0 -0.01 0 0 0 -0.01 0 0 0.01 -0.01 0 -0.01 0 -0.01 0 0 0 -0.01 0.01 0 0 -0.01 0 0 0 -0.01 0 -0.01 0 -0.01 0.01 0 0 -0.01 0 0 0 -0.01 0 -0.01 0zm-0.27 -0.01c0.05,0.02 0.1,0.02 0.16,0.02l0.01 0 0.01 0 0 0 0.02 0 0 0 0.01 0 0 0 0.01 0 0 0 0.01 0 0.01 0 0.01 0 0 0 0.01 0 0 -0.01 -0.26 -0.01zm-0.34 -0.51l0 0 0.01 -0.01 0 0 0 0 0 -0.01 0 0 0 0 0 0 0 -0.01 0 0 0 0 0 -0.01 0 0 0 0 0 -0.01 0 0 0 0 0 -0.01 0 0 0 0 0 -0.01 0 0 0 0 0 -0.01 0.02 -0.11 -0.02 0.11 -0.01 0.08 0 0zm69.29 69.66c0.08,0.04 0.18,0.06 0.26,0.06 0.15,0 0.3,-0.05 0.4,-0.16l-0.66 0.1z"/>
   <path fill="#F5B2B6" d="M600.44 1032.34l0 0zm-14.93 -8.55c-1.21,0.49 -2.32,1.23 -3.23,2.18 -0.48,0.49 -0.9,1.04 -1.26,1.64 -1.96,3.28 -1.67,7.59 0.76,10.56 1.04,1.25 2.36,2.19 3.82,2.75 0.37,0.14 0.75,0.26 1.13,0.36 0.73,0.18 1.49,0.27 2.26,0.27 1.04,0 2.09,-0.17 3.11,-0.53 3.65,-1.31 6.01,-4.85 6.07,-8.68 -0.04,-2.44 -1,-4.7 -2.6,-6.37 -1.29,-1.36 -2.99,-2.33 -4.95,-2.7 -0.55,-0.11 -1.1,-0.16 -1.65,-0.16 -0.8,0 -1.59,0.11 -2.35,0.31 -0.38,0.1 -0.75,0.22 -1.11,0.37zm3.51 20.02c-0.81,0 -1.61,-0.08 -2.39,-0.24 -0.38,-0.08 -0.76,-0.18 -1.13,-0.3 -2.63,-0.83 -4.96,-2.58 -6.43,-5.05 -2.28,-3.81 -2.07,-8.61 0.33,-12.25 0.21,-0.33 0.44,-0.65 0.7,-0.96 0.14,-0.17 0.29,-0.34 0.44,-0.51l0.1 0 0 -0.1 0.12 -0.12 0.11 0 0 -0.12 0.11 -0.11 0.11 0 0 -0.1 0.14 -0.13 0.09 0 0 -0.08 0.17 -0.14 0.06 0 0 -0.05 0.21 -0.18 0.01 0 0 -0.01c0.42,-0.33 0.86,-0.63 1.32,-0.9l0.04 0 0 -0.03c0.12,-0.06 0.24,-0.13 0.36,-0.19l0.1 0 0 -0.06c0.11,-0.06 0.23,-0.11 0.35,-0.17l0.1 0 0 -0.05c0.13,-0.06 0.27,-0.12 0.4,-0.18l0.06 0 0 -0.02c0.28,-0.12 0.56,-0.22 0.85,-0.32 0.36,-0.12 0.74,-0.22 1.11,-0.3l0.17 -0.04 0.13 0 0 -0.03c0.52,-0.1 1.05,-0.16 1.58,-0.19l0.47 0 0 -0.02 0.11 0 0.15 0 0.19 0 0 0.02 0.4 0c0.55,0.03 1.1,0.1 1.64,0.21l0 0.01 0.05 0c0.29,0.06 0.57,0.14 0.86,0.22l0 0.01 0.02 0c0.22,0.07 0.44,0.14 0.66,0.22l0 0.01 0.01 0 0.06 0.02c1.98,0.75 3.66,2.01 4.92,3.59l0 0.02 0.01 0c0.2,0.25 0.39,0.51 0.57,0.78 1.22,1.82 1.93,3.99 1.97,6.28 0.01,0.03 0.01,0.06 0.01,0.09 0,0.03 0,0.06 -0.01,0.09 -0.11,5.38 -3.96,10.23 -9.34,11.2 -0.69,0.12 -1.38,0.18 -2.07,0.18zm-476.97 -200.42c-3.2,0 -6.29,1.72 -7.95,4.5 -1.96,3.28 -1.67,7.59 0.76,10.56 1.79,2.18 4.47,3.39 7.2,3.39 1.05,0 2.1,-0.18 3.11,-0.55 3.65,-1.31 6.02,-4.83 6.07,-8.67 -0.06,-4.41 -3.17,-8.24 -7.54,-9.07 -0.55,-0.11 -1.1,-0.16 -1.65,-0.16zm11.46 9.23l0 0zm-11.41 11.47c-4.01,0 -7.85,-2.06 -9.96,-5.59 -2.48,-4.15 -2,-9.48 1.03,-13.2 2.18,-2.67 5.53,-4.16 8.91,-4.16 1.34,0 2.68,0.23 3.95,0.72 4.46,1.69 7.38,5.93 7.48,10.68 0,0.02 0,0.05 0,0.08 0,0.03 0,0.06 0,0.09 -0.11,5.38 -3.96,10.23 -9.34,11.2 -0.69,0.12 -1.38,0.18 -2.07,0.18zm233.87 -461.01l0 0zm-9.33 -8.96c-0.16,-0.05 -0.32,-0.08 -0.48,-0.11 -0.55,-0.11 -1.11,-0.16 -1.66,-0.16 -3.2,0 -6.28,1.72 -7.94,4.5 -0.82,1.37 -1.25,2.92 -1.29,4.48 -0.05,1.72 0.38,3.45 1.26,4.96 0.1,0.17 0.21,0.34 0.33,0.51 0.14,0.21 0.3,0.41 0.46,0.61 1.79,2.18 4.47,3.39 7.2,3.39 1.05,0 2.1,-0.18 3.11,-0.54 3.65,-1.31 6.02,-4.84 6.07,-8.68 -0.03,-2.54 -1.09,-4.89 -2.8,-6.58 -1.02,-1 -2.27,-1.77 -3.68,-2.22 -0.19,-0.06 -0.38,-0.12 -0.58,-0.16zm-2.08 20.44c-3.5,0 -6.87,-1.58 -9.07,-4.32 -0.13,-0.15 -0.25,-0.31 -0.36,-0.47 -0.19,-0.26 -0.36,-0.53 -0.53,-0.81 -0.96,-1.6 -1.47,-3.37 -1.57,-5.17 -0.16,-2.85 0.74,-5.75 2.6,-8.03 2.18,-2.67 5.53,-4.16 8.91,-4.16 1.21,0 2.42,0.19 3.59,0.59 0.12,0.04 0.24,0.08 0.36,0.13 0.06,0.02 0.12,0.05 0.18,0.07 1.79,0.71 3.31,1.84 4.51,3.23 1.71,2.02 2.73,4.61 2.79,7.38 0,0.03 0,0.05 0,0.08 0,0.03 0,0.06 0,0.09 -0.12,5.38 -3.96,10.23 -9.35,11.2 -0.68,0.13 -1.38,0.19 -2.06,0.19zm25.28 284.07c-3.2,0 -6.28,1.72 -7.95,4.5 -1.96,3.28 -1.67,7.59 0.76,10.56 1.79,2.18 4.47,3.39 7.21,3.39 1.04,0 2.09,-0.18 3.11,-0.54 3.65,-1.31 6.01,-4.84 6.07,-8.68 -0.06,-4.41 -3.18,-8.23 -7.54,-9.07 -0.55,-0.11 -1.11,-0.16 -1.66,-0.16zm11.47 9.23l0 0zm-11.42 11.48c-4.01,0 -7.85,-2.07 -9.96,-5.6 -2.47,-4.15 -2,-9.48 1.03,-13.2 2.18,-2.67 5.54,-4.16 8.92,-4.16 1.33,0 2.67,0.23 3.95,0.72 4.45,1.7 7.37,5.93 7.47,10.68 0.01,0.03 0.01,0.05 0.01,0.08 0,0.03 0,0.06 -0.01,0.09 -0.11,5.38 -3.96,10.23 -9.34,11.2 -0.69,0.13 -1.38,0.19 -2.07,0.19zm127.75 -486.92l0 0.05 0 0.01 0 0 0 0.01 0 -0.01 0 0 0 -0.01 0 -0.05zm0 0.69l0 0.02 0 0 0 0.01 0 0 0 0.01 0 0 0 0 0 0 0 0 0 -0.01 0 0 0 -0.01 0 0 0 -0.02zm0.02 -0.35l0 0zm-4.73 0.57l0.12 0.35c0.02,0.05 0.05,0.13 0.07,0.15l0.09 0.16 0.14 0.23 0.38 0.39 0.02 0.02 0.2 0.13 0.4 0.22 -0.01 -0.01 0.27 0.09 0.27 0.07c0.02,0 0.03,0 0.04,0l0.49 0.02 0.15 -0.01c0.03,-0.01 0.09,-0.02 0.12,-0.02l0.45 -0.13 0.14 -0.05 -0.02 0 0.16 -0.09 0.32 -0.2c0.04,-0.04 0.11,-0.09 0.12,-0.1l0.14 -0.13 0.15 -0.17c0,-0.01 0.01,-0.01 0.01,-0.01 0,0 0.01,-0.01 0.01,-0.02l0.28 -0.47 0 0.01 0.1 -0.26 0.1 -0.45c0,0 0,0 0,0l0.02 -0.29 -0.03 -0.36c0,-0.01 0,-0.01 0,-0.02l-0.15 -0.54c-0.01,-0.02 -0.01,-0.03 -0.01,-0.04 -0.01,-0.01 -0.02,-0.02 -0.03,-0.04l-0.13 -0.24 -0.15 -0.23c-0.01,-0.01 -0.01,-0.02 -0.02,-0.03 -0.01,-0.01 -0.02,-0.02 -0.03,-0.03l-0.32 -0.32 0.01 0 -0.15 -0.11 -0.15 -0.1 -0.29 -0.15c0,0 0,-0.01 -0.01,-0.01 0,0 -0.01,0 -0.02,-0.01l-0.55 -0.15c-0.01,0 -0.03,0 -0.04,-0.01 -0.01,0 -0.02,0 -0.04,0l-0.24 -0.01 -0.25 0.01 -0.14 0 -0.13 0.03 -0.18 0.05 -0.04 0.01 -0.23 0.07 -0.35 0.2 -0.12 0.07 -0.11 0.08 -0.09 0.09 -0.32 0.33 -0.02 0.02 -0.12 0.2 -0.14 0.24c-0.01,0.02 -0.01,0.03 -0.02,0.04 0,0.01 -0.01,0.02 -0.01,0.04l-0.13 0.45 -0.02 0.1 0 0.01 -0.01 0.01 0 0.01 0 0.01 0 0.02 -0.01 0.01 0 0.02 0 -0.02 0.01 -0.01 0 -0.02 0 -0.01 0 -0.01 0.01 -0.01 0 -0.01 0.01 -0.03c0,0 -0.03,0.16 -0.03,0.2l0 0.18 0 0.26c0.01,0.04 0.01,0.07 0.01,0.09 0,0.01 0,0.02 0.01,0.04l0.04 0.18 0 0.02zm2.38 4.07c-1.45,0 -2.83,-0.63 -3.73,-1.78 -0.07,-0.09 -0.14,-0.19 -0.21,-0.3 -0.04,-0.06 -0.08,-0.12 -0.12,-0.18 -1.03,-1.72 -0.78,-3.89 0.47,-5.41 0.85,-1.05 2.22,-1.64 3.57,-1.64 0.04,0 0.08,0 0.12,0 0.14,0.01 0.29,0.02 0.43,0.03 0.34,0.04 0.67,0.13 0.99,0.24 1.82,0.69 3.04,2.38 3.09,4.33 0,0.02 0,0.04 0,0.07 0,0.02 0,0.05 0,0.07 -0.07,2.13 -1.59,4.11 -3.73,4.49 -0.3,0.05 -0.59,0.08 -0.88,0.08zm-151.98 605.69c0,0.04 0,0.05 0,0.05 0,0 0,-0.02 0,-0.05zm0.01 0.32l0 0zm-2.74 2.38c0,0 0,0 0,0l0.49 0.01 0.15 -0.01c0.03,0 0.1,-0.01 0.13,-0.02l0.45 -0.13 0.13 -0.04 -0.01 0 0.16 -0.09 0.32 -0.21c0.04,-0.03 0.11,-0.09 0.12,-0.1l0.13 -0.13 0.16 -0.17c0,0 0,0 0.01,-0.01 0,0 0.01,-0.01 0.01,-0.01l0.28 -0.48 0 0.02 0.1 -0.27 0.1 -0.44c0,0 0,0 0,0l0.01 -0.3 -0.02 -0.34c0,-0.01 0,-0.03 0,-0.03l-0.16 -0.55c0,-0.01 0,-0.02 -0.01,-0.04 0,0 -0.01,-0.02 -0.02,-0.03l-0.13 -0.24 -0.15 -0.24c-0.01,-0.01 -0.01,-0.01 -0.02,-0.02 -0.01,-0.01 -0.02,-0.02 -0.03,-0.04l-0.33 -0.32 0.02 0 -0.15 -0.1 -0.16 -0.1 -0.28 -0.16c-0.01,0 -0.01,0 -0.01,0 -0.01,0 -0.02,-0.01 -0.02,-0.01l-0.55 -0.15c-0.02,0 -0.03,-0.01 -0.04,-0.01 -0.01,0 -0.02,0 -0.04,0l-0.24 -0.01 -0.25 0 -0.14 0.01 -0.13 0.03 -0.18 0.04 -0.27 0.09 -0.47 0.27 -0.11 0.07 -0.1 0.09 -0.31 0.34 -0.02 0.02 -0.13 0.2 -0.13 0.24c-0.01,0.01 -0.01,0.03 -0.02,0.04 0,0.01 -0.01,0.02 -0.01,0.03l-0.13 0.45 -0.03 0.14 0 0.01 -0.01 0.01 0 0.01 0 0.02 0 -0.02 0 -0.01 0.01 -0.01 0 -0.01c0.01,-0.04 0.01,-0.06 0.01,-0.06 0.01,0 -0.02,0.16 -0.02,0.19l0 0.45c0,0.04 0.01,0.06 0.01,0.08 0,0.01 0,0.03 0.01,0.04l0.04 0.19 0.12 0.37c0.02,0.04 0.05,0.13 0.06,0.14l0.09 0.17 0.15 0.23 0.38 0.38 0.02 0.02 0.19 0.14 0.4 0.21 0.27 0.09 0.27 0.06c0.01,0.01 0.02,0.01 0.03,0.01zm0.4 2.27c-1.64,0 -3.19,-0.81 -4.06,-2.27 -1.03,-1.72 -0.78,-3.88 0.46,-5.4 0.86,-1.05 2.22,-1.64 3.57,-1.64 0.53,0 1.05,0.09 1.54,0.27 0.52,0.2 0.99,0.47 1.4,0.81 0.46,0.39 0.85,0.86 1.13,1.39 0.35,0.64 0.55,1.36 0.57,2.13 0,0.02 0,0.04 0,0.06 0,0.03 0,0.05 0,0.08 -0.02,0.74 -0.22,1.46 -0.57,2.11 -0.28,0.54 -0.67,1.02 -1.13,1.41 -0.57,0.48 -1.26,0.83 -2.03,0.97 -0.3,0.05 -0.59,0.08 -0.88,0.08zm-137.75 -159.8c0,0.04 0,0.06 0.01,0.06 0,0 -0.01,-0.03 -0.01,-0.06l0 0zm0 0.67c0,0.03 0,0.05 0,0.05 0,0 0,-0.01 0,-0.05zm-4.57 0.66l0 0 0 0zm0.29 0.46l0 0zm1.56 0.91l0.49 0.02 0.16 -0.02c0.03,0 0.08,-0.01 0.11,-0.01l0.45 -0.13 0.14 -0.05 -0.02 0 0.16 -0.09 0.32 -0.2c0.04,-0.03 0.11,-0.09 0.12,-0.1l0.13 -0.13 0.16 -0.17c0,-0.01 0.01,-0.01 0.01,-0.01 0,-0.01 0.01,-0.01 0.01,-0.02l0.28 -0.48 0 0.02 0.1 -0.26 0.1 -0.44c0,-0.01 0,-0.01 0,-0.01l0.01 -0.29 0 0 0 0 -0.02 -0.35c0,-0.01 0,-0.02 0,-0.03l-0.15 -0.54c-0.01,-0.02 -0.01,-0.03 -0.01,-0.04 -0.01,-0.01 -0.02,-0.02 -0.03,-0.04l-0.13 -0.24 -0.15 -0.23c-0.01,-0.01 -0.01,-0.02 -0.01,-0.02 -0.01,-0.01 -0.03,-0.03 -0.04,-0.04l-0.32 -0.32 0.01 0 -0.15 -0.11 -0.16 -0.1 -0.28 -0.15c-0.01,0 -0.01,-0.01 -0.01,-0.01 -0.01,0 -0.01,0 -0.02,0l-0.55 -0.16c-0.01,0 -0.03,0 -0.04,-0.01 -0.01,0 -0.02,0 -0.04,0l-0.24 -0.01 -0.25 0.01 -0.14 0.01 -0.13 0.02 -0.19 0.05 -0.26 0.09 -0.47 0.26 -0.11 0.08 -0.1 0.09 -0.31 0.33 -0.02 0.03 -0.12 0.19 -0.14 0.24c0,0.02 -0.01,0.03 -0.02,0.04 0,0.01 0,0.02 -0.01,0.04l-0.13 0.45 -0.03 0.12c0.01,-0.03 0.01,-0.05 0.01,-0.05 0.01,0 -0.02,0.16 -0.02,0.2l0 0.44c0,0.04 0.01,0.07 0.01,0.09 0,0.01 0,0.02 0.01,0.04l0.04 0.19 0.12 0.37c0.02,0.04 0.06,0.12 0.06,0.14l0.1 0.16 0.14 0.22 0.38 0.39 0.02 0.03 0.19 0.13 0.41 0.22 -0.01 -0.01 0.26 0.09 0.28 0.07c0.02,0 0.03,0 0.04,0zm-1.39 1.94l0 -0.02 -0.03 0c-0.79,-0.31 -1.49,-0.84 -2.01,-1.55l0 -0.03 -0.02 0c-0.08,-0.11 -0.15,-0.22 -0.22,-0.34 -0.19,-0.31 -0.34,-0.65 -0.44,-0.99l0 -0.03 -0.01 0c-0.25,-0.82 -0.25,-1.68 -0.04,-2.5l0.05 0 0 -0.17c0.1,-0.33 0.23,-0.65 0.4,-0.96l0.05 0 0 -0.09c0.13,-0.23 0.28,-0.45 0.45,-0.66 0.48,-0.58 1.11,-1.02 1.8,-1.3l0.02 0 0 0c0.56,-0.22 1.16,-0.34 1.76,-0.34l0.04 0c0.23,0 0.47,0.02 0.69,0.06l0 0.06 0.29 0c0.18,0.04 0.35,0.09 0.52,0.15 0.19,0.08 0.37,0.16 0.55,0.26l0 0.04 0.09 0c0.85,0.47 1.53,1.19 1.95,2.04l0 0 0.01 0c0.22,0.46 0.38,0.95 0.45,1.47l0 0.12 0.01 0c0.02,0.13 0.03,0.27 0.03,0.4l0 0.14c0,0.12 -0.01,0.25 -0.02,0.37l-0.02 0 0 0.13c-0.07,0.51 -0.22,1 -0.45,1.46l-0.01 0 0 0.01c-0.48,1 -1.3,1.82 -2.33,2.25l-0.16 0 0 0.07c-0.24,0.09 -0.49,0.16 -0.74,0.2 -0.28,0.05 -0.57,0.08 -0.85,0.08l-0.04 0c-0.61,0 -1.21,-0.11 -1.77,-0.33z"/>
   <path fill="#F5B2B6" d="M274.71 578.45c-15.38,-15.83 -28.81,-33.57 -39.78,-52.73 -21.78,-38.05 -33.25,-81.82 -31.77,-125.7 1.73,-51.36 19.31,-101.19 45.42,-145.1 5.42,-9.11 11.21,-18.01 17.32,-26.69 0.02,-0.03 0.05,-0.06 0.08,-0.08 2.08,-2.92 5.38,-7.54 7.05,-9.79 1.28,-1.71 4.16,-5.48 5.84,-7.67l0.03 -0.05c19.93,-25.72 42.36,-49.43 65.89,-71.87 27.2,-25.93 57.32,-51.62 76.85,-84.17 0,-0.03 0.02,-0.07 0.04,-0.11 0.32,-0.56 3.7,-6.59 4.94,-8.8 3.06,-5.91 5.72,-12.02 7.91,-18.3 2.81,-8.05 4.79,-16.41 5.92,-24.85 0.01,-0.06 0.03,-0.1 0.06,-0.15 0.27,-0.35 0.54,-0.7 0.8,-1.05 0.08,-0.11 0.23,-0.15 0.35,-0.09 0.13,0.05 0.21,0.18 0.19,0.31 -1.92,14.59 -6.41,29.07 -13.09,42.19l-0.61 1.18 0 0 0 0.01 -0.01 0.01c-0.34,0.65 -0.68,1.3 -1.03,1.95 -0.03,0.06 -0.08,0.1 -0.13,0.13l-4.09 7.24c0,0.05 -0.01,0.1 -0.04,0.14l-0.55 0.9 -0.04 0.08 -0.02 0.03c-22.57,37.06 -57.22,64.82 -87.76,94.96 -19.16,18.89 -37.4,38.79 -53.94,60.03l-0.01 0.01 -0.07 0.09c-1.37,1.79 -4.66,6.09 -5.95,7.81 -2.16,2.9 -6.51,8.98 -8.61,11.93l-0.01 0.02 0 0 -0.01 0.01c-8.85,12.7 -17.04,25.85 -24.37,39.48 -24.74,46.01 -39.76,98.32 -37.01,150.86 2.26,43.16 17.39,84.96 41.51,120.69 8.63,12.79 18.4,24.82 29.13,35.92 0.05,0.06 0.08,0.13 0.08,0.21l0 0.8c0,0.13 -0.07,0.23 -0.19,0.28 -0.11,0.05 -0.24,0.02 -0.32,-0.07zm195.61 80.48c-6.46,0 -12.92,-0.21 -19.36,-0.63 -22.36,-1.44 -44.57,-5.44 -65.97,-12.08 -0.13,-0.04 -0.21,-0.16 -0.21,-0.29l0 -0.54c0,-0.1 0.04,-0.18 0.12,-0.24 0.08,-0.06 0.17,-0.07 0.26,-0.05 27.51,8.54 56.37,12.66 85.16,12.66 2.92,0 5.83,-0.04 8.75,-0.13 22.71,-0.66 45.35,-3.84 67.39,-9.4l0.11 -0.03 0.01 0c11.76,-3.05 24.89,-7.16 36.18,-11.53 8.16,-3.15 21.26,-9.18 29.73,-13.31 2.1,-1.08 4.2,-2.19 6.27,-3.32 2.03,-1.1 7.5,-4.23 10.64,-6.04 9.75,-5.81 22.51,-14.6 32.01,-21.64l0.05 -0.04c7.33,-5.6 17.39,-14.17 24.69,-20.74 0.02,-0.03 0.04,-0.06 0.06,-0.08 1.96,-1.81 5.61,-5.31 7.81,-7.44l0.05 -0.05 0.05 -0.04c1.92,-1.9 5.23,-5.26 7.14,-7.22l0.02 -0.02 0.03 -0.03 0.05 -0.05 0.02 -0.02c0.8,-0.83 1.6,-1.67 2.39,-2.5 0.08,-0.1 0.21,-0.12 0.33,-0.08 0.11,0.05 0.18,0.16 0.18,0.28l0 0.82c0,0.08 -0.02,0.15 -0.08,0.21 -0.66,0.7 -1.33,1.4 -2,2.1l-0.02 0.02 0 0 -0.05 0.05 -0.04 0.04 0 0 -0.71 0.74c-0.08,0.08 -0.16,0.16 -0.24,0.24 -0.02,0.03 -0.04,0.04 -0.06,0.06 -1.82,1.84 -4.34,4.4 -6.11,6.15l-0.03 0.04 -0.13 0.13 -0.08 0.07 -0.62 0.62c-0.02,0.01 -0.04,0.03 -0.07,0.04 -1.75,1.7 -4.2,4.04 -6.15,5.86l0 0.02c-0.02,0.05 -0.05,0.08 -0.08,0.12 -6.66,6.02 -16.33,14.31 -24,20.31l-0.01 0.02c-0.03,0.05 -0.06,0.09 -0.1,0.12l-1.74 1.29 -0.66 0.51c-0.03,0.02 -0.06,0.03 -0.09,0.04 -9.16,6.74 -21.24,15.03 -30.9,20.85l-0.02 0.02 -0.3 0.17c-0.68,0.4 -1.34,0.79 -1.98,1.17 -0.05,0.03 -0.11,0.04 -0.16,0.04 -4.37,2.47 -10.58,5.92 -14.95,8.22l-0.04 0.04 -0.45 0.22 -0.04 0.02c-0.61,0.31 -1.18,0.61 -1.7,0.87 -0.05,0.02 -0.11,0.03 -0.16,0.03 -5.54,2.67 -14.24,6.8 -18.71,8.68 -2.78,1.17 -5.59,2.3 -8.41,3.4 -11.4,4.41 -24.65,8.57 -36.55,11.64l-0.04 0.02 -0.41 0.1 -0.16 0.04 -0.01 0 -0.01 0.01c-24.79,6.22 -50.33,9.44 -75.89,9.44zm-86.47 -13.07c-21.98,-6.93 -43.05,-16.64 -62.43,-29.13 -16.51,-10.63 -31.82,-23.12 -45.58,-37.12 -0.06,-0.06 -0.08,-0.13 -0.08,-0.21l0 -0.8c0,-0.12 0.07,-0.23 0.18,-0.27 0.12,-0.05 0.24,-0.02 0.33,0.06 18.99,19.41 40.96,35.93 65,48.59 13.68,7.21 28.02,13.13 42.76,17.77 0.13,0.04 0.21,0.15 0.21,0.29l0 0.54c0,0.09 -0.04,0.18 -0.12,0.24 -0.08,0.05 -0.17,0.07 -0.27,0.04z"/>
  </g>
 </g>
</svg>
