<?xml version="1.0" encoding="UTF-8"?>
<!DOCTYPE svg PUBLIC "-//W3C//DTD SVG 1.1//EN" "http://www.w3.org/Graphics/SVG/1.1/DTD/svg11.dtd">
<!-- Creator: CorelDRAW 2019 (64 Bit) -->
<svg xmlns="http://www.w3.org/2000/svg" xml:space="preserve" width="254px" height="96px" version="1.1" shape-rendering="geometricPrecision" text-rendering="geometricPrecision" image-rendering="optimizeQuality" fill-rule="evenodd" clip-rule="evenodd"
viewBox="0 0 252.1 94.86"
 xmlns:xlink="http://www.w3.org/1999/xlink">
 <g id="Camada_x0020_1">
  <metadata id="CorelCorpID_0Corel-Layer"/>
  <g id="_2213734942944">
   <rect fill="none" width="252.1" height="94.86"/>
   <g>
    <g>
     <path id="path2356" fill="#939598" fill-rule="nonzero" d="M106.59 85.24c0,0.85 -0.69,1.54 -1.54,1.54 -0.85,0 -1.54,-0.69 -1.54,-1.54l3.08 0zm0 -49.99l0 49.99 -3.08 0 0 -49.99 0 0 3.08 0zm-3.08 0c0,-0.85 0.69,-1.54 1.54,-1.54 0.85,0 1.54,0.69 1.54,1.54l-3.08 0zm18.2 -18.19l-0.01 3.08 0.01 0 -0.78 0.02 -0.77 0.05 -0.76 0.1 -0.74 0.13 -0.73 0.17 -0.72 0.2 -0.7 0.24 -0.69 0.27 -0.67 0.31 -0.65 0.33 -0.63 0.36 -0.62 0.4 -0.59 0.42 -0.57 0.45 -0.55 0.47 -0.52 0.5 -0.5 0.53 -0.48 0.55 -0.45 0.57 -0.42 0.59 -0.39 0.61 -0.37 0.64 -0.33 0.65 -0.3 0.67 -0.27 0.68 -0.24 0.71 -0.21 0.71 -0.16 0.73 -0.14 0.75 -0.09 0.75 -0.06 0.77 -0.02 0.78 -3.08 0 0.02 -0.93 0.07 -0.93 0.12 -0.91 0.16 -0.89 0.2 -0.88 0.25 -0.87 0.28 -0.84 0.33 -0.83 0.37 -0.81 0.4 -0.78 0.44 -0.76 0.47 -0.74 0.51 -0.71 0.53 -0.69 0.58 -0.66 0.6 -0.63 0.63 -0.61 0.66 -0.57 0.69 -0.54 0.71 -0.51 0.74 -0.47 0.76 -0.44 0.79 -0.4 0.8 -0.36 0.83 -0.33 0.85 -0.28 0.86 -0.25 0.88 -0.2 0.9 -0.16 0.91 -0.12 0.92 -0.07 0.94 -0.02 0 0zm0 0c0.85,0 1.54,0.69 1.54,1.54 0,0.85 -0.69,1.54 -1.54,1.54l0 -3.08zm14.75 3.1l-14.76 -0.02 0.01 -3.08 14.76 0.02 0 0 -0.01 3.08zm0.01 -3.08c0.85,0 1.54,0.69 1.53,1.54 0,0.85 -0.69,1.54 -1.54,1.54l0.01 -3.08zm18.13 18.17l-3.08 0 0 0 -0.02 -0.78 -0.06 -0.77 -0.09 -0.75 -0.13 -0.74 -0.17 -0.73 -0.2 -0.71 -0.24 -0.7 -0.27 -0.69 -0.3 -0.66 -0.33 -0.65 -0.37 -0.64 -0.39 -0.61 -0.42 -0.59 -0.44 -0.57 -0.48 -0.55 -0.5 -0.52 -0.52 -0.5 -0.55 -0.48 -0.57 -0.44 -0.59 -0.42 -0.61 -0.4 -0.63 -0.36 -0.65 -0.33 -0.66 -0.31 -0.69 -0.27 -0.7 -0.24 -0.71 -0.2 -0.73 -0.17 -0.74 -0.13 -0.76 -0.1 -0.76 -0.06 -0.78 -0.02 0.01 -3.08 0.93 0.02 0.92 0.08 0.91 0.11 0.89 0.16 0.88 0.21 0.86 0.25 0.84 0.28 0.83 0.33 0.8 0.36 0.78 0.4 0.76 0.44 0.74 0.48 0.71 0.5 0.68 0.54 0.66 0.57 0.63 0.6 0.6 0.63 0.57 0.66 0.54 0.69 0.5 0.71 0.48 0.74 0.43 0.76 0.4 0.78 0.37 0.8 0.32 0.83 0.29 0.84 0.24 0.87 0.2 0.87 0.16 0.9 0.12 0.91 0.07 0.92 0.02 0.93 0 0zm0 0c0,0.85 -0.69,1.54 -1.54,1.54 -0.85,0 -1.54,-0.69 -1.54,-1.54l3.08 0zm-3.08 10.64l0 -10.64 3.08 0 0 10.64 0 0 -3.08 0zm3.08 0c0,0.85 -0.69,1.54 -1.54,1.54 -0.85,0 -1.54,-0.69 -1.54,-1.54l3.08 0zm-18.19 18.19l0 -3.08 0 0 0.78 -0.02 0.76 -0.06 0.76 -0.09 0.75 -0.13 0.73 -0.17 0.71 -0.21 0.7 -0.23 0.69 -0.27 0.67 -0.31 0.65 -0.33 0.63 -0.36 0.62 -0.4 0.59 -0.42 0.57 -0.45 0.55 -0.47 0.53 -0.5 0.5 -0.53 0.47 -0.55 0.45 -0.57 0.42 -0.59 0.39 -0.61 0.37 -0.64 0.33 -0.65 0.3 -0.67 0.28 -0.68 0.23 -0.71 0.21 -0.71 0.17 -0.73 0.13 -0.75 0.09 -0.75 0.06 -0.77 0.02 -0.78 3.08 0 -0.02 0.93 -0.07 0.93 -0.12 0.91 -0.16 0.89 -0.2 0.88 -0.25 0.87 -0.28 0.84 -0.33 0.83 -0.36 0.81 -0.41 0.78 -0.43 0.76 -0.48 0.74 -0.5 0.72 -0.54 0.68 -0.57 0.66 -0.61 0.63 -0.63 0.61 -0.66 0.57 -0.69 0.54 -0.71 0.5 -0.74 0.48 -0.76 0.44 -0.78 0.4 -0.81 0.36 -0.83 0.33 -0.84 0.28 -0.87 0.25 -0.88 0.2 -0.89 0.16 -0.92 0.12 -0.92 0.07 -0.93 0.02 0 0zm0 0c-0.85,0 -1.54,-0.69 -1.54,-1.54 0,-0.85 0.69,-1.54 1.54,-1.54l0 3.08zm-20.86 -3.08l20.86 0 0 3.08 -20.86 0 0 -3.08zm0 3.08c-0.85,0 -1.54,-0.69 -1.54,-1.54 0,-0.85 0.69,-1.54 1.54,-1.54l0 3.08z"/>
    </g>
    <g>
     <path id="path2360" fill="#939598" fill-rule="nonzero" d="M157.19 20.13c-0.85,0 -1.54,-0.69 -1.54,-1.54 0,-0.85 0.69,-1.54 1.54,-1.54l0 3.08zm6.4 0l-6.4 0 0 -3.08 6.4 0 0 0 0 3.08zm0 -3.08c0.85,0 1.54,0.69 1.54,1.54 0,0.85 -0.69,1.54 -1.54,1.54l0 -3.08zm8.37 8.37l-3.08 0 0 0 0 -0.27 -0.02 -0.27 -0.04 -0.26 -0.04 -0.27 -0.06 -0.25 -0.07 -0.25 -0.09 -0.25 -0.09 -0.24 -0.11 -0.23 -0.11 -0.23 -0.13 -0.22 -0.14 -0.22 -0.15 -0.2 -0.16 -0.2 -0.16 -0.2 -0.18 -0.18 -0.18 -0.18 -0.19 -0.16 -0.2 -0.16 -0.21 -0.15 -0.22 -0.13 -0.22 -0.13 -0.23 -0.12 -0.23 -0.1 -0.24 -0.1 -0.25 -0.08 -0.25 -0.07 -0.25 -0.06 -0.26 -0.05 -0.27 -0.03 -0.27 -0.02 -0.27 -0.01 0 -3.08 0.43 0.01 0.42 0.03 0.42 0.06 0.41 0.07 0.41 0.09 0.4 0.12 0.39 0.13 0.38 0.15 0.37 0.17 0.36 0.18 0.35 0.2 0.34 0.22 0.33 0.23 0.31 0.25 0.31 0.27 0.29 0.27 0.28 0.29 0.26 0.31 0.25 0.31 0.23 0.33 0.22 0.34 0.2 0.35 0.19 0.36 0.16 0.37 0.15 0.38 0.14 0.39 0.11 0.4 0.09 0.41 0.08 0.41 0.05 0.42 0.03 0.43 0.01 0.42 0 0zm0 0c0,0.85 -0.69,1.54 -1.54,1.54 -0.85,0 -1.54,-0.69 -1.54,-1.54l3.08 0zm-3.08 37.35l0 -37.35 3.08 0 0 37.35 -3.08 0zm3.08 0c0,0.85 -0.69,1.54 -1.54,1.54 -0.85,0 -1.54,-0.69 -1.54,-1.54l3.08 0z"/>
    </g>
    <g>
     <path id="path2364" fill="#32BCAD" fill-rule="nonzero" d="M169.05 12.8l-2.9 -2.9c-0.72,-0.72 -0.72,-1.89 0,-2.61l2.9 -2.9c0.72,-0.72 1.89,-0.72 2.61,0l2.9 2.9c0.72,0.72 0.72,1.89 0,2.61l-2.9 2.9c-0.72,0.73 -1.89,0.73 -2.61,0l0 0zm0 0l0 0 0 0z"/>
    </g>
    <g>
     <path id="path2368" fill="#939598" fill-rule="nonzero" d="M182.71 20.1c-0.85,0 -1.54,-0.69 -1.54,-1.54 0,-0.85 0.69,-1.54 1.54,-1.54l0 3.08zm6.35 0l-6.35 0 0 -3.08 6.35 0 0 0 0 3.08zm0 -3.08c0.85,0 1.54,0.69 1.54,1.54 0,0.85 -0.69,1.54 -1.54,1.54l0 -3.08zm9.79 4.05l-2.17 2.18 0 0 -0.2 -0.19 -0.19 -0.18 -0.2 -0.17 -0.2 -0.17 -0.21 -0.17 -0.21 -0.16 -0.22 -0.15 -0.21 -0.15 -0.23 -0.15 -0.22 -0.13 -0.23 -0.14 -0.23 -0.12 -0.23 -0.13 -0.24 -0.11 -0.24 -0.11 -0.24 -0.1 -0.24 -0.1 -0.25 -0.09 -0.25 -0.09 -0.25 -0.08 -0.25 -0.07 -0.26 -0.07 -0.25 -0.06 -0.26 -0.06 -0.26 -0.04 -0.26 -0.05 -0.27 -0.03 -0.26 -0.03 -0.26 -0.02 -0.27 -0.02 -0.27 -0.01 -0.26 0 0 -3.08 0.34 0 0.34 0.01 0.35 0.03 0.34 0.02 0.34 0.04 0.33 0.05 0.34 0.05 0.33 0.07 0.33 0.07 0.34 0.08 0.32 0.08 0.33 0.1 0.32 0.1 0.32 0.11 0.31 0.12 0.32 0.12 0.31 0.13 0.31 0.15 0.3 0.14 0.3 0.16 0.3 0.16 0.29 0.17 0.29 0.18 0.28 0.19 0.28 0.19 0.28 0.2 0.27 0.2 0.27 0.21 0.26 0.22 0.26 0.23 0.25 0.24 0.24 0.23 0 0zm0 0c0.61,0.61 0.61,1.58 0,2.18 -0.6,0.6 -1.57,0.6 -2.17,0l2.17 -2.18zm12.68 17.03l-14.85 -14.85 2.17 -2.18 14.86 14.86 0 0 -2.18 2.17zm2.18 -2.17c0.6,0.6 0.6,1.57 0,2.17 -0.61,0.61 -1.58,0.61 -2.18,0l2.18 -2.17zm4.79 0l2.17 2.17 0 0 -0.24 0.23 -0.25 0.22 -0.26 0.2 -0.26 0.18 -0.27 0.17 -0.28 0.16 -0.29 0.14 -0.29 0.12 -0.29 0.11 -0.3 0.1 -0.3 0.08 -0.31 0.07 -0.3 0.05 -0.31 0.04 -0.31 0.02 -0.31 0.01 -0.31 -0.01 -0.31 -0.02 -0.31 -0.04 -0.3 -0.05 -0.31 -0.07 -0.3 -0.08 -0.3 -0.1 -0.29 -0.11 -0.29 -0.12 -0.29 -0.14 -0.28 -0.16 -0.27 -0.17 -0.26 -0.18 -0.26 -0.2 -0.25 -0.22 -0.24 -0.23 2.18 -2.17 0.12 0.12 0.13 0.11 0.14 0.11 0.14 0.09 0.14 0.09 0.14 0.08 0.16 0.08 0.15 0.06 0.15 0.06 0.16 0.05 0.15 0.04 0.16 0.04 0.16 0.02 0.17 0.02 0.16 0.01 0.16 0.01 0.16 -0.01 0.16 -0.01 0.17 -0.02 0.16 -0.02 0.16 -0.04 0.16 -0.04 0.15 -0.05 0.15 -0.06 0.16 -0.06 0.15 -0.08 0.14 -0.08 0.14 -0.09 0.14 -0.09 0.14 -0.11 0.13 -0.11 0.13 -0.12 0 0zm0 0c0.6,-0.6 1.57,-0.6 2.17,0 0.6,0.6 0.6,1.57 0,2.17l-2.17 -2.17zm16.97 -12.62l-14.8 14.79 -2.17 -2.17 14.79 -14.8 0 0 2.18 2.18zm-2.18 -2.18c0.6,-0.6 1.58,-0.6 2.18,0 0.6,0.6 0.6,1.58 0,2.18l-2.18 -2.18zm9.8 -4.06l0 3.08 0 0 -0.27 0 -0.26 0.01 -0.27 0.02 -0.27 0.02 -0.26 0.03 -0.26 0.04 -0.26 0.04 -0.26 0.05 -0.26 0.05 -0.26 0.06 -0.25 0.07 -0.25 0.08 -0.25 0.08 -0.25 0.08 -0.25 0.09 -0.25 0.1 -0.24 0.1 -0.24 0.11 -0.23 0.12 -0.23 0.12 -0.24 0.13 -0.22 0.13 -0.23 0.14 -0.22 0.14 -0.22 0.15 -0.21 0.16 -0.21 0.16 -0.21 0.16 -0.21 0.17 -0.19 0.18 -0.2 0.18 -0.19 0.19 -2.18 -2.18 0.25 -0.24 0.25 -0.23 0.26 -0.23 0.26 -0.22 0.27 -0.21 0.27 -0.21 0.27 -0.2 0.28 -0.19 0.29 -0.19 0.29 -0.17 0.29 -0.17 0.3 -0.17 0.29 -0.15 0.31 -0.15 0.31 -0.14 0.31 -0.13 0.31 -0.13 0.32 -0.12 0.31 -0.11 0.33 -0.1 0.33 -0.09 0.32 -0.09 0.33 -0.08 0.33 -0.07 0.34 -0.06 0.33 -0.06 0.34 -0.04 0.34 -0.04 0.34 -0.03 0.34 -0.02 0.35 -0.01 0.34 -0.01 0 0zm0 0c0.85,0 1.54,0.69 1.54,1.54 0,0.85 -0.69,1.54 -1.54,1.54l0 -3.08zm5.16 3.08l-5.16 0 0 -3.08 5.16 0 0 3.08zm0 -3.08c0.85,0 1.54,0.69 1.54,1.54 0,0.85 -0.69,1.54 -1.54,1.54l0 -3.08z"/>
    </g>
    <g>
     <path id="path2372" fill="#939598" fill-rule="nonzero" d="M182.71 63.98c-0.85,0 -1.54,-0.69 -1.54,-1.54 0,-0.85 0.69,-1.54 1.54,-1.54l0 3.08zm6.35 0l-6.35 0 0 -3.08 6.35 0 0 0 0 3.08zm0 -3.08c0.85,0 1.54,0.69 1.54,1.54 0,0.85 -0.69,1.54 -1.54,1.54l0 -3.08zm7.62 -3.16l2.17 2.18 0 0 -0.24 0.24 -0.25 0.24 -0.26 0.22 -0.26 0.22 -0.27 0.22 -0.27 0.2 -0.28 0.2 -0.28 0.19 -0.28 0.19 -0.29 0.18 -0.29 0.17 -0.3 0.16 -0.3 0.15 -0.3 0.15 -0.31 0.14 -0.31 0.14 -0.32 0.12 -0.31 0.12 -0.32 0.11 -0.32 0.1 -0.33 0.1 -0.32 0.08 -0.34 0.08 -0.33 0.07 -0.33 0.07 -0.34 0.05 -0.33 0.04 -0.34 0.04 -0.34 0.03 -0.35 0.02 -0.34 0.02 -0.34 0 0 -3.08 0.26 0 0.27 -0.01 0.27 -0.02 0.26 -0.02 0.26 -0.03 0.27 -0.04 0.26 -0.04 0.26 -0.05 0.26 -0.05 0.25 -0.06 0.26 -0.07 0.25 -0.07 0.25 -0.08 0.25 -0.09 0.25 -0.09 0.24 -0.1 0.24 -0.1 0.24 -0.11 0.24 -0.12 0.23 -0.12 0.23 -0.13 0.23 -0.13 0.22 -0.14 0.23 -0.14 0.21 -0.15 0.22 -0.15 0.21 -0.16 0.21 -0.17 0.2 -0.17 0.2 -0.17 0.19 -0.19 0.2 -0.19 0 0zm0 0c0.6,-0.6 1.57,-0.6 2.17,0 0.61,0.61 0.61,1.58 0,2.18l-2.17 -2.18zm17.03 -12.67l-14.86 14.85 -2.17 -2.18 14.85 -14.85 2.18 2.18zm-2.18 -2.18c0.6,-0.6 1.57,-0.6 2.18,0 0.6,0.6 0.6,1.58 0,2.18l-2.18 -2.18zm9.14 0l-2.17 2.18 0 0 -0.13 -0.12 -0.13 -0.11 -0.14 -0.11 -0.14 -0.09 -0.14 -0.09 -0.14 -0.08 -0.15 -0.08 -0.16 -0.06 -0.15 -0.06 -0.15 -0.05 -0.16 -0.04 -0.16 -0.04 -0.16 -0.03 -0.17 -0.02 -0.16 -0.01 -0.16 0 -0.16 0 -0.16 0.01 -0.17 0.02 -0.16 0.03 -0.16 0.04 -0.15 0.04 -0.16 0.05 -0.15 0.06 -0.16 0.06 -0.15 0.08 -0.14 0.08 -0.14 0.08 -0.14 0.1 -0.13 0.11 -0.14 0.11 -0.12 0.12 -2.18 -2.18 0.24 -0.22 0.25 -0.22 0.26 -0.2 0.26 -0.18 0.27 -0.17 0.28 -0.16 0.29 -0.14 0.29 -0.13 0.29 -0.11 0.3 -0.09 0.3 -0.09 0.31 -0.06 0.3 -0.05 0.31 -0.04 0.31 -0.02 0.31 -0.01 0.31 0.01 0.31 0.02 0.31 0.04 0.3 0.05 0.31 0.06 0.3 0.09 0.3 0.09 0.29 0.11 0.29 0.13 0.29 0.14 0.28 0.16 0.27 0.16 0.26 0.19 0.26 0.2 0.25 0.22 0.24 0.22 0 0zm0 0c0.6,0.6 0.6,1.58 0,2.18 -0.6,0.6 -1.57,0.6 -2.17,0l2.17 -2.18zm12.62 16.98l-14.79 -14.8 2.17 -2.18 14.8 14.8 0 0 -2.18 2.18zm2.18 -2.18c0.6,0.6 0.6,1.58 0,2.18 -0.6,0.6 -1.58,0.6 -2.18,0l2.18 -2.18zm7.62 3.16l0 3.08 0 0 -0.34 -0.01 -0.35 -0.01 -0.34 -0.02 -0.34 -0.03 -0.34 -0.04 -0.34 -0.05 -0.33 -0.05 -0.34 -0.06 -0.33 -0.07 -0.33 -0.08 -0.32 -0.09 -0.33 -0.09 -0.33 -0.11 -0.31 -0.11 -0.32 -0.11 -0.31 -0.13 -0.31 -0.13 -0.31 -0.14 -0.31 -0.15 -0.29 -0.16 -0.3 -0.16 -0.29 -0.17 -0.29 -0.18 -0.29 -0.18 -0.28 -0.19 -0.27 -0.2 -0.27 -0.21 -0.27 -0.21 -0.26 -0.22 -0.26 -0.23 -0.25 -0.23 -0.25 -0.24 2.18 -2.18 0.19 0.19 0.2 0.18 0.19 0.17 0.21 0.18 0.21 0.16 0.21 0.16 0.21 0.16 0.22 0.15 0.22 0.14 0.23 0.14 0.22 0.13 0.24 0.13 0.23 0.12 0.23 0.11 0.24 0.11 0.24 0.11 0.25 0.09 0.25 0.09 0.25 0.09 0.25 0.08 0.25 0.07 0.25 0.07 0.26 0.06 0.26 0.06 0.26 0.05 0.26 0.04 0.26 0.03 0.26 0.03 0.27 0.03 0.27 0.01 0.26 0.01 0.27 0.01 0 0zm0 0c0.85,0 1.54,0.69 1.54,1.54 0,0.85 -0.69,1.54 -1.54,1.54l0 -3.08zm5.16 3.08l-5.16 0 0 -3.08 5.16 0 0 3.08zm0 -3.08c0.85,0 1.54,0.69 1.54,1.54 0,0.85 -0.69,1.54 -1.54,1.54l0 -3.08z"/>
    </g>
    <g>
     <path id="path2376" fill="#32BCAD" fill-rule="nonzero" d="M67.19 71.93c-3.18,0 -6.18,-1.24 -8.43,-3.5l-12.19 -12.18c-0.85,-0.86 -2.34,-0.85 -3.2,0l-12.22 12.23c-2.26,2.25 -5.26,3.49 -8.44,3.49l-2.4 0 15.43 15.43c4.82,4.82 12.63,4.82 17.45,0l15.47 -15.47 -1.47 0zm-44.48 -43.09c3.18,0 6.18,1.24 8.44,3.49l12.22 12.23c0.88,0.88 2.32,0.88 3.2,0l12.19 -12.19c2.25,-2.25 5.25,-3.49 8.43,-3.49l1.47 0 -15.47 -15.47c-4.82,-4.82 -12.63,-4.82 -17.45,0l-15.43 15.43 2.4 0zm58.75 12.84l-9.35 -9.35c-0.21,0.08 -0.43,0.13 -0.66,0.13l-4.26 0c-2.19,0 -4.35,0.89 -5.9,2.45l-12.18 12.18c-1.14,1.14 -2.64,1.71 -4.14,1.71 -1.49,0 -2.99,-0.57 -4.13,-1.71l-12.23 -12.23c-1.55,-1.55 -3.7,-2.44 -5.9,-2.44l-5.23 0c-0.22,0 -0.43,-0.06 -0.63,-0.13l-9.39 9.39c-4.81,4.82 -4.81,12.63 0,17.45l9.39 9.39c0.2,-0.08 0.41,-0.13 0.63,-0.13l5.23 0c2.2,0 4.35,-0.89 5.9,-2.45l12.23 -12.22c2.21,-2.21 6.06,-2.21 8.27,0l12.18 12.18c1.55,1.55 3.71,2.45 5.9,2.45l4.26 0c0.23,0 0.45,0.05 0.66,0.13l9.35 -9.35c4.82,-4.82 4.82,-12.63 0,-17.45l0 0zm0 0l0 0 0 0z"/>
    </g>
   </g>
  </g>
 </g>
</svg>
