<?xml version="1.0" encoding="UTF-8"?>
<!DOCTYPE svg PUBLIC "-//W3C//DTD SVG 1.1//EN" "http://www.w3.org/Graphics/SVG/1.1/DTD/svg11.dtd">
<!-- Creator: CorelDRAW 2019 (64 Bit) -->
<svg xmlns="http://www.w3.org/2000/svg" xml:space="preserve" width="65px" height="65px" version="1.1" shape-rendering="geometricPrecision" text-rendering="geometricPrecision" image-rendering="optimizeQuality" fill-rule="evenodd" clip-rule="evenodd"
viewBox="0 0 63.36 63.36"
 xmlns:xlink="http://www.w3.org/1999/xlink">
 <g id="Camada_x0020_1">
  <metadata id="CorelCorpID_0Corel-Layer"/>
  <g id="_2497550162896">
   <path fill="black" d="M10.96 21.67c-0.22,1.18 0.56,0.45 1.16,0.93 -0.1,0.83 -0.9,0.16 -2.26,0.24 -1.56,0.1 -1.37,0.09 -2.82,-0.23 -1.06,-0.24 -1.92,0.09 -1.51,1.25 0.17,0.47 0.39,0.63 0.18,1.22 -0.18,0.54 -0.46,0.71 -0.13,1.23 0.84,0.15 2.11,-2.71 4.71,0.63 1.37,1.78 0.41,3.24 2.62,4.95 0.02,0 0.05,-0.06 0.06,-0.04 0.16,0.4 -0.06,-0.16 0.37,-0.26 2.1,2.51 1.77,0.86 3.26,2.81 0.62,0.81 0.71,0.38 1.3,0.84 -0.01,0.74 -0.6,0.51 -0.09,1.25l0.65 1.03c0.6,0.71 1.44,0.4 0.89,2.27 -0.23,0.79 -1.55,4.58 0.69,4.71 0.04,-0.8 -0.34,-0.43 -0.33,-1.06 0,-0.08 0.51,-1.53 1.01,-1.81 1.12,-0.65 0.41,-0.3 0.81,-0.73 0.51,-0.57 0.28,0.35 1.49,-1.36 0.5,-0.7 1.15,-0.89 1.49,-1.47 1.17,-1.99 -0.95,-2.18 -1.36,-2.39 -0.44,-0.24 -0.46,-0.47 -0.85,-0.7 -0.76,-0.45 -0.47,0.2 -2.05,-0.8 -1.24,-0.78 -1.47,0.24 -2.24,0.03 -0.67,-0.36 -0.2,-0.43 -0.6,-0.99 -0.3,-0.23 -0.32,-0.1 -0.55,-0.27 -0.32,-0.23 -0.12,-0.18 -0.35,-0.48 -0.41,-0.54 -0.61,-0.1 -1.12,-0.55 -0.22,-0.65 0.3,-1.04 0.95,-1.03 0.78,0.02 1.34,1.55 1.48,0.43 0.05,-0.41 -0.05,0.03 0.01,-0.34 0.05,-0.28 0.06,-0.24 0.29,-0.48 0.35,-0.36 0.43,-0.48 0.75,-0.93 0.97,-1.37 1.19,-0.55 2.11,-1.21 -0.22,-0.6 -0.56,-0.23 -0.87,-0.71 0.46,-0.42 0.79,-0.08 1.57,-0.45 0.05,-0.87 -0.52,-0.64 -0.86,-1.18 -0.59,-0.93 -0.09,-0.73 -0.91,-0.38 -0.76,-0.49 -0.41,-0.96 -1.53,-0.81 -0.35,0.34 -0.24,0.58 -0.86,0.68 -0.59,0.1 -0.98,-0.12 -1.27,-0.36 -0.11,-1.18 1.44,-1.82 2.19,-1.6 0.08,0.43 -0.01,0.17 -0.06,0.67 0.45,0.05 0.55,-0.06 0.96,0.09 0.22,0.09 0.36,0.22 0.67,0.33 0.16,-0.27 0.04,-0.23 0.23,-0.43 0.31,-0.32 0.09,0.18 0.45,-0.36 -0.33,-0.38 -1.28,-1.27 -1.67,-1.48 -0.42,-0.22 -0.78,-0.22 -1.23,-0.34 -0.93,-0.27 -0.5,0.02 -1.24,0.13 -0.32,-0.21 -0.34,-0.36 -0.64,-0.49 -0.36,-0.16 -0.79,-0.14 -1.01,0.16 -0.28,0.57 0.17,0.45 0.25,1.09l-0.69 0.23c-0.63,-0.92 -0.05,-0.81 -1.4,-1.11 -0.56,-0.13 -1.51,-0.77 -2.1,-0.37zm25.56 1.67c-0.3,0.21 -0.09,0.23 -0.5,0.37 -0.43,-0.34 -1.03,-0.95 -1.56,-1.12 -1.72,-0.56 -2.32,0.65 -3.61,2 -1.21,1.27 0.7,1.17 0.82,1.22 -0.15,0.94 -0.58,0.08 -1.23,1.09 -0.46,0.71 -0.47,0.77 -1.23,1.15 -0.58,0.29 -0.75,0.69 -0.61,1.59 0.18,1.15 0.08,0.95 -0.71,1.48 -0.94,0.61 -1.38,2.09 -0.53,3.19 0.86,1.1 2.46,0.36 3.73,0.88 0.07,0.36 0.07,0.79 0.13,1.09 0.09,0.4 0.31,0.43 0.43,0.86 0.13,0.44 0.05,1.67 0.17,2.34 0.1,0.64 0.35,1.43 0.66,1.82 0.52,0.63 1.37,0.39 1.82,-0.09 0.43,-0.46 0.54,-1.06 0.74,-1.75 0.3,-0.99 0.8,-0.64 0.72,-1.68 -0.11,-1.39 -0.12,-1 0.59,-1.76 0.41,-0.44 1.02,-0.8 1.1,-1.52 -0.41,-0.2 -0.62,-0.08 -0.78,-0.56 0.38,-0.37 0.76,-0.17 1.2,-0.55 0.25,-1.06 -0.69,-1.06 -0.46,-1.91 0.86,-0.41 2.12,0.35 2.61,0.74 1.25,0.97 0.57,1.79 1.37,2.39 0.9,0.02 0.8,-0.69 1.11,-1.34 0.29,-0.59 1.11,-0.76 1.87,-0.3 0.75,0.46 0.65,0.76 1.1,1.51 0.27,0.46 0.77,1.11 1.53,0.94 1.33,-0.94 -0.92,-1.85 -0.33,-2.85 0.39,-0.45 1.99,0 1.52,-1.89 -0.44,-1.78 1.23,-0.49 1.23,-0.49 0.7,0.18 0.01,-0.47 0.23,-0.91 0.21,-0.42 0.66,-0.15 0.98,-0.7 0.27,-0.46 0.16,-0.78 0.61,-1.16 0.56,0.25 0,0.26 0.54,0.42 0.7,-0.94 -0.67,-1.16 -0.9,-1.62 0.23,-0.62 1.2,-0.43 1.9,-0.5 1.25,-0.12 0.45,-0.99 1.62,-0.75 0.18,0.9 -0.62,0.54 -0.46,1.54 0.88,0.18 0.8,-0.27 0.92,-1.06 1.03,-0.21 1.56,-0.28 1.78,-1.3 0.53,0 1.76,0.27 1.1,-0.61 -0.72,-0.95 -2.78,-0.63 -3.48,-0.82 -0.56,-0.15 -1.05,-0.4 -1.58,-0.56 -1.8,-0.54 -1.99,0.63 -3.25,-0.06 -0.68,-0.37 -0.91,-0.4 -1.76,-0.39 -1.52,0.02 -0.67,-0.22 -0.64,-0.79 -1.18,-1.03 -3.24,0.31 -4.13,0.77 -0.53,0.27 -0.88,0.27 -1.42,0.49 -1,0.41 -0.5,-0.25 -1.13,-0.06 -0.75,0.22 0.35,0.64 -1.03,0.85 -0.55,0.09 -0.93,0.17 -1.41,0.37 -0.88,0.38 -0.66,0.38 -1.39,0z"/>
   <path fill="#FBE4DE" fill-rule="nonzero" d="M31.68 0c8.74,0 16.67,3.55 22.4,9.28 5.73,5.73 9.28,13.65 9.28,22.4 0,8.75 -3.55,16.67 -9.28,22.4 -5.73,5.73 -13.66,9.28 -22.4,9.28 -8.75,0 -16.67,-3.55 -22.4,-9.28 -5.73,-5.73 -9.28,-13.65 -9.28,-22.4 0,-8.75 3.55,-16.67 9.28,-22.4 5.73,-5.73 13.65,-9.28 22.4,-9.28zm21.71 9.97c-5.55,-5.56 -13.23,-8.99 -21.71,-8.99 -8.48,0 -16.16,3.43 -21.71,8.99 -5.56,5.55 -8.99,13.23 -8.99,21.71 0,8.48 3.43,16.16 8.99,21.71 5.55,5.56 13.23,8.99 21.71,8.99 8.48,0 16.16,-3.43 21.71,-8.99 5.55,-5.55 8.99,-13.23 8.99,-21.71 0,-8.48 -3.44,-16.16 -8.99,-21.71z"/>
  </g>
 </g>
</svg>
