<?xml version="1.0" encoding="UTF-8"?>
<!DOCTYPE svg PUBLIC "-//W3C//DTD SVG 1.1//EN" "http://www.w3.org/Graphics/SVG/1.1/DTD/svg11.dtd">
<!-- Creator: CorelDRAW 2019 (64 Bit) -->
<svg xmlns="http://www.w3.org/2000/svg" xml:space="preserve" width="65px" height="65px" version="1.1" shape-rendering="geometricPrecision" text-rendering="geometricPrecision" image-rendering="optimizeQuality" fill-rule="evenodd" clip-rule="evenodd"
viewBox="0 0 63.36 63.36"
 xmlns:xlink="http://www.w3.org/1999/xlink">
 <g id="Camada_x0020_1">
  <metadata id="CorelCorpID_0Corel-Layer"/>
  <g id="_2499594157744">
   <path fill="black" fill-rule="nonzero" d="M31.68 0c8.74,0 16.67,3.55 22.4,9.28 5.73,5.73 9.28,13.65 9.28,22.4 0,8.75 -3.55,16.67 -9.28,22.4 -5.73,5.73 -13.66,9.28 -22.4,9.28 -8.75,0 -16.67,-3.55 -22.4,-9.28 -5.73,-5.73 -9.28,-13.65 -9.28,-22.4 0,-8.75 3.55,-16.67 9.28,-22.4 5.73,-5.73 13.65,-9.28 22.4,-9.28zm21.71 9.97c-5.55,-5.56 -13.23,-8.99 -21.71,-8.99 -8.48,0 -16.16,3.43 -21.71,8.99 -5.56,5.55 -8.99,13.23 -8.99,21.71 0,8.48 3.43,16.16 8.99,21.71 5.55,5.56 13.23,8.99 21.71,8.99 8.48,0 16.16,-3.43 21.71,-8.99 5.55,-5.55 8.99,-13.23 8.99,-21.71 0,-8.48 -3.44,-16.16 -8.99,-21.71z"/>
   <path fill="black" d="M50.01 13.83l-19.11 12.08 0 33.18 19.11 -12.09 0 -33.17zm-0.75 -1.27l-16.05 -8.38 -19.11 12.09 16.05 8.38 19.11 -12.09zm-35.91 5.06l0 7.63 16.05 8.33 0 -7.58 -16.05 -8.38zm0 8.5l0 7.58 16.05 8.33 0 -7.53 -16.05 -8.38zm0 8.45l0 7.69 16.05 8.33 0 -7.64 -16.05 -8.38zm0 8.56l0 7.67 16.05 8.38 0 -7.67 -16.05 -8.38zm7.7 -18.27c0.43,-0.05 0.93,0.25 1.11,0.67 0.18,0.41 -0.03,0.79 -0.47,0.83 -0.43,0.05 -0.93,-0.25 -1.1,-0.67 -0.18,-0.41 0.03,-0.79 0.46,-0.83zm0 8.47c0.43,-0.04 0.93,0.26 1.11,0.67 0.18,0.42 -0.03,0.79 -0.47,0.84 -0.43,0.04 -0.93,-0.26 -1.1,-0.67 -0.18,-0.42 0.03,-0.79 0.46,-0.84zm0 8.48c0.43,-0.04 0.93,0.26 1.11,0.67 0.18,0.42 -0.03,0.79 -0.47,0.83 -0.43,0.05 -0.93,-0.25 -1.1,-0.66 -0.18,-0.42 0.03,-0.79 0.46,-0.84zm0 8.48c0.43,-0.05 0.93,0.25 1.11,0.67 0.18,0.41 -0.03,0.79 -0.47,0.83 -0.43,0.05 -0.93,-0.25 -1.1,-0.67 -0.18,-0.41 0.03,-0.79 0.46,-0.83z"/>
  </g>
 </g>
</svg>
