<?xml version="1.0" encoding="UTF-8"?>
<!DOCTYPE svg PUBLIC "-//W3C//DTD SVG 1.1//EN" "http://www.w3.org/Graphics/SVG/1.1/DTD/svg11.dtd">
<!-- Creator: CorelDRAW 2019 (64 Bit) -->
<svg xmlns="http://www.w3.org/2000/svg" xml:space="preserve" width="65px" height="65px" version="1.1" shape-rendering="geometricPrecision" text-rendering="geometricPrecision" image-rendering="optimizeQuality" fill-rule="evenodd" clip-rule="evenodd"
viewBox="0 0 63.36 63.36"
 xmlns:xlink="http://www.w3.org/1999/xlink">
 <g id="Camada_x0020_1">
  <metadata id="CorelCorpID_0Corel-Layer"/>
  <g id="_2497550979920">
   <path fill="#FBE4DE" fill-rule="nonzero" d="M31.68 0c8.74,0 16.67,3.55 22.4,9.28 5.73,5.73 9.28,13.65 9.28,22.4 0,8.75 -3.55,16.67 -9.28,22.4 -5.73,5.73 -13.66,9.28 -22.4,9.28 -8.75,0 -16.67,-3.55 -22.4,-9.28 -5.73,-5.73 -9.28,-13.65 -9.28,-22.4 0,-8.75 3.55,-16.67 9.28,-22.4 5.73,-5.73 13.65,-9.28 22.4,-9.28zm21.71 9.97c-5.55,-5.56 -13.23,-8.99 -21.71,-8.99 -8.48,0 -16.16,3.43 -21.71,8.99 -5.56,5.55 -8.99,13.23 -8.99,21.71 0,8.48 3.43,16.16 8.99,21.71 5.55,5.56 13.23,8.99 21.71,8.99 8.48,0 16.16,-3.43 21.71,-8.99 5.55,-5.55 8.99,-13.23 8.99,-21.71 0,-8.48 -3.44,-16.16 -8.99,-21.71z"/>
   <path id="Esp.002.cdr" fill="#FBE4DE" d="M13.21 12.23l0.03 0 11.27 -0.34 -1.04 -0.78c-0.06,-0.04 -0.09,-0.13 -0.08,-0.21 0.01,-0.09 0.06,-0.16 0.14,-0.19l1.59 -0.63c0.02,-0.01 0.04,-0.01 0.06,-0.01l0 -0.01 0.03 0.01 18.66 2.46c0.14,0.02 0.19,0.05 0.29,0.18l1.07 1.23c0.03,0.04 0.04,0.09 0.01,0.13 -0.02,0.05 -0.06,0.07 -0.1,0.07l-0.14 -0.02c-0.05,-0.01 -0.09,0.02 -0.12,0.06l2.2 0.6 4.64 1.27 4.64 1.26c0.05,0.02 0.1,0.04 0.13,0.07 0.04,0.03 0.06,0.06 0.07,0.1 0.02,0.03 0.02,0.07 0.02,0.1 0,0.04 -0.01,0.07 -0.02,0.1 -0.01,0.03 -0.04,0.05 -0.07,0.07 -0.03,0.03 -0.07,0.05 -0.1,0.07 -0.04,0.02 -0.08,0.05 -0.11,0.08 -0.03,0.03 -0.05,0.07 -0.05,0.11 -0.01,0.04 0,0.07 0.02,0.11 0.01,0.03 0.04,0.06 0.06,0.09 0.03,0.04 0.05,0.07 0.07,0.1 0.02,0.03 0.03,0.06 0.02,0.09 -0.01,0.03 -0.03,0.06 -0.06,0.08 -0.03,0.03 -0.07,0.05 -0.11,0.07 -0.04,0.02 -0.09,0.04 -0.12,0.07 -0.03,0.02 -0.06,0.05 -0.07,0.08 0,0.04 0,0.08 0.02,0.11 0.02,0.03 0.04,0.06 0.07,0.09 0.02,0.03 0.04,0.06 0.06,0.09 0.01,0.04 0.02,0.08 0.01,0.13 -0.01,0.05 -0.04,0.08 -0.07,0.11 -0.03,0.03 -0.07,0.04 -0.11,0.06 -0.04,0.01 -0.08,0.03 -0.11,0.05 -0.03,0.02 -0.06,0.05 -0.07,0.09 -0.01,0.04 0.01,0.08 0.03,0.12 0.03,0.04 0.07,0.07 0.11,0.11 0.04,0.03 0.08,0.07 0.11,0.1 0.03,0.04 0.04,0.07 0.03,0.11 -0.01,0.05 -0.04,0.08 -0.09,0.11 -0.04,0.02 -0.09,0.03 -0.15,0.04 -0.05,0.01 -0.1,0.02 -0.15,0.04 -0.04,0.02 -0.07,0.04 -0.09,0.09 -0.01,0.05 0,0.08 0.03,0.12 0.02,0.03 0.06,0.05 0.1,0.08 0.03,0.02 0.07,0.05 0.1,0.07 0.03,0.03 0.04,0.06 0.03,0.1 -0.01,0.04 -0.03,0.06 -0.07,0.08 -0.04,0.02 -0.08,0.03 -0.13,0.05 -0.04,0.01 -0.09,0.02 -0.13,0.04 -0.04,0.02 -0.07,0.04 -0.07,0.08 -0.01,0.03 0,0.06 0.03,0.09 0.04,0.03 0.08,0.05 0.12,0.08 0.05,0.03 0.09,0.06 0.12,0.09 0.03,0.03 0.04,0.07 0.03,0.11 -0.02,0.05 -0.06,0.09 -0.11,0.11 -0.05,0.03 -0.11,0.05 -0.18,0.08 -0.06,0.02 -0.12,0.04 -0.17,0.08 -0.05,0.03 -0.09,0.07 -0.11,0.13 -0.01,0.06 -0.01,0.11 0.01,0.15 0.02,0.04 0.06,0.08 0.09,0.12 0.03,0.04 0.07,0.08 0.09,0.13 0.02,0.04 0.03,0.09 0.01,0.15 -0.02,0.07 -0.05,0.13 -0.09,0.17 -0.05,0.04 -0.1,0.07 -0.15,0.1 -0.05,0.03 -0.1,0.06 -0.14,0.09 -0.04,0.03 -0.07,0.07 -0.09,0.13 -0.02,0.05 -0.02,0.11 0,0.16 0.01,0.05 0.04,0.11 0.06,0.16 0.03,0.05 0.06,0.1 0.07,0.15 0.02,0.05 0.04,0.11 0.03,0.16 0,0.06 -0.03,0.11 -0.08,0.16 -0.04,0.04 -0.1,0.07 -0.15,0.1 -0.06,0.03 -0.11,0.06 -0.15,0.09 -0.05,0.02 -0.08,0.05 -0.08,0.08 -0.01,0.07 0.01,0.11 0.03,0.15 0.02,0.04 0.06,0.07 0.09,0.1 0.03,0.02 0.06,0.05 0.08,0.09 0.02,0.03 0.03,0.08 0.01,0.14 -0.01,0.04 -0.04,0.08 -0.07,0.1 -0.04,0.03 -0.08,0.04 -0.12,0.06 -0.05,0.01 -0.09,0.03 -0.12,0.05 -0.03,0.02 -0.06,0.05 -0.07,0.09 0,0.04 0,0.07 0.02,0.1 0.01,0.03 0.03,0.06 0.05,0.08 0.02,0.03 0.04,0.05 0.06,0.08 0.01,0.03 0.02,0.05 0.02,0.08 0,0.04 -0.02,0.06 -0.04,0.08 -0.03,0.02 -0.07,0.04 -0.1,0.06 -0.04,0.01 -0.08,0.03 -0.11,0.04 -0.03,0.02 -0.05,0.04 -0.05,0.06 -0.01,0.03 0,0.06 0.01,0.09 0.02,0.03 0.04,0.06 0.06,0.09 0.02,0.02 0.04,0.05 0.05,0.07 0.02,0.03 0.03,0.05 0.03,0.07 -0.01,0.03 -0.03,0.05 -0.05,0.07 -0.02,0.03 -0.05,0.04 -0.08,0.06 -0.03,0.02 -0.07,0.04 -0.09,0.05 -0.03,0.02 -0.05,0.05 -0.05,0.07 -0.01,0.03 -0.01,0.06 0,0.09 0.01,0.02 0.03,0.05 0.05,0.08 0.01,0.03 0.03,0.06 0.04,0.09 0.01,0.02 0.01,0.05 0.01,0.08 -0.01,0.03 -0.04,0.06 -0.07,0.08 -0.03,0.02 -0.07,0.04 -0.11,0.07 -0.03,0.02 -0.07,0.05 -0.1,0.08 -0.03,0.02 -0.05,0.06 -0.06,0.11 0,0.03 0,0.07 0.02,0.1 0.02,0.03 0.05,0.07 0.07,0.1 0.02,0.03 0.05,0.06 0.07,0.09 0.01,0.03 0.02,0.06 0.02,0.1 -0.01,0.03 -0.03,0.05 -0.06,0.08 -0.04,0.02 -0.08,0.04 -0.12,0.06 -0.04,0.02 -0.08,0.05 -0.11,0.07 -0.03,0.03 -0.06,0.05 -0.07,0.09 -0.01,0.04 0,0.07 0.02,0.1 0.01,0.03 0.04,0.06 0.06,0.09 0.03,0.03 0.05,0.07 0.07,0.1 0.01,0.04 0.02,0.07 0.01,0.12 -0.02,0.05 -0.04,0.09 -0.08,0.12 -0.03,0.02 -0.07,0.04 -0.11,0.05 -0.04,0.02 -0.07,0.03 -0.1,0.06 -0.04,0.02 -0.06,0.05 -0.07,0.09 -0.01,0.04 0,0.08 0.03,0.12 0.03,0.03 0.07,0.07 0.11,0.1 0.04,0.04 0.08,0.07 0.11,0.11 0.02,0.03 0.04,0.07 0.03,0.1 -0.01,0.06 -0.05,0.09 -0.09,0.11 -0.04,0.02 -0.1,0.04 -0.15,0.05 -0.05,0.01 -0.11,0.02 -0.15,0.04 -0.04,0.01 -0.08,0.04 -0.09,0.08 -0.01,0.05 0,0.09 0.02,0.12 0.03,0.03 0.06,0.06 0.1,0.08 0.04,0.03 0.08,0.05 0.1,0.08 0.03,0.03 0.05,0.05 0.04,0.09 -0.01,0.04 -0.04,0.06 -0.07,0.09 -0.04,0.01 -0.09,0.03 -0.13,0.04 -0.05,0.01 -0.1,0.03 -0.13,0.05 -0.04,0.01 -0.07,0.04 -0.08,0.07 -0.01,0.04 0.01,0.07 0.04,0.09 0.03,0.03 0.08,0.06 0.12,0.09 0.04,0.02 0.09,0.05 0.12,0.08 0.02,0.03 0.04,0.07 0.02,0.12 -0.01,0.04 -0.05,0.08 -0.1,0.11 -0.05,0.03 -0.12,0.05 -0.18,0.07 -0.06,0.02 -0.12,0.05 -0.18,0.08 -0.05,0.04 -0.09,0.08 -0.1,0.14 -0.02,0.05 -0.01,0.1 0.01,0.14 0.02,0.05 0.05,0.09 0.09,0.13 0.03,0.04 0.06,0.08 0.08,0.12 0.02,0.05 0.03,0.1 0.02,0.16 -0.02,0.07 -0.05,0.12 -0.1,0.16 -0.04,0.05 -0.09,0.08 -0.14,0.11 -0.05,0.03 -0.1,0.05 -0.14,0.09 -0.04,0.03 -0.08,0.07 -0.09,0.12 -0.02,0.06 -0.02,0.11 -0.01,0.17 0.02,0.05 0.04,0.1 0.07,0.15 0.02,0.06 0.05,0.11 0.07,0.16 0.02,0.05 0.03,0.1 0.03,0.15 -0.01,0.07 -0.04,0.12 -0.08,0.16 -0.04,0.04 -0.1,0.08 -0.15,0.11 -0.06,0.03 -0.11,0.05 -0.15,0.08 -0.05,0.03 -0.08,0.05 -0.08,0.09 -0.01,0.05 0,0.09 0.02,0.13 0.03,0.03 0.06,0.06 0.09,0.09 0.04,0.03 0.07,0.07 0.09,0.11 0.02,0.04 0.03,0.08 0.01,0.14 -0.01,0.05 -0.04,0.08 -0.08,0.11 -0.03,0.02 -0.07,0.04 -0.12,0.05 -0.04,0.02 -0.08,0.03 -0.11,0.06 -0.04,0.02 -0.06,0.04 -0.07,0.08 -0.01,0.04 0,0.07 0.01,0.1 0.02,0.04 0.03,0.06 0.05,0.09 0.02,0.02 0.05,0.05 0.06,0.07 0.02,0.03 0.03,0.06 0.03,0.09 0,0.03 -0.02,0.06 -0.05,0.08 -0.03,0.02 -0.06,0.03 -0.1,0.05 -0.03,0.02 -0.07,0.03 -0.1,0.05 -0.03,0.02 -0.05,0.03 -0.05,0.06 -0.01,0.03 0,0.06 0.01,0.09 0.01,0.03 0.03,0.05 0.05,0.08 0.03,0.03 0.04,0.05 0.06,0.08 0.02,0.02 0.02,0.04 0.02,0.07 0,0.02 -0.02,0.05 -0.04,0.07 -0.03,0.02 -0.06,0.04 -0.09,0.06 -0.03,0.01 -0.06,0.03 -0.08,0.05 -0.03,0.02 -0.05,0.04 -0.06,0.07 -0.01,0.02 0,0.05 0.01,0.08 0.01,0.03 0.02,0.06 0.04,0.09 0.02,0.02 0.04,0.05 0.05,0.08 0.01,0.03 0.01,0.06 0,0.09 -0.01,0.03 -0.03,0.05 -0.06,0.08 -0.03,0.02 -0.07,0.04 -0.11,0.06 -0.04,0.03 -0.07,0.05 -0.1,0.08 -0.03,0.03 -0.05,0.07 -0.06,0.11 -0.01,0.04 0,0.07 0.02,0.1 0.02,0.04 0.04,0.07 0.07,0.1 0.02,0.04 0.05,0.07 0.06,0.1 0.02,0.03 0.03,0.06 0.02,0.09 0,0.03 -0.03,0.06 -0.06,0.08 -0.03,0.03 -0.07,0.05 -0.11,0.07 -0.04,0.02 -0.08,0.04 -0.12,0.07 -0.03,0.02 -0.05,0.05 -0.06,0.08 -0.01,0.04 0,0.08 0.01,0.11 0.02,0.03 0.04,0.06 0.07,0.09 0.02,0.03 0.05,0.06 0.06,0.09 0.02,0.04 0.02,0.08 0.01,0.13 -0.01,0.05 -0.04,0.08 -0.07,0.11 -0.03,0.03 -0.07,0.04 -0.11,0.06 -0.04,0.01 -0.08,0.03 -0.11,0.05 -0.03,0.02 -0.05,0.05 -0.07,0.09 -0.01,0.04 0.01,0.08 0.04,0.12 0.02,0.04 0.06,0.07 0.1,0.11 0.04,0.03 0.08,0.07 0.11,0.1 0.03,0.04 0.05,0.07 0.04,0.11 -0.02,0.05 -0.05,0.08 -0.09,0.11 -0.05,0.02 -0.1,0.03 -0.15,0.04 -0.06,0.01 -0.11,0.02 -0.15,0.04 -0.05,0.02 -0.08,0.04 -0.09,0.09 -0.02,0.05 -0.01,0.08 0.02,0.12 0.02,0.03 0.06,0.05 0.1,0.08 0.04,0.02 0.07,0.05 0.1,0.07 0.03,0.03 0.04,0.06 0.04,0.1 -0.01,0.03 -0.04,0.06 -0.08,0.08 -0.03,0.02 -0.08,0.03 -0.13,0.05 -0.04,0.01 -0.09,0.02 -0.13,0.04 -0.03,0.02 -0.06,0.04 -0.07,0.08 -0.01,0.03 0.01,0.06 0.04,0.09 0.03,0.03 0.07,0.05 0.12,0.08 0.04,0.03 0.08,0.06 0.11,0.09 0.03,0.03 0.04,0.07 0.03,0.11 -0.02,0.05 -0.06,0.08 -0.11,0.11 -0.05,0.03 -0.11,0.05 -0.17,0.08 -0.07,0.02 -0.13,0.04 -0.18,0.08 -0.05,0.03 -0.09,0.07 -0.11,0.13 -0.01,0.06 0,0.11 0.02,0.15 0.02,0.04 0.05,0.08 0.08,0.12 0.04,0.04 0.07,0.08 0.09,0.13 0.02,0.04 0.03,0.09 0.01,0.15 -0.01,0.07 -0.05,0.13 -0.09,0.17 -0.04,0.04 -0.09,0.07 -0.14,0.1 -0.05,0.03 -0.1,0.06 -0.15,0.09 -0.04,0.03 -0.07,0.07 -0.09,0.13 -0.01,0.05 -0.01,0.11 0,0.16 0.01,0.05 0.04,0.11 0.06,0.16 0.03,0.05 0.06,0.1 0.08,0.15 0.02,0.05 0.03,0.11 0.03,0.16 -0.01,0.06 -0.04,0.11 -0.08,0.15 -0.04,0.05 -0.1,0.08 -0.15,0.11 -0.06,0.03 -0.11,0.06 -0.16,0.08 -0.04,0.03 -0.07,0.05 -0.08,0.09 -0.01,0.05 0,0.09 0.02,0.13 0.03,0.03 0.06,0.06 0.1,0.09 0.03,0.04 0.06,0.07 0.08,0.11 0.02,0.04 0.03,0.09 0.02,0.15 -0.02,0.04 -0.04,0.08 -0.08,0.1 -0.03,0.03 -0.08,0.04 -0.12,0.06 -0.04,0.01 -0.08,0.03 -0.12,0.05 -0.03,0.02 -0.05,0.05 -0.06,0.09 -0.01,0.04 0,0.07 0.01,0.1 0.01,0.03 0.03,0.06 0.05,0.08 0.02,0.03 0.04,0.05 0.06,0.08 0.01,0.03 0.02,0.05 0.02,0.08 0,0.03 -0.01,0.06 -0.04,0.08 -0.03,0.02 -0.06,0.04 -0.1,0.06 -0.04,0.01 -0.07,0.03 -0.1,0.04 -0.03,0.02 -0.05,0.04 -0.06,0.06 0,0.03 0,0.06 0.02,0.09 0.01,0.03 0.03,0.06 0.05,0.09 0.02,0.02 0.04,0.05 0.06,0.07 0.01,0.03 0.02,0.05 0.02,0.07 -0.01,0.03 -0.02,0.05 -0.05,0.07 -0.02,0.02 -0.05,0.04 -0.08,0.06 -0.03,0.02 -0.06,0.04 -0.09,0.05 -0.02,0.02 -0.04,0.05 -0.05,0.07 -0.01,0.03 -0.01,0.06 0,0.08 0.01,0.03 0.03,0.06 0.05,0.09 0.02,0.03 0.03,0.06 0.04,0.09 0.01,0.02 0.02,0.05 0.01,0.08 -0.01,0.03 -0.04,0.06 -0.07,0.08 -0.03,0.02 -0.07,0.04 -0.1,0.07 -0.04,0.02 -0.08,0.04 -0.11,0.08 -0.03,0.02 -0.05,0.06 -0.06,0.11 0,0.03 0.01,0.07 0.03,0.1 0.01,0.03 0.04,0.07 0.06,0.1 0.03,0.03 0.05,0.06 0.07,0.09 0.02,0.03 0.03,0.06 0.02,0.1 -0.01,0.03 -0.03,0.05 -0.06,0.08 -0.03,0.02 -0.07,0.04 -0.12,0.06 -0.04,0.02 -0.08,0.05 -0.11,0.07 -0.03,0.03 -0.06,0.05 -0.07,0.09 -0.01,0.04 0,0.07 0.02,0.1 0.02,0.03 0.04,0.06 0.06,0.09 0.03,0.03 0.05,0.06 0.07,0.1 0.01,0.03 0.02,0.07 0.01,0.12 -0.02,0.05 -0.04,0.09 -0.07,0.11 -0.04,0.03 -0.08,0.05 -0.11,0.06 -0.04,0.02 -0.08,0.03 -0.11,0.06 -0.03,0.02 -0.06,0.05 -0.07,0.09 -0.01,0.04 0,0.08 0.03,0.12 0.03,0.03 0.07,0.07 0.11,0.1 0.04,0.04 0.08,0.07 0.11,0.11 0.03,0.03 0.04,0.07 0.03,0.1 -0.01,0.06 -0.04,0.09 -0.09,0.11 -0.04,0.02 -0.1,0.04 -0.15,0.05 -0.05,0.01 -0.11,0.02 -0.15,0.03 -0.04,0.02 -0.07,0.05 -0.09,0.09 -0.01,0.05 0,0.09 0.03,0.12 0.02,0.03 0.06,0.06 0.09,0.08 0.04,0.03 0.08,0.05 0.11,0.08 0.02,0.03 0.04,0.05 0.03,0.09 -0.01,0.04 -0.03,0.06 -0.07,0.08 -0.04,0.02 -0.08,0.04 -0.13,0.05 -0.05,0.01 -0.09,0.03 -0.13,0.05 -0.04,0.01 -0.07,0.04 -0.08,0.07 -0.01,0.04 0.01,0.07 0.04,0.09 0.03,0.03 0.08,0.06 0.12,0.09 0.05,0.02 0.09,0.05 0.12,0.08 0.03,0.04 0.04,0.07 0.03,0.12 -0.02,0.04 -0.06,0.08 -0.11,0.11 -0.05,0.03 -0.11,0.05 -0.18,0.07 -0.06,0.02 -0.12,0.05 -0.17,0.08 -0.05,0.04 -0.09,0.08 -0.11,0.14 -0.01,0.05 -0.01,0.1 0.01,0.14 0.02,0.05 0.06,0.09 0.09,0.13 0.03,0.04 0.06,0.08 0.09,0.12 0.02,0.05 0.03,0.1 0.01,0.16 -0.02,0.07 -0.05,0.12 -0.09,0.16 -0.05,0.05 -0.1,0.08 -0.15,0.11 -0.05,0.03 -0.1,0.05 -0.14,0.09 -0.04,0.03 -0.07,0.07 -0.09,0.12 -0.02,0.06 -0.02,0.11 0,0.17 0.01,0.05 0.03,0.1 0.06,0.15 0.03,0.06 0.05,0.11 0.07,0.16 0.02,0.05 0.04,0.1 0.03,0.15 0,0.07 -0.03,0.12 -0.08,0.16 -0.04,0.04 -0.09,0.08 -0.15,0.11 -0.05,0.03 -0.11,0.05 -0.15,0.08 -0.05,0.03 -0.08,0.05 -0.08,0.08 -0.01,0.06 0,0.1 0.02,0.13 0.03,0.04 0.06,0.07 0.09,0.1 0.04,0.03 0.07,0.06 0.09,0.1 0.02,0.04 0.03,0.09 0.01,0.15 -0.01,0.05 -0.04,0.08 -0.07,0.1 -0.04,0.03 -0.08,0.05 -0.12,0.06 -0.05,0.02 -0.09,0.03 -0.12,0.05 -0.03,0.03 -0.06,0.05 -0.07,0.09 0,0.04 0,0.07 0.01,0.1 0.02,0.03 0.04,0.06 0.06,0.09 0.02,0.02 0.04,0.05 0.05,0.07 0.02,0.03 0.03,0.06 0.03,0.09 0,0.03 -0.02,0.05 -0.04,0.08 -0.03,0.02 -0.07,0.03 -0.1,0.05 -0.04,0.02 -0.08,0.03 -0.11,0.05 -0.03,0.01 -0.05,0.03 -0.05,0.05 -0.01,0.04 0,0.07 0.01,0.1 0.02,0.03 0.04,0.05 0.06,0.08 0.02,0.03 0.04,0.05 0.05,0.08 0.02,0.02 0.03,0.04 0.03,0.06 -0.01,0.03 -0.03,0.06 -0.05,0.08 -0.02,0.02 -0.05,0.04 -0.08,0.05 -0.04,0.02 -0.07,0.04 -0.09,0.06 -0.03,0.02 -0.05,0.04 -0.06,0.07 0,0.02 0,0.05 0.01,0.08 0.01,0.03 0.03,0.06 0.04,0.08 0.02,0.03 0.04,0.06 0.05,0.09 0.01,0.03 0.01,0.06 0,0.09 -0.01,0.03 -0.03,0.05 -0.06,0.07 -0.03,0.03 -0.07,0.05 -0.11,0.07 -0.03,0.03 -0.07,0.05 -0.1,0.08 -0.03,0.03 -0.05,0.07 -0.06,0.11 -0.01,0.04 0,0.07 0.02,0.1 0.02,0.04 0.04,0.07 0.07,0.1 0.02,0.03 0.05,0.07 0.07,0.1 0.01,0.03 0.02,0.06 0.02,0.09 -0.01,0.03 -0.03,0.06 -0.07,0.08 -0.03,0.03 -0.07,0.05 -0.11,0.07 -0.04,0.02 -0.08,0.04 -0.11,0.06 -0.04,0.03 -0.06,0.06 -0.07,0.09 -0.01,0.04 0,0.08 0.02,0.11 0.01,0.03 0.04,0.06 0.06,0.09 0.03,0.03 0.05,0.06 0.07,0.09 0.01,0.04 0.02,0.08 0,0.13 -0.01,0.05 -0.03,0.08 -0.07,0.11 -0.03,0.03 -0.07,0.04 -0.11,0.06 -0.04,0.01 -0.07,0.03 -0.11,0.05 -0.03,0.02 -0.05,0.05 -0.06,0.09 -0.01,0.04 0,0.08 0.03,0.12 0.03,0.04 0.07,0.07 0.11,0.11 0.04,0.03 0.08,0.07 0.1,0.1 0.03,0.04 0.05,0.07 0.04,0.11 -0.01,0.05 -0.05,0.08 -0.09,0.11 -0.04,0.02 -0.1,0.03 -0.15,0.04 -0.05,0.01 -0.11,0.02 -0.15,0.04 -0.04,0.02 -0.08,0.04 -0.09,0.09 -0.01,0.05 0,0.08 0.02,0.12 0.03,0.03 0.06,0.05 0.1,0.08 0.04,0.02 0.08,0.05 0.1,0.07 0.03,0.03 0.05,0.06 0.04,0.1 -0.01,0.03 -0.04,0.06 -0.07,0.08 -0.04,0.02 -0.09,0.03 -0.13,0.05 -0.05,0.01 -0.1,0.02 -0.13,0.04 -0.04,0.02 -0.07,0.04 -0.08,0.08 -0.01,0.04 0,0.09 0.03,0.13 0.03,0.05 0.07,0.09 0.11,0.14 0.04,0.04 0.08,0.09 0.09,0.14 0.02,0.05 0.02,0.1 -0.01,0.16 -0.04,0.06 -0.09,0.1 -0.15,0.13 -0.06,0.03 -0.14,0.04 -0.21,0.05 -0.07,0 -0.15,-0.01 -0.23,-0.02 -0.07,-0.01 -0.14,-0.02 -0.2,-0.04l-4.57 -1.24 -2.6 -0.71c-0.05,0.02 -0.11,0.02 -0.18,0.01l-5.03 -0.67c-0.09,0.09 -0.15,0.11 -0.28,0.12l-18.81 0.58 -0.03 0 0 0c-0.02,-0.01 -0.04,-0.01 -0.06,-0.02l-1.52 -0.79c-0.07,-0.03 -0.12,-0.11 -0.12,-0.2 0,-0.09 0.04,-0.17 0.11,-0.21l1.32 -0.79 -1.37 -0.7c-0.07,-0.04 -0.12,-0.12 -0.12,-0.21 0,-0.09 0.04,-0.16 0.11,-0.21l1.32 -0.78 -1.37 -0.71c-0.07,-0.04 -0.12,-0.11 -0.12,-0.2 0,-0.09 0.04,-0.17 0.11,-0.21l1.32 -0.79 -1.37 -0.71c-0.07,-0.04 -0.11,-0.11 -0.12,-0.2 0,-0.09 0.04,-0.17 0.11,-0.21l1.33 -0.79 -1.38 -0.7c-0.07,-0.04 -0.11,-0.12 -0.12,-0.21 0,-0.08 0.04,-0.16 0.11,-0.2l1.33 -0.79 -1.37 -0.71c-0.08,-0.04 -0.12,-0.11 -0.12,-0.2 -0.01,-0.09 0.03,-0.17 0.1,-0.21l1.33 -0.79 -1.37 -0.71c-0.08,-0.04 -0.12,-0.11 -0.12,-0.2 -0.01,-0.09 0.03,-0.17 0.1,-0.21l1.33 -0.79 -1.37 -0.7c-0.07,-0.04 -0.12,-0.12 -0.12,-0.21 0,-0.09 0.03,-0.16 0.11,-0.21l1.32 -0.79 -1.37 -0.7c-0.07,-0.04 -0.12,-0.11 -0.12,-0.2 0,-0.09 0.04,-0.17 0.11,-0.21l1.32 -0.79 -1.37 -0.71c-0.07,-0.04 -0.12,-0.11 -0.12,-0.2 0,-0.09 0.04,-0.17 0.11,-0.21l1.32 -0.79 -1.37 -0.7c-0.07,-0.04 -0.12,-0.12 -0.12,-0.21 0,-0.09 0.04,-0.16 0.11,-0.21l1.32 -0.79 -1.37 -0.7c-0.07,-0.04 -0.11,-0.11 -0.12,-0.2 0,-0.09 0.04,-0.17 0.11,-0.21l1.33 -0.79 -1.38 -0.71c-0.07,-0.04 -0.11,-0.11 -0.12,-0.2 0,-0.09 0.04,-0.17 0.11,-0.21l1.33 -0.79 -1.37 -0.71c-0.08,-0.03 -0.12,-0.11 -0.13,-0.2 0,-0.09 0.04,-0.16 0.11,-0.21l1.33 -0.79 -1.37 -0.7c-0.08,-0.04 -0.12,-0.11 -0.12,-0.2 -0.01,-0.09 0.03,-0.17 0.1,-0.21l1.33 -0.79 -1.37 -0.71c-0.07,-0.04 -0.12,-0.11 -0.12,-0.2 -0.01,-0.09 0.04,-0.17 0.1,-0.21l1.33 -0.79 -1.37 -0.7c-0.07,-0.04 -0.12,-0.12 -0.12,-0.21 0,-0.09 0.04,-0.16 0.11,-0.21l1.32 -0.79 -1.37 -0.7c-0.07,-0.04 -0.12,-0.12 -0.12,-0.2 0,-0.09 0.04,-0.17 0.11,-0.21l1.32 -0.79 -1.37 -0.71c-0.07,-0.04 -0.12,-0.11 -0.12,-0.2 0,-0.09 0.04,-0.17 0.11,-0.21l1.32 -0.79 -1.37 -0.71c-0.07,-0.03 -0.11,-0.11 -0.12,-0.2 0,-0.09 0.04,-0.17 0.11,-0.21l1.32 -0.79 -1.37 -0.7c-0.07,-0.04 -0.11,-0.11 -0.12,-0.2 0,-0.09 0.04,-0.17 0.11,-0.21l1.47 -0.88c0.02,-0.01 0.04,-0.02 0.06,-0.02l0 -0.01z"/>
   <path id="Esp.002.cdr_0" fill="#B07B80" d="M38.34 52.66l-0.01 0c-0.13,0.1 -0.19,0.11 -0.33,0.1l-18.66 -2.47 -0.02 0 0 0c-0.02,-0.01 -0.04,-0.02 -0.06,-0.03l-1.38 -1.02c-0.06,-0.05 -0.1,-0.13 -0.08,-0.22 0.01,-0.09 0.06,-0.16 0.14,-0.19l0.48 -0.19c-0.01,0.02 -0.02,0.05 -0.03,0.08 -0.01,0.09 0.02,0.17 0.09,0.22l1.37 1.02c0.02,0.01 0.04,0.02 0.06,0.03l0 0 0.03 0 16.75 2.21 -0.46 -0.12 -4.57 -1.24 -4.56 -1.24 0.46 -1.69 -1.1 -0.75 0.75 -0.06 0.93 0.64 -0.46 1.69 4.57 1.24 4.56 1.24 4.57 1.25 4.57 1.24c0.06,0.02 0.13,0.03 0.2,0.04l0.01 0 0 0.01c-0.04,0.06 -0.09,0.1 -0.16,0.13 -0.06,0.03 -0.13,0.04 -0.21,0.04 -0.07,0.01 -0.15,0 -0.22,-0.01 -0.07,-0.01 -0.14,-0.03 -0.2,-0.04l-4.57 -1.25 -2.46 -0.66zm-0.62 -40.1l-0.5 -0.14 -0.42 1.56 0.55 -0.04 0.37 -1.38zm-1.53 1.59l-0.75 0.05 1.09 0.76 -0.42 1.55 0.55 -0.04 0.46 -1.68 -0.93 -0.64zm-0.69 2.54l-0.75 0.05 1.09 0.75 -0.42 1.56 0.55 -0.04 0.46 -1.69 -0.93 -0.63zm-0.69 2.53l-0.75 0.05 1.09 0.76 -0.42 1.55 0.55 -0.04 0.46 -1.68 -0.93 -0.64zm-0.69 2.53l-0.75 0.06 1.09 0.75 -0.42 1.56 0.55 -0.04 0.46 -1.69 -0.93 -0.64zm-0.69 2.54l-0.75 0.05 1.09 0.76 -0.42 1.55 0.55 -0.04 0.45 -1.68 -0.92 -0.64zm-0.69 2.53l-0.75 0.06 1.09 0.75 -0.42 1.56 0.55 -0.04 0.46 -1.69 -0.93 -0.64zm-0.69 2.54l-0.75 0.05 1.09 0.76 -0.42 1.55 0.54 -0.04 0.46 -1.68 -0.92 -0.64zm-0.69 2.53l-0.75 0.06 1.09 0.75 -0.42 1.56 0.55 -0.04 0.45 -1.69 -0.92 -0.64zm-0.69 2.54l-0.75 0.05 1.09 0.76 -0.43 1.55 0.55 -0.04 0.46 -1.68 -0.92 -0.64zm-0.69 2.53l-0.75 0.06 1.09 0.75 -0.43 1.56 0.55 -0.04 0.46 -1.69 -0.92 -0.64zm-0.7 2.54l-0.74 0.05 1.09 0.76 -0.43 1.55 0.55 -0.04 0.46 -1.68 -0.93 -0.64zm-0.69 2.53l-0.75 0.06 1.1 0.75 -0.43 1.56 0.55 -0.04 0.46 -1.69 -0.93 -0.64zm-0.69 2.54l-0.75 0.05 1.1 0.76 -0.43 1.55 0.55 -0.04 0.46 -1.68 -0.93 -0.64zm-8.58 3.65l-1.19 -0.87c-0.06,-0.05 -0.1,-0.13 -0.08,-0.22 0.01,-0.09 0.06,-0.16 0.14,-0.19l0.48 -0.19c-0.01,0.02 -0.02,0.05 -0.03,0.08 -0.01,0.09 0.02,0.17 0.09,0.22l1.24 0.92 -0.65 0.25zm0.25 -1.89l-1.19 -0.87c-0.06,-0.05 -0.1,-0.13 -0.08,-0.22 0.01,-0.09 0.06,-0.16 0.14,-0.19l0.48 -0.19c-0.02,0.02 -0.02,0.05 -0.03,0.08 -0.01,0.09 0.02,0.17 0.09,0.22l1.24 0.91 -0.65 0.26zm0.24 -1.89l-1.18 -0.88c-0.06,-0.04 -0.1,-0.13 -0.08,-0.21 0.01,-0.09 0.06,-0.16 0.13,-0.19l0.49 -0.19c-0.02,0.02 -0.02,0.05 -0.03,0.08 -0.01,0.09 0.02,0.17 0.09,0.22l1.24 0.91 -0.66 0.26zm0.25 -1.89l-1.18 -0.88c-0.06,-0.05 -0.1,-0.13 -0.08,-0.22 0.01,-0.08 0.06,-0.15 0.13,-0.19l0.49 -0.18c-0.02,0.02 -0.02,0.05 -0.03,0.08 -0.01,0.08 0.02,0.17 0.09,0.22l1.24 0.91 -0.66 0.26zm0.25 -1.89l-1.18 -0.88c-0.07,-0.05 -0.1,-0.13 -0.08,-0.22 0.01,-0.09 0.06,-0.16 0.13,-0.19l0.48 -0.18c-0.01,0.02 -0.01,0.05 -0.02,0.07 -0.01,0.09 0.02,0.17 0.09,0.22l1.24 0.92 -0.66 0.26zm0.25 -1.89l-1.18 -0.88c-0.07,-0.05 -0.1,-0.13 -0.08,-0.22 0.01,-0.09 0.06,-0.16 0.13,-0.19l0.48 -0.19c-0.01,0.03 -0.01,0.06 -0.02,0.08 -0.01,0.09 0.02,0.17 0.09,0.22l1.24 0.92 -0.66 0.26zm0.25 -1.89l-1.18 -0.88c-0.07,-0.05 -0.1,-0.13 -0.09,-0.22 0.02,-0.09 0.07,-0.16 0.14,-0.19l0.48 -0.19c-0.01,0.03 -0.01,0.05 -0.02,0.08 -0.01,0.09 0.02,0.17 0.09,0.22l1.24 0.92 -0.66 0.26zm0.25 -1.9l-1.18 -0.87c-0.07,-0.05 -0.1,-0.13 -0.09,-0.22 0.02,-0.09 0.07,-0.16 0.14,-0.19l0.48 -0.19c-0.01,0.02 -0.01,0.05 -0.02,0.08 -0.01,0.09 0.02,0.17 0.09,0.22l1.24 0.92 -0.66 0.25zm0.25 -1.89l-1.18 -0.87c-0.07,-0.05 -0.1,-0.13 -0.09,-0.22 0.01,-0.09 0.07,-0.16 0.14,-0.19l0.48 -0.19c-0.01,0.02 -0.01,0.05 -0.02,0.08 -0.01,0.09 0.02,0.17 0.09,0.22l1.24 0.92 -0.66 0.25zm0.25 -1.89l-1.18 -0.87c-0.07,-0.05 -0.1,-0.13 -0.09,-0.22 0.01,-0.09 0.07,-0.16 0.14,-0.19l0.48 -0.19c-0.01,0.02 -0.02,0.05 -0.02,0.08 -0.01,0.09 0.02,0.17 0.09,0.22l1.23 0.91 -0.65 0.26zm0.25 -1.89l-1.18 -0.88c-0.07,-0.04 -0.1,-0.13 -0.09,-0.21 0.01,-0.09 0.07,-0.16 0.14,-0.19l0.48 -0.19c-0.01,0.02 -0.02,0.05 -0.02,0.08 -0.01,0.09 0.02,0.17 0.09,0.22l1.23 0.91 -0.65 0.26zm0.25 -1.89l-1.18 -0.88c-0.07,-0.04 -0.1,-0.13 -0.09,-0.22 0.01,-0.08 0.07,-0.16 0.14,-0.18l0.48 -0.19c-0.01,0.02 -0.02,0.05 -0.02,0.08 -0.01,0.09 0.02,0.17 0.09,0.22l1.23 0.91 -0.65 0.26zm0.25 -1.89l-1.18 -0.88c-0.07,-0.05 -0.1,-0.13 -0.09,-0.22 0.01,-0.09 0.06,-0.16 0.14,-0.19l0.48 -0.18c-0.01,0.02 -0.02,0.05 -0.02,0.07 -0.01,0.09 0.02,0.17 0.09,0.22l1.23 0.92 -0.65 0.26zm0.25 -1.89l-1.18 -0.88c-0.07,-0.05 -0.1,-0.13 -0.09,-0.22 0.01,-0.09 0.06,-0.16 0.14,-0.19l0.48 -0.19c-0.01,0.03 -0.02,0.05 -0.02,0.08 -0.01,0.09 0.02,0.17 0.08,0.22l1.24 0.92 -0.65 0.26zm0.25 -1.89l-1.18 -0.88c-0.07,-0.05 -0.1,-0.13 -0.09,-0.22 0.01,-0.09 0.06,-0.16 0.14,-0.19l0.48 -0.19c-0.01,0.03 -0.02,0.05 -0.02,0.08 -0.01,0.09 0.02,0.17 0.08,0.22l1.24 0.92 -0.65 0.26zm0.25 -1.9l-1.18 -0.87c-0.07,-0.05 -0.1,-0.13 -0.09,-0.22 0.01,-0.09 0.06,-0.16 0.14,-0.19l0.48 -0.19c-0.01,0.03 -0.02,0.05 -0.02,0.08 -0.01,0.09 0.02,0.17 0.08,0.22l1.24 0.92 -0.65 0.25zm0.25 -1.89l-1.18 -0.87c-0.07,-0.05 -0.1,-0.13 -0.09,-0.22 0.01,-0.09 0.06,-0.16 0.14,-0.19l0.48 -0.19c-0.01,0.02 -0.02,0.05 -0.02,0.08 -0.01,0.09 0.02,0.17 0.08,0.22l1.24 0.92 -0.65 0.25zm0.25 -1.89l-1.18 -0.87c-0.07,-0.05 -0.1,-0.13 -0.09,-0.22 0.01,-0.09 0.06,-0.16 0.14,-0.19l0.48 -0.19c-0.01,0.02 -0.02,0.05 -0.02,0.08 -0.01,0.09 0.02,0.17 0.08,0.22l1.24 0.91 -0.65 0.26zm0.25 -1.89l-1.18 -0.88c-0.07,-0.04 -0.1,-0.13 -0.09,-0.21 0.01,-0.09 0.06,-0.16 0.14,-0.19l0.48 -0.19c-0.01,0.02 -0.02,0.05 -0.02,0.08 -0.01,0.09 0.02,0.17 0.08,0.22l1.24 0.91 -0.65 0.26zm0.25 -1.89l-1.18 -0.88c-0.07,-0.05 -0.1,-0.13 -0.09,-0.22 0.01,-0.08 0.06,-0.16 0.14,-0.19l0.48 -0.18c-0.01,0.02 -0.02,0.05 -0.02,0.08 -0.01,0.08 0.02,0.17 0.08,0.21l1.24 0.92 -0.65 0.26z"/>
  </g>
 </g>
</svg>
