<?xml version="1.0" encoding="UTF-8"?>
<!DOCTYPE svg PUBLIC "-//W3C//DTD SVG 1.1//EN" "http://www.w3.org/Graphics/SVG/1.1/DTD/svg11.dtd">
<!-- Creator: CorelDRAW 2019 (64 Bit) -->
<svg xmlns="http://www.w3.org/2000/svg" xml:space="preserve" width="65px" height="65px" version="1.1" shape-rendering="geometricPrecision" text-rendering="geometricPrecision" image-rendering="optimizeQuality" fill-rule="evenodd" clip-rule="evenodd"
viewBox="0 0 63.36 63.36"
 xmlns:xlink="http://www.w3.org/1999/xlink">
 <g id="Camada_x0020_1">
  <metadata id="CorelCorpID_0Corel-Layer"/>
  <g id="_2497546212720">
   <path fill="#FBE4DE" fill-rule="nonzero" d="M31.68 0c8.74,0 16.67,3.55 22.4,9.28 5.73,5.73 9.28,13.65 9.28,22.4 0,8.75 -3.55,16.67 -9.28,22.4 -5.73,5.73 -13.66,9.28 -22.4,9.28 -8.75,0 -16.67,-3.55 -22.4,-9.28 -5.73,-5.73 -9.28,-13.65 -9.28,-22.4 0,-8.75 3.55,-16.67 9.28,-22.4 5.73,-5.73 13.65,-9.28 22.4,-9.28zm21.71 9.97c-5.55,-5.56 -13.23,-8.99 -21.71,-8.99 -8.48,0 -16.16,3.43 -21.71,8.99 -5.56,5.55 -8.99,13.23 -8.99,21.71 0,8.48 3.43,16.16 8.99,21.71 5.55,5.56 13.23,8.99 21.71,8.99 8.48,0 16.16,-3.43 21.71,-8.99 5.55,-5.55 8.99,-13.23 8.99,-21.71 0,-8.48 -3.44,-16.16 -8.99,-21.71z"/>
   <path fill="#FBE4DE" d="M8.26 30.75c0.31,0.03 2.6,1.18 2.79,1.15 0.18,-2.48 1.77,-3.43 4.17,-2.45 2,0.83 3.27,3.43 3.68,5.52 0.1,0.54 -0.01,0.47 0.3,0.62 1.8,0.87 3.74,1.86 5.56,2.77 0.41,0.2 0.81,0.4 1.23,0.61 0.73,0.37 0.51,0.35 1.34,0.11 3.85,-1.09 7.74,-2.12 11.58,-3.2l10.12 -2.8c0.3,-0.08 1.23,-0.38 1.47,-0.38l4.01 -1.12c0.34,-0.1 0.66,-0.17 1,-0.28 0.38,-0.11 0.26,-0.24 0.42,0.7 0.06,0.37 0.11,0.74 0.17,1.12 0.02,0.16 0.05,0.39 0.08,0.55 0.04,0.2 0.07,0.35 0.07,0.59 -0.11,0.01 -0.32,0.08 -0.45,0.11l-1.37 0.38c-2.34,0.69 -4.87,1.33 -7.25,2l-7.25 2c-0.61,0.17 -1.21,0.32 -1.82,0.5 -0.59,0.18 -1.2,0.33 -1.81,0.5l-2.72 0.75c-0.31,0.09 -0.59,0.16 -0.91,0.25l-5.44 1.51 0 -1.29c-0.47,-0.26 -1.37,-0.62 -1.9,-0.87 -0.22,-0.11 -0.43,-0.22 -0.65,-0.31 -0.78,-0.32 -1.85,-0.87 -2.6,-1.17 -0.2,-0.09 -0.43,-0.21 -0.63,-0.3l-1.3 -0.58c-0.23,-0.11 -0.42,-0.2 -0.66,-0.3 -0.79,-0.34 -1.81,-0.86 -2.59,-1.18 -0.22,-0.09 -0.41,-0.2 -0.63,-0.29l-1.96 -0.89c-0.42,-0.19 -0.86,-0.4 -1.29,-0.59l-3.89 -1.76c-0.21,-0.1 -0.41,-0.21 -0.63,-0.29l-1.96 -0.89 0 -1.56c0.37,0.2 1.25,0.52 1.66,0.73 0.01,0 0.02,0.01 0.02,0.01 0.01,0 0.02,0.01 0.02,0.01 0.01,0 0.02,0.01 0.02,0.01zm34.76 -10.64l0.94 0c0.39,0.03 0.77,0.08 1.12,0.17 0.41,0.1 0.75,0.21 1.09,0.36 0.91,0.4 1.88,1.18 2.42,1.98 0.2,0.29 0.4,0.55 0.57,0.88 0.25,0.51 0.8,1.63 0.81,2.1 0.29,0.06 0.57,0.2 0.83,0.29l1.61 0.58c0.14,0.05 0.27,0.1 0.41,0.15 1.12,0.45 2.44,0.86 3.58,1.31 0.29,0.11 0.54,0.19 0.83,0.3 0.21,0.08 0.26,0.02 0.3,0.26l0.36 2.34c0.1,0.65 0.19,1.24 0.29,1.89l0.23 1.43c0.02,0.15 0.06,0.29 0.06,0.47 -0.17,0.04 -0.38,0.06 -0.54,0.09 -0.4,0.06 -1.07,0.27 -1.49,0.39 -1.93,0.55 -3.94,1.06 -5.86,1.61 -2.56,0.75 -5.22,1.42 -7.8,2.16 -1.62,0.46 -3.28,0.88 -4.89,1.35l-10.5 2.89c-0.15,0.03 -0.14,0.01 -0.16,0.14 -0.11,-0.01 -0.28,-0.1 -0.38,-0.15 -0.69,-0.35 -1.76,-0.77 -2.5,-1.13 -0.49,-0.23 -0.94,-0.42 -1.43,-0.65l-2.84 -1.29c-0.59,-0.24 -1.59,-0.75 -2.14,-0.98 -1.05,-0.42 -2.5,-1.17 -3.54,-1.61l-2.84 -1.29c-0.77,-0.36 -2.14,-0.93 -2.84,-1.29l-1.42 -0.64c-0.72,-0.35 -2.25,-0.97 -2.84,-1.28l-0.03 -2.32c0,-0.25 -0.03,-0.44 -0.03,-0.73 0,-0.26 0,-0.52 0,-0.79l0.03 -0.72c0.03,-0.59 -0.03,-0.82 0.03,-1.53 0.33,0 0.8,-0.16 1.09,-0.23l8.51 -2.07c2.12,-0.53 4.27,-1.01 6.39,-1.54l10.63 -2.59c0.33,-0.08 0.16,-0.1 0.52,-0.01 0.18,0.05 0.33,0.09 0.52,0.14l6.25 1.68c0.06,-0.09 0.13,-0.15 0.21,-0.23 0.42,-0.42 1.2,-0.94 1.73,-1.21 0.78,-0.39 1.75,-0.62 2.71,-0.68zm4.16 11.27c-0.09,0.11 -1.89,0.57 -2.21,0.65 -2.26,0.62 -4.5,1.28 -6.75,1.87 -2.98,0.78 -6.04,1.69 -9.04,2.5l-2.25 0.63c-0.21,0.04 -0.79,-0.31 -1,-0.41l-4.34 -2.14c-0.18,-0.08 -0.36,-0.11 -0.42,-0.3 -0.26,-0.74 -0.49,-1.4 -0.81,-2.07 -0.5,-1 -0.97,-1.83 -1.65,-2.65 -0.33,-0.4 -0.49,-0.52 -0.7,-0.76 -0.16,-0.19 -0.55,-0.49 -0.79,-0.66l-0.89 -0.56c-0.31,-0.07 -0.67,-0.33 -1.73,-0.52 -1.65,-0.29 -3.05,0.23 -4.02,1.52 -0.11,0.14 -0.39,0.55 -0.43,0.72 -0.19,-0.01 -3.54,-1.47 -3.98,-1.64 -0.12,-0.05 -0.19,-0.05 -0.25,-0.14 0.18,-0.01 0.58,-0.13 0.78,-0.18l8.48 -2.06c3.82,-0.97 7.75,-1.85 11.56,-2.81l3.9 -0.94 0 2.09c0,0.25 0.03,0.39 0.03,0.66 -0.77,0.18 -1.54,0.4 -2.29,0.58l-1.7 0.45c-0.18,0.04 -0.38,0.09 -0.58,0.15 -0.38,0.1 -0.74,0.2 -1.13,0.29 -0.41,0.1 -0.74,0.2 -1.15,0.3 -0.39,0.09 -0.75,0.18 -1.13,0.29 -0.19,0.05 -1.02,0.28 -1.16,0.28 -0.03,0.03 -0.01,0.02 -0.06,0.05l-1.55 0.41c-0.26,0.06 -1.48,0.35 -1.63,0.44l0.19 0.77c0.39,-0.03 1.34,-0.33 1.78,-0.44 0.59,-0.15 1.2,-0.31 1.78,-0.46 0.58,-0.15 3.22,-0.88 3.58,-0.9l5.18 -1.35c0.16,-0.05 0.19,-0.08 0.36,-0.03 0.77,0.22 1.82,0.59 2.66,0.84 0.23,0.07 0.44,0.14 0.66,0.21l4.69 1.48c1.93,0.65 4.05,1.26 6,1.9l2.03 0.65c0.05,-0.09 0.25,-0.7 0.26,-0.82 -0.13,-0.07 -0.31,-0.11 -0.47,-0.16l-1.51 -0.47c-1.91,-0.65 -4.04,-1.25 -5.97,-1.9 -1.28,-0.43 -2.7,-0.84 -3.99,-1.26l-3.99 -1.27c0,-0.59 -0.03,-1.08 -0.03,-1.65l1.92 0.53c0.64,0.18 1.27,0.36 1.93,0.54l3.85 1.08c0.11,-0.44 1.16,-1.26 1.55,-1.49 0.66,-0.4 1.29,-0.7 2.23,-0.84 1,-0.15 1.79,0.18 2.39,0.58 1.22,0.81 2.16,2.27 2.37,3.75 0.06,0.41 -0.08,0.33 0.3,0.46 0.89,0.3 1.9,0.7 2.81,1.02 0.4,0.14 0.77,0.27 1.14,0.41l1.69 0.6c0.11,0.05 0.47,0.19 0.59,0.2 -0.07,0.09 -0.05,0.06 -0.17,0.09l-6.42 1.78c-0.15,0.04 -0.35,0.11 -0.5,0.11zm-3.85 -4.53c0.76,0 1.14,-0.09 1.69,-0.65 0.69,-0.68 0.77,-1.81 0.21,-2.63 -0.86,-1.25 -2.84,-1.27 -3.62,0.28 -0.21,0.42 -0.26,0.78 -0.19,1.28 0.12,0.87 1.01,1.72 1.91,1.72zm6.35 10.48l0.13 0.86 9.58 -1.52c0.19,-0.03 0.47,-0.1 0.66,-0.1 0,-0.35 -0.1,-0.57 -0.1,-0.86l-1.29 0.2c-0.43,0.07 -0.85,0.14 -1.28,0.2 -0.42,0.06 -0.85,0.13 -1.28,0.21l-6.42 1.01zm-46.37 -2.41c0.13,0.07 0.38,0.15 0.54,0.21l1.68 0.6c0.39,0.13 0.75,0.28 1.12,0.41l5.29 1.91c0.1,0.04 0.2,0.06 0.29,0.11 0.04,-0.08 0.26,-0.72 0.26,-0.8 0,-0.06 -0.17,-0.09 -0.24,-0.12 -0.89,-0.28 -2.14,-0.79 -3.08,-1.11 -1.04,-0.35 -2.29,-0.84 -3.35,-1.22 -0.19,-0.07 -2.09,-0.77 -2.25,-0.78 -0.05,0.22 -0.25,0.61 -0.26,0.79zm10.75 -4.47c-0.78,0.13 -1.46,0.85 -1.3,1.82 0.14,0.77 0.88,1.44 1.83,1.27 0.75,-0.13 1.43,-0.87 1.26,-1.82 -0.13,-0.76 -0.87,-1.42 -1.79,-1.27zm-7.18 7.44l7.17 2.15 0.23 -0.82c-0.13,-0.04 -0.31,-0.09 -0.43,-0.13 -1.61,-0.5 -3.35,-0.98 -4.93,-1.49l-1.35 -0.41c-0.1,-0.03 -0.35,-0.11 -0.46,-0.12 -0.05,0.09 -0.23,0.7 -0.23,0.82zm21.51 -11.27c-0.25,0.16 -4.4,1.06 -4.78,1.23l0.18 0.79c0.49,-0.08 2.77,-0.69 3.45,-0.85 0.55,-0.14 3.17,-0.84 3.5,-0.84l0.33 -0.1 -0.2 -0.82c-0.19,0 -0.99,0.22 -1.24,0.28 -0.42,0.11 -0.82,0.22 -1.24,0.31z"/>
  </g>
 </g>
</svg>
