<?xml version="1.0" encoding="UTF-8"?>
<!DOCTYPE svg PUBLIC "-//W3C//DTD SVG 1.1//EN" "http://www.w3.org/Graphics/SVG/1.1/DTD/svg11.dtd">
<!-- Creator: CorelDRAW 2019 (64 Bit) -->
<svg xmlns="http://www.w3.org/2000/svg" xml:space="preserve" width="65px" height="65px" version="1.1" shape-rendering="geometricPrecision" text-rendering="geometricPrecision" image-rendering="optimizeQuality" fill-rule="evenodd" clip-rule="evenodd"
viewBox="0 0 63.36 63.36"
 xmlns:xlink="http://www.w3.org/1999/xlink">
 <g id="Camada_x0020_1">
  <metadata id="CorelCorpID_0Corel-Layer"/>
  <g id="_2497546232624">
   <path fill="#FBE4DE" fill-rule="nonzero" d="M31.68 0c8.74,0 16.67,3.55 22.4,9.28 5.73,5.73 9.28,13.65 9.28,22.4 0,8.75 -3.55,16.67 -9.28,22.4 -5.73,5.73 -13.66,9.28 -22.4,9.28 -8.75,0 -16.67,-3.55 -22.4,-9.28 -5.73,-5.73 -9.28,-13.65 -9.28,-22.4 0,-8.75 3.55,-16.67 9.28,-22.4 5.73,-5.73 13.65,-9.28 22.4,-9.28zm21.71 9.97c-5.55,-5.56 -13.23,-8.99 -21.71,-8.99 -8.48,0 -16.16,3.43 -21.71,8.99 -5.56,5.55 -8.99,13.23 -8.99,21.71 0,8.48 3.43,16.16 8.99,21.71 5.55,5.56 13.23,8.99 21.71,8.99 8.48,0 16.16,-3.43 21.71,-8.99 5.55,-5.55 8.99,-13.23 8.99,-21.71 0,-8.48 -3.44,-16.16 -8.99,-21.71z"/>
   <path fill="#FBE4DE" d="M6.55 24.67l11.64 3.32c0.12,0.03 0.19,0.14 0.19,0.26l0 11.15c0,0.09 -0.03,0.16 -0.1,0.22 -0.07,0.05 -0.15,0.06 -0.24,0.04l-11.63 -3.32c-0.12,-0.03 -0.2,-0.14 -0.2,-0.26l0 -11.16c0,-0.08 0.04,-0.16 0.11,-0.21 0.07,-0.05 0.15,-0.07 0.23,-0.04zm12.88 14.73l0 -11.15c0,-0.12 0.08,-0.22 0.19,-0.26l10.61 -3.32c0.08,-0.03 0.16,-0.01 0.23,0.04 0.08,0.05 0.11,0.13 0.11,0.22l0 4.56c0,0.14 -0.12,0.26 -0.26,0.26l-4.03 0c-0.44,0 -0.79,0.36 -0.79,0.79l0 7.13c0,0.12 -0.07,0.22 -0.19,0.26l-5.52 1.73c-0.08,0.02 -0.17,0.01 -0.24,-0.04 -0.07,-0.05 -0.11,-0.13 -0.11,-0.22zm-13.67 -19.6l12.64 3.59c0.12,0.03 0.19,0.13 0.19,0.25l0 3.33c0,0.08 -0.03,0.16 -0.1,0.21 -0.07,0.05 -0.15,0.07 -0.24,0.04l-12.63 -3.59c-0.12,-0.03 -0.2,-0.13 -0.2,-0.25l0 -3.33c0,-0.08 0.04,-0.16 0.11,-0.21 0.07,-0.05 0.15,-0.07 0.23,-0.04zm25.7 -0.01l0 3.32c0,0.12 -0.08,0.22 -0.19,0.25l-11.66 3.83c-0.08,0.02 -0.17,0.01 -0.24,-0.04 -0.07,-0.05 -0.11,-0.13 -0.11,-0.22l0 -3.32c0,-0.12 0.07,-0.22 0.19,-0.26l11.66 -3.82c0.08,-0.03 0.17,-0.01 0.24,0.04 0.07,0.05 0.11,0.13 0.11,0.22zm-24.74 -0.85l11.63 -3.52c0.05,-0.02 0.1,-0.02 0.15,-0.01l12.08 3.36c0.11,0.03 0.19,0.13 0.19,0.26 0.01,0.12 -0.07,0.22 -0.19,0.25l-11.63 3.53c-0.05,0.02 -0.09,0.02 -0.15,0l-12.07 -3.35c-0.12,-0.04 -0.2,-0.14 -0.2,-0.26 0,-0.12 0.08,-0.22 0.19,-0.26zm19.56 11.33l15.88 0c0.1,0 0.19,0.05 0.24,0.14l3.74 6.67c0.02,0.04 0.03,0.08 0.03,0.13l0 10.48c0,0.14 -0.12,0.26 -0.26,0.26l-19.63 0c-0.15,0 -0.27,-0.12 -0.27,-0.26l0 -17.15c0,-0.15 0.12,-0.27 0.27,-0.27zm13.82 -6.57l5.65 -3.16c0.13,-0.08 0.29,-0.03 0.36,0.1l11.79 21.02c0.07,0.13 0.02,0.3 -0.1,0.37l-5.65 3.16c-0.13,0.08 -0.29,0.03 -0.37,-0.1l-11.78 -21.02c-0.07,-0.13 -0.03,-0.3 0.1,-0.37z"/>
  </g>
 </g>
</svg>
