<?xml version="1.0" encoding="UTF-8"?>
<!DOCTYPE svg PUBLIC "-//W3C//DTD SVG 1.1//EN" "http://www.w3.org/Graphics/SVG/1.1/DTD/svg11.dtd">
<!-- Creator: CorelDRAW 2019 (64 Bit) -->
<svg xmlns="http://www.w3.org/2000/svg" xml:space="preserve" width="72px" height="72px" version="1.1" shape-rendering="geometricPrecision" text-rendering="geometricPrecision" image-rendering="optimizeQuality" fill-rule="evenodd" clip-rule="evenodd"
viewBox="0 0 60.79 60.79"
 xmlns:xlink="http://www.w3.org/1999/xlink">
 <g id="Camada_x0020_1">
  <metadata id="CorelCorpID_0Corel-Layer"/>
  <g id="_1960378971312">
   <rect id="square" fill="none" width="60.79" height="60.79"/>
   <path fill="#B07B80" d="M8.89 8.52l43.01 0c2.48,0 4.5,2.02 4.5,4.5l0 0c0,2.47 -2.02,4.5 -4.5,4.5l-43.01 0c-2.48,0 -4.5,-2.03 -4.5,-4.5l0 0c0,-2.48 2.02,-4.5 4.5,-4.5zm0 18l43.01 0c2.48,0 4.5,2.02 4.5,4.5l0 0c0,2.47 -2.02,4.5 -4.5,4.5l-43.01 0c-2.48,0 -4.5,-2.03 -4.5,-4.5l0 0c0,-2.48 2.02,-4.5 4.5,-4.5zm0 17.99l43.01 0c2.48,0 4.5,2.03 4.5,4.5l0 0c0,2.48 -2.02,4.5 -4.5,4.5l-43.01 0c-2.48,0 -4.5,-2.02 -4.5,-4.5l0 0c0,-2.47 2.02,-4.5 4.5,-4.5z"/>
  </g>
 </g>
</svg>
