<?xml version="1.0" encoding="UTF-8"?>
<!DOCTYPE svg PUBLIC "-//W3C//DTD SVG 1.1//EN" "http://www.w3.org/Graphics/SVG/1.1/DTD/svg11.dtd">
<!-- Creator: CorelDRAW 2019 (64 Bit) -->
<svg xmlns="http://www.w3.org/2000/svg" xml:space="preserve" width="64mm" height="64mm" version="1.1" style="shape-rendering:geometricPrecision; text-rendering:geometricPrecision; image-rendering:optimizeQuality; fill-rule:evenodd; clip-rule:evenodd"
viewBox="0 0 1251.23 1251.23"
 xmlns:xlink="http://www.w3.org/1999/xlink">
 <defs>
  <style type="text/css">
   <![CDATA[
    .fil0 {fill:none}
    .fil1 {fill:#FEFEFE}
   ]]>
  </style>
 </defs>
 <g id="Camada_x0020_1">
  <metadata id="CorelCorpID_0Corel-Layer"/>
  <g id="_2377031652608">
   <rect class="fil0" x="-0.01" y="0.01" width="1251.23" height="1251.23"/>
   <path class="fil1" d="M625.05 192.5c144.93,0 262,118.89 262,264.97 0,147.2 -117.05,266.1 -262,266.1 -143.82,0 -260.87,-118.89 -260.87,-266.1 0,-146.07 117.05,-264.97 260.87,-264.97zm-266.45 579.76l104.8 0c47.94,32.84 102.56,50.96 161.66,50.96 59.09,0 114.83,-18.12 162.76,-50.96l104.8 0c91.42,0 166.12,86.06 166.12,191.37l0 95.12 -866.25 0 0 -95.12c0,-105.31 74.69,-191.37 166.11,-191.37l0.01 0z"/>
  </g>
 </g>
</svg>
