<?xml version="1.0" encoding="UTF-8"?>
<!DOCTYPE svg PUBLIC "-//W3C//DTD SVG 1.1//EN" "http://www.w3.org/Graphics/SVG/1.1/DTD/svg11.dtd">
<!-- Creator: CorelDRAW 2019 (64 Bit) -->
<svg xmlns="http://www.w3.org/2000/svg" xml:space="preserve" width="100px" height="100px" version="1.1" shape-rendering="geometricPrecision" text-rendering="geometricPrecision" image-rendering="optimizeQuality" fill-rule="evenodd" clip-rule="evenodd"
viewBox="0 0 75.49 75.49"
 xmlns:xlink="http://www.w3.org/1999/xlink">
 <g id="Camada_x0020_1">
  <metadata id="CorelCorpID_0Corel-Layer"/>
  <g id="_2037324020464">
   <rect fill="none" width="75.49" height="75.49"/>
   <path fill="#B07B80" d="M43.86 51.06c-1.43,0 -2.59,1.16 -2.59,2.59 0,1.43 1.16,2.59 2.59,2.59 1.43,0 2.59,-1.16 2.59,-2.59 0,-1.43 -1.16,-2.59 -2.59,-2.59zm-9.92 0c-1.43,0 -2.59,1.16 -2.59,2.59 0,1.43 1.16,2.59 2.59,2.59 1.43,0 2.59,-1.16 2.59,-2.59 0,-1.43 -1.16,-2.59 -2.59,-2.59zm17.38 -17.08l-17.64 0c-0.71,0 -1.29,0.58 -1.29,1.29l0 0c0,0.72 0.58,1.3 1.29,1.3l16.99 0 -0.74 2.96 -13.08 0c-0.71,0 -1.29,0.58 -1.29,1.29l0 0c0,0.71 0.58,1.3 1.29,1.3l12.43 0 -0.14 0.55c-0.41,1.64 -0.5,3.58 -2.83,3.58l-14.25 0c-2.47,0 -2.53,-2.22 -2.83,-3.98l-1.92 -11.57 24.82 0 -0.81 3.28zm2.58 -5.87l-27.06 0 -0.73 -5.41c-0.11,-0.78 -0.54,-1.12 -1.32,-1.12l-5.34 0c-0.71,0 -1.29,0.59 -1.29,1.3 0,0.72 0.58,1.3 1.29,1.3l4.23 0 3.03 18.42c0.5,3.17 1.23,6.24 5.35,6.24l14.25 0c4.17,0 4.63,-2.98 5.38,-5.98l3.17 -12.71c0.25,-0.98 0.31,-2.04 -0.96,-2.04z"/>
  </g>
 </g>
</svg>
